M48
; DRILL file {KiCad 8.0.2} date 2024-06-17T14:20:13-0700
; FORMAT={-:-/ absolute / inch / decimal}
; #@! TF.CreationDate,2024-06-17T14:20:13-07:00
; #@! TF.GenerationSoftware,Kicad,Pcbnew,8.0.2
; #@! TF.FileFunction,Plated,1,2,PTH
FMAT,2
INCH
; #@! TA.AperFunction,Plated,PTH,ViaDrill
T1C0.0157
; #@! TA.AperFunction,Plated,PTH,ComponentDrill
T2C0.0197
; #@! TA.AperFunction,Plated,PTH,ComponentDrill
T3C0.0256
; #@! TA.AperFunction,Plated,PTH,ComponentDrill
T4C0.1260
%
G90
G05
T1
X4.2844Y-3.5278
X4.3108Y-2.6487
X4.3254Y-2.7098
X4.3257Y-2.7905
X4.3308Y-3.5459
X4.3858Y-4.0709
X4.3929Y-4.0035
X4.4173Y-3.1654
X4.4291Y-3.7835
X4.4404Y-3.236
X4.448Y-3.2989
X4.4567Y-3.1614
X4.5037Y-3.5629
X4.5049Y-3.3593
X4.5145Y-2.8519
X4.5205Y-4.065
X4.5367Y-3.2354
X4.5433Y-3.8583
X4.5687Y-3.6323
X4.5827Y-3.6929
X4.5827Y-3.8031
X4.5961Y-2.9612
X4.6172Y-3.4307
X4.6218Y-3.894
X4.6325Y-3.6477
X4.6372Y-3.0706
X4.6372Y-3.2625
X4.6467Y-3.9626
X4.6605Y-2.8715
X4.6772Y-3.8898
X4.6777Y-3.6727
X4.7087Y-3.1339
X4.7108Y-3.8147
X4.732Y-3.5241
X4.7604Y-4.027
X4.7776Y-3.5176
X4.7795Y-3.9005
X4.8017Y-3.3069
X4.8055Y-2.7312
X4.8055Y-2.8577
X4.8253Y-3.0769
X4.8307Y-3.6732
X4.8357Y-3.7833
X4.8369Y-2.7638
X4.8465Y-3.3858
X4.8465Y-3.8425
X4.8583Y-3.5906
X4.8747Y-2.8162
X4.8825Y-4.145
X4.8918Y-3.5256
X4.9023Y-3.8549
X4.9137Y-2.8925
X4.9252Y-3.6417
X4.9528Y-3.9724
X4.96Y-3.864
X4.9636Y-3.3408
X4.9823Y-2.748
X4.9857Y-3.3914
X4.9867Y-3.5257
X5.0047Y-3.6762
X5.0172Y-3.7831
X5.0236Y-3.6063
X5.0269Y-2.9451
X5.066Y-3.2724
X5.0698Y-3.9666
X5.0709Y-3.1929
X5.0744Y-4.1043
X5.0823Y-3.357
X5.0903Y-3.8695
X5.106Y-3.0932
X5.1093Y-3.9837
X5.126Y-3.3909
X5.1378Y-3.7362
X5.1535Y-3.815
X5.1696Y-3.6523
X5.1709Y-3.5782
X5.173Y-3.5159
X5.1897Y-3.4509
X5.2008Y-3.3912
X5.2008Y-3.2239
X5.2047Y-2.8543
X5.2087Y-2.9685
X5.2362Y-4.1772
X5.2745Y-3.3916
X5.2994Y-3.7026
X5.3111Y-3.539
X5.3266Y-3.7318
X5.346Y-3.5077
X5.3734Y-3.6059
X5.3745Y-3.0095
X5.3753Y-3.7163
X5.3986Y-4.2508
X5.4238Y-3.8916
X5.4238Y-3.7171
X5.4414Y-3.9749
X5.4521Y-3.7632
X5.4672Y-3.5185
X5.475Y-4.0429
X5.5197Y-3.9816
T3
X4.387Y-2.6358
X4.387Y-2.6858
X4.387Y-2.7358
X4.387Y-2.7858
X4.387Y-2.8358
X4.387Y-2.8858
X4.387Y-2.9358
X4.387Y-2.9858
X4.437Y-2.6358
X4.437Y-2.6858
X4.437Y-2.7358
X4.437Y-2.7858
X4.437Y-2.8358
X4.437Y-2.8858
X4.437Y-2.9358
X4.437Y-2.9858
T4
X4.6855Y-4.3504
X5.1255Y-4.3504
T2
G00X4.752Y-2.5502
M15
G01X4.752Y-2.5778
M16
G05
G00X5.0118Y-2.5502
M15
G01X5.0118Y-2.5778
M16
G05
M30
