%TF.GenerationSoftware,KiCad,Pcbnew,8.0.2*%
%TF.CreationDate,2024-06-14T14:56:41-07:00*%
%TF.ProjectId,USB_SPDTK,5553425f-5350-4445-944b-2e6b69636164,rev?*%
%TF.SameCoordinates,Original*%
%TF.FileFunction,Copper,L1,Top*%
%TF.FilePolarity,Positive*%
%FSLAX46Y46*%
G04 Gerber Fmt 4.6, Leading zero omitted, Abs format (unit mm)*
G04 Created by KiCad (PCBNEW 8.0.2) date 2024-06-14 14:56:41*
%MOMM*%
%LPD*%
G01*
G04 APERTURE LIST*
G04 Aperture macros list*
%AMRoundRect*
0 Rectangle with rounded corners*
0 $1 Rounding radius*
0 $2 $3 $4 $5 $6 $7 $8 $9 X,Y pos of 4 corners*
0 Add a 4 corners polygon primitive as box body*
4,1,4,$2,$3,$4,$5,$6,$7,$8,$9,$2,$3,0*
0 Add four circle primitives for the rounded corners*
1,1,$1+$1,$2,$3*
1,1,$1+$1,$4,$5*
1,1,$1+$1,$6,$7*
1,1,$1+$1,$8,$9*
0 Add four rect primitives between the rounded corners*
20,1,$1+$1,$2,$3,$4,$5,0*
20,1,$1+$1,$4,$5,$6,$7,0*
20,1,$1+$1,$6,$7,$8,$9,0*
20,1,$1+$1,$8,$9,$2,$3,0*%
G04 Aperture macros list end*
%TA.AperFunction,SMDPad,CuDef*%
%ADD10RoundRect,0.155000X0.155000X-0.212500X0.155000X0.212500X-0.155000X0.212500X-0.155000X-0.212500X0*%
%TD*%
%TA.AperFunction,SMDPad,CuDef*%
%ADD11RoundRect,0.155000X-0.212500X-0.155000X0.212500X-0.155000X0.212500X0.155000X-0.212500X0.155000X0*%
%TD*%
%TA.AperFunction,SMDPad,CuDef*%
%ADD12RoundRect,0.075000X0.075000X-0.700000X0.075000X0.700000X-0.075000X0.700000X-0.075000X-0.700000X0*%
%TD*%
%TA.AperFunction,SMDPad,CuDef*%
%ADD13RoundRect,0.075000X0.700000X-0.075000X0.700000X0.075000X-0.700000X0.075000X-0.700000X-0.075000X0*%
%TD*%
%TA.AperFunction,SMDPad,CuDef*%
%ADD14R,1.100000X3.700000*%
%TD*%
%TA.AperFunction,SMDPad,CuDef*%
%ADD15RoundRect,0.155000X0.212500X0.155000X-0.212500X0.155000X-0.212500X-0.155000X0.212500X-0.155000X0*%
%TD*%
%TA.AperFunction,SMDPad,CuDef*%
%ADD16RoundRect,0.237500X0.287500X0.237500X-0.287500X0.237500X-0.287500X-0.237500X0.287500X-0.237500X0*%
%TD*%
%TA.AperFunction,SMDPad,CuDef*%
%ADD17RoundRect,0.160000X0.160000X-0.197500X0.160000X0.197500X-0.160000X0.197500X-0.160000X-0.197500X0*%
%TD*%
%TA.AperFunction,SMDPad,CuDef*%
%ADD18RoundRect,0.237500X-0.300000X-0.237500X0.300000X-0.237500X0.300000X0.237500X-0.300000X0.237500X0*%
%TD*%
%TA.AperFunction,SMDPad,CuDef*%
%ADD19R,1.250000X1.000000*%
%TD*%
%TA.AperFunction,SMDPad,CuDef*%
%ADD20RoundRect,0.160000X0.197500X0.160000X-0.197500X0.160000X-0.197500X-0.160000X0.197500X-0.160000X0*%
%TD*%
%TA.AperFunction,SMDPad,CuDef*%
%ADD21RoundRect,0.237500X0.237500X-0.300000X0.237500X0.300000X-0.237500X0.300000X-0.237500X-0.300000X0*%
%TD*%
%TA.AperFunction,SMDPad,CuDef*%
%ADD22RoundRect,0.237500X-0.237500X0.287500X-0.237500X-0.287500X0.237500X-0.287500X0.237500X0.287500X0*%
%TD*%
%TA.AperFunction,SMDPad,CuDef*%
%ADD23RoundRect,0.150000X-0.512500X-0.150000X0.512500X-0.150000X0.512500X0.150000X-0.512500X0.150000X0*%
%TD*%
%TA.AperFunction,SMDPad,CuDef*%
%ADD24RoundRect,0.160000X-0.160000X0.197500X-0.160000X-0.197500X0.160000X-0.197500X0.160000X0.197500X0*%
%TD*%
%TA.AperFunction,ComponentPad*%
%ADD25R,1.000000X1.000000*%
%TD*%
%TA.AperFunction,ComponentPad*%
%ADD26O,1.000000X1.000000*%
%TD*%
%TA.AperFunction,SMDPad,CuDef*%
%ADD27RoundRect,0.150000X-0.150000X0.512500X-0.150000X-0.512500X0.150000X-0.512500X0.150000X0.512500X0*%
%TD*%
%TA.AperFunction,SMDPad,CuDef*%
%ADD28RoundRect,0.250000X-0.412500X-0.650000X0.412500X-0.650000X0.412500X0.650000X-0.412500X0.650000X0*%
%TD*%
%TA.AperFunction,SMDPad,CuDef*%
%ADD29RoundRect,0.250000X0.650000X-1.000000X0.650000X1.000000X-0.650000X1.000000X-0.650000X-1.000000X0*%
%TD*%
%TA.AperFunction,SMDPad,CuDef*%
%ADD30RoundRect,0.160000X-0.197500X-0.160000X0.197500X-0.160000X0.197500X0.160000X-0.197500X0.160000X0*%
%TD*%
%TA.AperFunction,SMDPad,CuDef*%
%ADD31C,1.000000*%
%TD*%
%TA.AperFunction,SMDPad,CuDef*%
%ADD32R,1.800000X2.100000*%
%TD*%
%TA.AperFunction,ComponentPad*%
%ADD33C,3.600000*%
%TD*%
%TA.AperFunction,ConnectorPad*%
%ADD34C,5.600000*%
%TD*%
%TA.AperFunction,ConnectorPad*%
%ADD35C,0.787400*%
%TD*%
%TA.AperFunction,SMDPad,CuDef*%
%ADD36RoundRect,0.155000X-0.155000X0.212500X-0.155000X-0.212500X0.155000X-0.212500X0.155000X0.212500X0*%
%TD*%
%TA.AperFunction,SMDPad,CuDef*%
%ADD37RoundRect,0.250000X0.337500X0.475000X-0.337500X0.475000X-0.337500X-0.475000X0.337500X-0.475000X0*%
%TD*%
%TA.AperFunction,SMDPad,CuDef*%
%ADD38RoundRect,0.100000X0.100000X0.575000X-0.100000X0.575000X-0.100000X-0.575000X0.100000X-0.575000X0*%
%TD*%
%TA.AperFunction,ComponentPad*%
%ADD39O,0.900000X1.600000*%
%TD*%
%TA.AperFunction,SMDPad,CuDef*%
%ADD40RoundRect,0.250000X0.550000X0.450000X-0.550000X0.450000X-0.550000X-0.450000X0.550000X-0.450000X0*%
%TD*%
%TA.AperFunction,SMDPad,CuDef*%
%ADD41RoundRect,0.250000X0.700000X0.700000X-0.700000X0.700000X-0.700000X-0.700000X0.700000X-0.700000X0*%
%TD*%
%TA.AperFunction,ViaPad*%
%ADD42C,0.800000*%
%TD*%
%TA.AperFunction,Conductor*%
%ADD43C,0.500000*%
%TD*%
%TA.AperFunction,Conductor*%
%ADD44C,0.600000*%
%TD*%
%TA.AperFunction,Conductor*%
%ADD45C,0.254000*%
%TD*%
%TA.AperFunction,Conductor*%
%ADD46C,0.400000*%
%TD*%
%TA.AperFunction,Conductor*%
%ADD47C,0.200000*%
%TD*%
%TA.AperFunction,Conductor*%
%ADD48C,0.400600*%
%TD*%
%TA.AperFunction,Conductor*%
%ADD49C,0.800000*%
%TD*%
%TA.AperFunction,Conductor*%
%ADD50C,0.250000*%
%TD*%
G04 APERTURE END LIST*
D10*
%TO.P,C17,1*%
%TO.N,Net-(C17-Pad1)*%
X129800000Y-105367500D03*
%TO.P,C17,2*%
%TO.N,GND*%
X129800000Y-104232500D03*
%TD*%
D11*
%TO.P,C8,1*%
%TO.N,+3.3V*%
X133565000Y-88700000D03*
%TO.P,C8,2*%
%TO.N,GND*%
X134700000Y-88700000D03*
%TD*%
D12*
%TO.P,U4,1,VBAT*%
%TO.N,+3.3V*%
X123275000Y-99525000D03*
%TO.P,U4,2,PC13*%
%TO.N,unconnected-(U4-PC13-Pad2)*%
X123775000Y-99525000D03*
%TO.P,U4,3,PC14*%
%TO.N,unconnected-(U4-PC14-Pad3)*%
X124275000Y-99525000D03*
%TO.P,U4,4,PC15*%
%TO.N,unconnected-(U4-PC15-Pad4)*%
X124775000Y-99525000D03*
%TO.P,U4,5,PH0*%
%TO.N,Net-(U4-PH0)*%
X125275000Y-99525000D03*
%TO.P,U4,6,PH1*%
%TO.N,Net-(U4-PH1)*%
X125775000Y-99525000D03*
%TO.P,U4,7,NRST*%
%TO.N,Net-(J2-~{RESET})*%
X126275000Y-99525000D03*
%TO.P,U4,8,PC0*%
%TO.N,S1U*%
X126775000Y-99525000D03*
%TO.P,U4,9,PC1*%
%TO.N,S1D*%
X127275000Y-99525000D03*
%TO.P,U4,10,PC2*%
%TO.N,S2U*%
X127775000Y-99525000D03*
%TO.P,U4,11,PC3*%
%TO.N,S2D*%
X128275000Y-99525000D03*
%TO.P,U4,12,VSSA*%
%TO.N,GND*%
X128775000Y-99525000D03*
%TO.P,U4,13,VDDA*%
%TO.N,Net-(U4-VDDA)*%
X129275000Y-99525000D03*
%TO.P,U4,14,PA0*%
%TO.N,Net-(U4-PA0)*%
X129775000Y-99525000D03*
%TO.P,U4,15,PA1*%
%TO.N,unconnected-(U4-PA1-Pad15)*%
X130275000Y-99525000D03*
%TO.P,U4,16,PA2*%
%TO.N,unconnected-(U4-PA2-Pad16)*%
X130775000Y-99525000D03*
D13*
%TO.P,U4,17,PA3*%
%TO.N,unconnected-(U4-PA3-Pad17)*%
X132700000Y-97600000D03*
%TO.P,U4,18,VSS*%
%TO.N,GND*%
X132700000Y-97100000D03*
%TO.P,U4,19,VDD*%
%TO.N,+3.3V*%
X132700000Y-96600000D03*
%TO.P,U4,20,PA4*%
%TO.N,unconnected-(U4-PA4-Pad20)*%
X132700000Y-96100000D03*
%TO.P,U4,21,PA5*%
%TO.N,unconnected-(U4-PA5-Pad21)*%
X132700000Y-95600000D03*
%TO.P,U4,22,PA6*%
%TO.N,unconnected-(U4-PA6-Pad22)*%
X132700000Y-95100000D03*
%TO.P,U4,23,PA7*%
%TO.N,unconnected-(U4-PA7-Pad23)*%
X132700000Y-94600000D03*
%TO.P,U4,24,PC4*%
%TO.N,unconnected-(U4-PC4-Pad24)*%
X132700000Y-94100000D03*
%TO.P,U4,25,PC5*%
%TO.N,unconnected-(U4-PC5-Pad25)*%
X132700000Y-93600000D03*
%TO.P,U4,26,PB0*%
%TO.N,Net-(U4-PB0)*%
X132700000Y-93100000D03*
%TO.P,U4,27,PB1*%
%TO.N,unconnected-(U4-PB1-Pad27)*%
X132700000Y-92600000D03*
%TO.P,U4,28,PB2*%
%TO.N,/Controller/BOOT1*%
X132700000Y-92100000D03*
%TO.P,U4,29,PB10*%
%TO.N,/Controller/SPI2_SCK*%
X132700000Y-91600000D03*
%TO.P,U4,30,VCAP1*%
%TO.N,Net-(U4-VCAP1)*%
X132700000Y-91100000D03*
%TO.P,U4,31,VSS*%
%TO.N,GND*%
X132700000Y-90600000D03*
%TO.P,U4,32,VDD*%
%TO.N,+3.3V*%
X132700000Y-90100000D03*
D12*
%TO.P,U4,33,PB12*%
%TO.N,unconnected-(U4-PB12-Pad33)*%
X130775000Y-88175000D03*
%TO.P,U4,34,PB13*%
%TO.N,unconnected-(U4-PB13-Pad34)*%
X130275000Y-88175000D03*
%TO.P,U4,35,PB14*%
%TO.N,/Controller/SPI2_MISO*%
X129775000Y-88175000D03*
%TO.P,U4,36,PB15*%
%TO.N,/Controller/SPI2_MOSI*%
X129275000Y-88175000D03*
%TO.P,U4,37,PC6*%
%TO.N,unconnected-(U4-PC6-Pad37)*%
X128775000Y-88175000D03*
%TO.P,U4,38,PC7*%
%TO.N,unconnected-(U4-PC7-Pad38)*%
X128275000Y-88175000D03*
%TO.P,U4,39,PC8*%
%TO.N,Aux0*%
X127775000Y-88175000D03*
%TO.P,U4,40,PC9*%
%TO.N,Aux1*%
X127275000Y-88175000D03*
%TO.P,U4,41,PA8*%
%TO.N,Net-(U4-PA8)*%
X126775000Y-88175000D03*
%TO.P,U4,42,PA9*%
%TO.N,Net-(U4-PA9)*%
X126275000Y-88175000D03*
%TO.P,U4,43,PA10*%
%TO.N,Net-(U4-PA10)*%
X125775000Y-88175000D03*
%TO.P,U4,44,PA11*%
%TO.N,/Controller/USB-*%
X125275000Y-88175000D03*
%TO.P,U4,45,PA12*%
%TO.N,/Controller/USB+*%
X124775000Y-88175000D03*
%TO.P,U4,46,PA13*%
%TO.N,/Controller/JTMS*%
X124275000Y-88175000D03*
%TO.P,U4,47,VSS*%
%TO.N,GND*%
X123775000Y-88175000D03*
%TO.P,U4,48,VDD*%
%TO.N,+3.3V*%
X123275000Y-88175000D03*
D13*
%TO.P,U4,49,PA14*%
%TO.N,/Controller/JTCK*%
X121350000Y-90100000D03*
%TO.P,U4,50,PA15*%
%TO.N,/Controller/JTDI*%
X121350000Y-90600000D03*
%TO.P,U4,51,PC10*%
%TO.N,Aux2*%
X121350000Y-91100000D03*
%TO.P,U4,52,PC11*%
%TO.N,Aux3*%
X121350000Y-91600000D03*
%TO.P,U4,53,PC12*%
%TO.N,unconnected-(U4-PC12-Pad53)*%
X121350000Y-92100000D03*
%TO.P,U4,54,PD2*%
%TO.N,HVEnable*%
X121350000Y-92600000D03*
%TO.P,U4,55,PB3*%
%TO.N,/Controller/JTDO*%
X121350000Y-93100000D03*
%TO.P,U4,56,PB4*%
%TO.N,unconnected-(U4-PB4-Pad56)*%
X121350000Y-93600000D03*
%TO.P,U4,57,PB5*%
%TO.N,unconnected-(U4-PB5-Pad57)*%
X121350000Y-94100000D03*
%TO.P,U4,58,PB6*%
%TO.N,unconnected-(U4-PB6-Pad58)*%
X121350000Y-94600000D03*
%TO.P,U4,59,PB7*%
%TO.N,unconnected-(U4-PB7-Pad59)*%
X121350000Y-95100000D03*
%TO.P,U4,60,BOOT0*%
%TO.N,Net-(U4-BOOT0)*%
X121350000Y-95600000D03*
%TO.P,U4,61,PB8*%
%TO.N,unconnected-(U4-PB8-Pad61)*%
X121350000Y-96100000D03*
%TO.P,U4,62,PB9*%
%TO.N,/Controller/~{SPI2NSS}*%
X121350000Y-96600000D03*
%TO.P,U4,63,VSS*%
%TO.N,GND*%
X121350000Y-97100000D03*
%TO.P,U4,64,VDD*%
%TO.N,+3.3V*%
X121350000Y-97600000D03*
%TD*%
D11*
%TO.P,C5,1*%
%TO.N,GND*%
X137900000Y-93500000D03*
%TO.P,C5,2*%
%TO.N,Net-(U2-VOUT)*%
X139035000Y-93500000D03*
%TD*%
D14*
%TO.P,L1,1,1*%
%TO.N,Net-(U1-VIN)*%
X136800000Y-70900000D03*
%TO.P,L1,2,2*%
%TO.N,Net-(D1-A)*%
X133800000Y-70900000D03*
%TD*%
D15*
%TO.P,C7,1*%
%TO.N,+3.3V*%
X121400000Y-101400000D03*
%TO.P,C7,2*%
%TO.N,GND*%
X120265000Y-101400000D03*
%TD*%
D16*
%TO.P,D3,1,K*%
%TO.N,GND*%
X140375000Y-99700000D03*
%TO.P,D3,2,A*%
%TO.N,Net-(D3-A)*%
X138625000Y-99700000D03*
%TD*%
D17*
%TO.P,R3,1*%
%TO.N,HVEnable*%
X138100000Y-77395000D03*
%TO.P,R3,2*%
%TO.N,Net-(U1-VIN)*%
X138100000Y-76200000D03*
%TD*%
D18*
%TO.P,C14,1*%
%TO.N,GND*%
X113237500Y-95400000D03*
%TO.P,C14,2*%
%TO.N,Net-(J2-~{RESET})*%
X114962500Y-95400000D03*
%TD*%
D19*
%TO.P,SW2,1,1*%
%TO.N,Net-(U4-BOOT0)*%
X116575000Y-82100000D03*
%TO.P,SW2,2,2*%
%TO.N,+3.3V*%
X108825000Y-82100000D03*
%TD*%
D17*
%TO.P,R2,1*%
%TO.N,Net-(U1-VIN)*%
X139400000Y-70197500D03*
%TO.P,R2,2*%
%TO.N,VBUS*%
X139400000Y-69002500D03*
%TD*%
D20*
%TO.P,R5,1*%
%TO.N,GND*%
X135497500Y-78900000D03*
%TO.P,R5,2*%
%TO.N,Net-(U1-FB)*%
X134302500Y-78900000D03*
%TD*%
D21*
%TO.P,C1,1*%
%TO.N,GND*%
X138900000Y-73562500D03*
%TO.P,C1,2*%
%TO.N,Net-(U1-VIN)*%
X138900000Y-71837500D03*
%TD*%
D22*
%TO.P,D6,1,K*%
%TO.N,GND*%
X130200000Y-83250000D03*
%TO.P,D6,2,A*%
%TO.N,Net-(D6-A)*%
X130200000Y-85000000D03*
%TD*%
D23*
%TO.P,U1,1,SW*%
%TO.N,Net-(D1-A)*%
X133962500Y-75450000D03*
%TO.P,U1,2,GND*%
%TO.N,GND*%
X133962500Y-76400000D03*
%TO.P,U1,3,FB*%
%TO.N,Net-(U1-FB)*%
X133962500Y-77350000D03*
%TO.P,U1,4,EN*%
%TO.N,HVEnable*%
X136237500Y-77350000D03*
%TO.P,U1,5,VIN*%
%TO.N,Net-(U1-VIN)*%
X136237500Y-75450000D03*
%TD*%
D11*
%TO.P,C19,1*%
%TO.N,GND*%
X139065000Y-103800000D03*
%TO.P,C19,2*%
%TO.N,+3.3V*%
X140200000Y-103800000D03*
%TD*%
D24*
%TO.P,R1,1*%
%TO.N,VBUS*%
X128000000Y-72202500D03*
%TO.P,R1,2*%
%TO.N,+VSW*%
X128000000Y-73397500D03*
%TD*%
D22*
%TO.P,D4,1,K*%
%TO.N,GND*%
X134000000Y-83250000D03*
%TO.P,D4,2,A*%
%TO.N,Net-(D4-A)*%
X134000000Y-85000000D03*
%TD*%
D25*
%TO.P,J3,1,Pin_1*%
%TO.N,S1U*%
X111430000Y-66950000D03*
D26*
%TO.P,J3,2,Pin_2*%
%TO.N,S1D*%
X112700000Y-66950000D03*
%TO.P,J3,3,Pin_3*%
%TO.N,S2U*%
X111430000Y-68220000D03*
%TO.P,J3,4,Pin_4*%
%TO.N,S2D*%
X112700000Y-68220000D03*
%TO.P,J3,5,Pin_5*%
%TO.N,S1U_OUT*%
X111430000Y-69490000D03*
%TO.P,J3,6,Pin_6*%
%TO.N,S1D_OUT*%
X112700000Y-69490000D03*
%TO.P,J3,7,Pin_7*%
%TO.N,S2U_OUT*%
X111430000Y-70760000D03*
%TO.P,J3,8,Pin_8*%
%TO.N,S2D_OUT*%
X112700000Y-70760000D03*
%TO.P,J3,9,Pin_9*%
%TO.N,Aux0*%
X111430000Y-72030000D03*
%TO.P,J3,10,Pin_10*%
%TO.N,Aux1*%
X112700000Y-72030000D03*
%TO.P,J3,11,Pin_11*%
%TO.N,Aux2*%
X111430000Y-73300000D03*
%TO.P,J3,12,Pin_12*%
%TO.N,Aux3*%
X112700000Y-73300000D03*
%TO.P,J3,13,Pin_13*%
%TO.N,+VSW*%
X111430000Y-74570000D03*
%TO.P,J3,14,Pin_14*%
%TO.N,GND*%
X112700000Y-74570000D03*
%TO.P,J3,15,Pin_15*%
%TO.N,+VSW*%
X111430000Y-75840000D03*
%TO.P,J3,16,Pin_16*%
%TO.N,GND*%
X112700000Y-75840000D03*
%TD*%
D27*
%TO.P,U2,1,VIN*%
%TO.N,VBUS*%
X140050000Y-88362500D03*
%TO.P,U2,2,GND*%
%TO.N,GND*%
X139100000Y-88362500D03*
%TO.P,U2,3,ON/~{OFF}*%
%TO.N,Net-(U2-ON{slash}~{OFF})*%
X138150000Y-88362500D03*
%TO.P,U2,4,BP*%
%TO.N,Net-(U2-BP)*%
X138150000Y-90637500D03*
%TO.P,U2,5,VOUT*%
%TO.N,Net-(U2-VOUT)*%
X140050000Y-90637500D03*
%TD*%
D28*
%TO.P,C20,1*%
%TO.N,+VSW*%
X117637500Y-70700000D03*
%TO.P,C20,2*%
%TO.N,GND*%
X120762500Y-70700000D03*
%TD*%
D29*
%TO.P,D1,1,K*%
%TO.N,+VSW*%
X130500000Y-74800000D03*
%TO.P,D1,2,A*%
%TO.N,Net-(D1-A)*%
X130500000Y-70800000D03*
%TD*%
D30*
%TO.P,R10,1*%
%TO.N,GND*%
X117602500Y-95600000D03*
%TO.P,R10,2*%
%TO.N,Net-(U4-BOOT0)*%
X118797500Y-95600000D03*
%TD*%
D11*
%TO.P,C12,1*%
%TO.N,GND*%
X120265000Y-100100000D03*
%TO.P,C12,2*%
%TO.N,+3.3V*%
X121400000Y-100100000D03*
%TD*%
D31*
%TO.P,FID2,*%
%TO.N,*%
X139400000Y-66000000D03*
%TD*%
D20*
%TO.P,R4,1*%
%TO.N,Net-(U1-FB)*%
X131897500Y-77200000D03*
%TO.P,R4,2*%
%TO.N,+VSW*%
X130702500Y-77200000D03*
%TD*%
%TO.P,R15,1*%
%TO.N,+3.3V*%
X135800000Y-92100000D03*
%TO.P,R15,2*%
%TO.N,/Controller/BOOT1*%
X134605000Y-92100000D03*
%TD*%
D32*
%TO.P,Y1,1,1*%
%TO.N,Net-(U4-PH0)*%
X125450000Y-102650000D03*
%TO.P,Y1,2,2*%
%TO.N,GND*%
X125450000Y-105550000D03*
%TO.P,Y1,3,3*%
%TO.N,Net-(C17-Pad1)*%
X127750000Y-105550000D03*
%TO.P,Y1,4,4*%
%TO.N,GND*%
X127750000Y-102650000D03*
%TD*%
D22*
%TO.P,D5,1,K*%
%TO.N,GND*%
X132100000Y-83250000D03*
%TO.P,D5,2,A*%
%TO.N,Net-(D5-A)*%
X132100000Y-85000000D03*
%TD*%
D33*
%TO.P,H1,1,1*%
%TO.N,GND*%
X119012000Y-110500000D03*
D34*
X119012000Y-110500000D03*
%TD*%
D15*
%TO.P,C18,1*%
%TO.N,GND*%
X135800000Y-90800000D03*
%TO.P,C18,2*%
%TO.N,Net-(U4-VCAP1)*%
X134665000Y-90800000D03*
%TD*%
D35*
%TO.P,J2,1,VTref*%
%TO.N,+3.3V*%
X113700000Y-104470000D03*
%TO.P,J2,2,SWDIO/TMS*%
%TO.N,/Controller/JTMS*%
X113700000Y-103200000D03*
%TO.P,J2,3,GND*%
%TO.N,GND*%
X113700000Y-101930000D03*
%TO.P,J2,4,SWCLK/TCK*%
%TO.N,/Controller/JTCK*%
X113700000Y-100660000D03*
%TO.P,J2,5,GND*%
%TO.N,GND*%
X113700000Y-99390000D03*
%TO.P,J2,6,SWO/TDO*%
%TO.N,/Controller/JTDO*%
X112430000Y-99390000D03*
%TO.P,J2,7,KEY*%
%TO.N,unconnected-(J2-KEY-Pad7)*%
X112430000Y-100660000D03*
%TO.P,J2,8,NC/TDI*%
%TO.N,/Controller/JTDI*%
X112430000Y-101930000D03*
%TO.P,J2,9,GNDDetect*%
%TO.N,GND*%
X112430000Y-103200000D03*
%TO.P,J2,10,~{RESET}*%
%TO.N,Net-(J2-~{RESET})*%
X112430000Y-104470000D03*
%TD*%
D36*
%TO.P,C16,1*%
%TO.N,Net-(U4-PH0)*%
X123300000Y-103432500D03*
%TO.P,C16,2*%
%TO.N,GND*%
X123300000Y-104567500D03*
%TD*%
D18*
%TO.P,C4,1*%
%TO.N,GND*%
X138337500Y-85800000D03*
%TO.P,C4,2*%
%TO.N,VBUS*%
X140062500Y-85800000D03*
%TD*%
D37*
%TO.P,C3,1*%
%TO.N,GND*%
X132137500Y-80500000D03*
%TO.P,C3,2*%
%TO.N,+VSW*%
X130062500Y-80500000D03*
%TD*%
D23*
%TO.P,U5,1,DO*%
%TO.N,/Controller/SPI2_MISO*%
X137125000Y-105150000D03*
%TO.P,U5,2,Vss*%
%TO.N,GND*%
X137125000Y-106100000D03*
%TO.P,U5,3,DI*%
%TO.N,/Controller/SPI2_MOSI*%
X137125000Y-107050000D03*
%TO.P,U5,4,CLK*%
%TO.N,/Controller/SPI2_SCK*%
X139400000Y-107050000D03*
%TO.P,U5,5,CS*%
%TO.N,/Controller/~{SPI2NSS}*%
X139400000Y-106100000D03*
%TO.P,U5,6,Vcc*%
%TO.N,+3.3V*%
X139400000Y-105150000D03*
%TD*%
D30*
%TO.P,R8,1*%
%TO.N,+3.3V*%
X110002500Y-95300000D03*
%TO.P,R8,2*%
%TO.N,Net-(J2-~{RESET})*%
X111197500Y-95300000D03*
%TD*%
D31*
%TO.P,FID1,*%
%TO.N,*%
X109900000Y-111500000D03*
%TD*%
D20*
%TO.P,R6,1*%
%TO.N,Net-(U2-VOUT)*%
X140500000Y-94900000D03*
%TO.P,R6,2*%
%TO.N,+3.3V*%
X139305000Y-94900000D03*
%TD*%
D33*
%TO.P,H2,1,1*%
%TO.N,GND*%
X130188000Y-110500000D03*
D34*
X130188000Y-110500000D03*
%TD*%
D16*
%TO.P,D7,1,K*%
%TO.N,GND*%
X140375000Y-97000000D03*
%TO.P,D7,2,A*%
%TO.N,Net-(D7-A)*%
X138625000Y-97000000D03*
%TD*%
D11*
%TO.P,C2,1*%
%TO.N,+VSW*%
X130665000Y-78800000D03*
%TO.P,C2,2*%
%TO.N,Net-(U1-FB)*%
X131800000Y-78800000D03*
%TD*%
D20*
%TO.P,R7,1*%
%TO.N,VBUS*%
X139300000Y-83200000D03*
%TO.P,R7,2*%
%TO.N,Net-(U2-ON{slash}~{OFF})*%
X138105000Y-83200000D03*
%TD*%
D11*
%TO.P,C6,1*%
%TO.N,GND*%
X137365000Y-92100000D03*
%TO.P,C6,2*%
%TO.N,Net-(U2-BP)*%
X138500000Y-92100000D03*
%TD*%
D38*
%TO.P,J1,1,VBUS*%
%TO.N,VBUS*%
X125300000Y-67800000D03*
%TO.P,J1,2,D-*%
%TO.N,/Controller/USB-*%
X124650000Y-67800000D03*
%TO.P,J1,3,D+*%
%TO.N,/Controller/USB+*%
X124000000Y-67800000D03*
%TO.P,J1,4,ID*%
%TO.N,unconnected-(J1-ID-Pad4)*%
X123350000Y-67800000D03*
%TO.P,J1,5,GND*%
%TO.N,GND*%
X122700000Y-67800000D03*
D39*
%TO.P,J1,6,Shield*%
X127300000Y-65125000D03*
D40*
X127200000Y-67575000D03*
D41*
X125200000Y-65125000D03*
X122800000Y-65125000D03*
D40*
X120800000Y-67575000D03*
D39*
X120700000Y-65125000D03*
%TD*%
D19*
%TO.P,SW1,1,1*%
%TO.N,Net-(J2-~{RESET})*%
X116575000Y-88500000D03*
%TO.P,SW1,2,2*%
%TO.N,GND*%
X108825000Y-88500000D03*
%TD*%
D42*
%TO.N,GND*%
X112500000Y-96100000D03*
X108825000Y-89606500D03*
X138866375Y-89370474D03*
X124016000Y-105284000D03*
X111400000Y-103400000D03*
X120915150Y-102284850D03*
X133000000Y-106100000D03*
X131340000Y-90885300D03*
X130900000Y-96900000D03*
X117785500Y-77993900D03*
X132200000Y-72500000D03*
X132300000Y-75400000D03*
X122828000Y-96094900D03*
X115400000Y-98000000D03*
X135789201Y-89095044D03*
X132101200Y-81887900D03*
X128774000Y-100752000D03*
X117785500Y-82868100D03*
X139065000Y-102689900D03*
X124251000Y-89550000D03*
%TO.N,+VSW*%
X129693300Y-78567100D03*
X116740300Y-75214700D03*
%TO.N,VBUS*%
X126550700Y-69799200D03*
%TO.N,+3.3V*%
X140200000Y-101131800D03*
X123400000Y-91200000D03*
X138482900Y-95586000D03*
X136483379Y-91590663D03*
X123100000Y-97600000D03*
X136533800Y-94394000D03*
X114821300Y-103250200D03*
X134901623Y-89890065D03*
X130500000Y-94900000D03*
X121400000Y-99071500D03*
X110002500Y-90066900D03*
%TO.N,Net-(U4-VDDA)*%
X129294000Y-98284700D03*
%TO.N,Net-(J2-~{RESET})*%
X125983900Y-98145500D03*
X116045300Y-92260100D03*
%TO.N,Net-(C17-Pad1)*%
X128890000Y-104250000D03*
%TO.N,/Controller/USB+*%
X123816700Y-71531100D03*
%TO.N,/Controller/USB-*%
X124809200Y-73470700D03*
%TO.N,Net-(D3-A)*%
X137763300Y-98847900D03*
%TO.N,Net-(D4-A)*%
X133973200Y-86147300D03*
%TO.N,Net-(D5-A)*%
X132100000Y-86135300D03*
%TO.N,Net-(D6-A)*%
X130200000Y-86127900D03*
%TO.N,Net-(D7-A)*%
X137764000Y-94413300D03*
%TO.N,/Controller/JTMS*%
X118026450Y-100649378D03*
X114393200Y-90498700D03*
X123099992Y-86000000D03*
X117276700Y-87139700D03*
%TO.N,/Controller/JTDI*%
X120193300Y-89512800D03*
X111579629Y-101690000D03*
%TO.N,/Controller/JTDO*%
X116400000Y-93800000D03*
X118813756Y-93286244D03*
X116400000Y-96600000D03*
X122700000Y-93300000D03*
%TO.N,/Controller/JTCK*%
X121350000Y-89347900D03*
X117394200Y-98907000D03*
%TO.N,S2U*%
X115232100Y-82179900D03*
X127436300Y-96089700D03*
X112200000Y-80400000D03*
%TO.N,S1U*%
X112784923Y-82194077D03*
X124519500Y-97915600D03*
X117664508Y-92650629D03*
%TO.N,Aux0*%
X128800000Y-81100000D03*
%TO.N,Aux3*%
X114667900Y-72438400D03*
%TO.N,Aux2*%
X119600000Y-79600000D03*
%TO.N,S2D*%
X121962100Y-83995800D03*
X127119100Y-93375100D03*
X122856100Y-70200000D03*
%TO.N,Aux1*%
X127682800Y-74804400D03*
%TO.N,S2U_OUT*%
X122058800Y-72586100D03*
X109872400Y-70879800D03*
X122058800Y-69371800D03*
X109864500Y-68828400D03*
%TO.N,S1U_OUT*%
X118375600Y-72935400D03*
X113200000Y-80300000D03*
%TO.N,S1D*%
X125100000Y-92500000D03*
X112978100Y-83791300D03*
X114423300Y-85326700D03*
X109495400Y-67277300D03*
%TO.N,HVEnable*%
X122561535Y-78152535D03*
X136512200Y-76442000D03*
%TO.N,Net-(U4-PA0)*%
X129775000Y-101185700D03*
%TO.N,Net-(U4-PH1)*%
X125800000Y-100900000D03*
%TO.N,Net-(U4-PA8)*%
X126637386Y-86141799D03*
%TO.N,Net-(U4-PA9)*%
X126075200Y-84857200D03*
%TO.N,Net-(U4-PA10)*%
X126662600Y-89553200D03*
X129089200Y-85266600D03*
X128677300Y-83118500D03*
%TO.N,/Controller/BOOT1*%
X134605000Y-94046700D03*
%TO.N,Net-(U4-PB0)*%
X135296700Y-94787300D03*
%TO.N,/Controller/~{SPI2NSS}*%
X118800000Y-98800000D03*
X119654100Y-96894300D03*
%TO.N,/Controller/SPI2_SCK*%
X131308500Y-92769300D03*
X138211800Y-100961400D03*
%TO.N,/Controller/SPI2_MOSI*%
X131818200Y-87653000D03*
X137125000Y-107969400D03*
%TO.N,/Controller/SPI2_MISO*%
X131393800Y-89304500D03*
X127600000Y-91600000D03*
%TD*%
D43*
%TO.N,Net-(U1-VIN)*%
X136237500Y-73764200D02*
X136237500Y-75450000D01*
D44*
X138900000Y-71837500D02*
X138900000Y-70697500D01*
X138300000Y-71837500D02*
X137737500Y-71837500D01*
X137737500Y-71837500D02*
X136800000Y-70900000D01*
D43*
X136800000Y-73201700D02*
X136237500Y-73764200D01*
X136237500Y-75450000D02*
X137350000Y-75450000D01*
D44*
X138900000Y-70697500D02*
X139400000Y-70197500D01*
X138900000Y-71837500D02*
X138300000Y-71837500D01*
D43*
X136800000Y-70900000D02*
X136800000Y-73201700D01*
X137350000Y-75450000D02*
X138100000Y-76200000D01*
%TO.N,GND*%
X135110800Y-78100800D02*
X135497500Y-78487500D01*
X139100000Y-89136849D02*
X138866375Y-89370474D01*
X114221800Y-94415700D02*
X113237500Y-95400000D01*
D45*
X131100000Y-97100000D02*
X130900000Y-96900000D01*
D43*
X139100000Y-89024999D02*
X138624999Y-89500000D01*
X139100000Y-80400000D02*
X139000000Y-80500000D01*
D45*
X122828000Y-96467400D02*
X122828000Y-96094900D01*
D43*
X123791000Y-105059000D02*
X123689300Y-105059000D01*
D45*
X132700000Y-97100000D02*
X131100000Y-97100000D01*
D43*
X135497500Y-82751600D02*
X134999100Y-83250000D01*
X120800000Y-66730100D02*
X120800000Y-66476700D01*
X117602500Y-95600000D02*
X116814070Y-95600000D01*
D46*
X124282000Y-105550000D02*
X124016000Y-105284000D01*
D45*
X129800000Y-104232000D02*
X129800000Y-103500000D01*
D43*
X133962500Y-76400000D02*
X133300001Y-76400000D01*
D46*
X126750000Y-104100000D02*
X127750000Y-103100000D01*
D43*
X134532800Y-76400000D02*
X135110800Y-76978000D01*
D45*
X128950000Y-102650000D02*
X128456500Y-102650000D01*
D43*
X132800001Y-75900000D02*
X132800000Y-75900000D01*
X134999100Y-83250000D02*
X134999100Y-88400900D01*
D46*
X126450000Y-104100000D02*
X126750000Y-104100000D01*
D45*
X136035974Y-89341817D02*
X135789201Y-89095044D01*
D43*
X108825000Y-88500000D02*
X108825000Y-89606500D01*
X133962500Y-76400000D02*
X134532800Y-76400000D01*
X132100000Y-83250000D02*
X132100000Y-81889100D01*
X132400000Y-106100000D02*
X133000000Y-106100000D01*
D45*
X128775000Y-100750000D02*
X128774000Y-100752000D01*
D43*
X132800000Y-75900000D02*
X132300000Y-75400000D01*
D45*
X134700000Y-88700000D02*
X135394157Y-88700000D01*
D43*
X128456500Y-101069500D02*
X128456500Y-102650000D01*
D45*
X131625000Y-90600000D02*
X131340000Y-90885300D01*
D43*
X137365000Y-92100000D02*
X137365000Y-92965000D01*
X137125000Y-106100000D02*
X132400000Y-106100000D01*
X132100000Y-83250000D02*
X134000000Y-83250000D01*
X130200000Y-83250000D02*
X132100000Y-83250000D01*
X137400000Y-89500000D02*
X136194157Y-89500000D01*
X120800000Y-67575000D02*
X120800000Y-66730100D01*
X138624999Y-89500000D02*
X137400000Y-89500000D01*
D47*
X115400000Y-98050061D02*
X115400000Y-98000000D01*
D46*
X123791000Y-105059000D02*
X123300000Y-104568000D01*
D43*
X139100000Y-88362500D02*
X139100000Y-89024999D01*
X128774000Y-100752000D02*
X128456500Y-101069500D01*
X137365000Y-92965000D02*
X137900000Y-93500000D01*
X120265000Y-101400000D02*
X120265000Y-100100000D01*
X132137500Y-80500000D02*
X132137500Y-81851600D01*
D45*
X128775000Y-99525000D02*
X128775000Y-100750000D01*
D43*
X123689300Y-105059000D02*
X120915150Y-102284850D01*
D46*
X136035974Y-89341817D02*
X136035974Y-90564026D01*
D45*
X132700000Y-90600000D02*
X131625000Y-90600000D01*
D43*
X139000000Y-80500000D02*
X135497500Y-80500000D01*
X139065000Y-101010000D02*
X139065000Y-102689900D01*
D47*
X113700000Y-99390000D02*
X114060061Y-99390000D01*
D43*
X133300001Y-76400000D02*
X132800001Y-75900000D01*
X117602500Y-96100500D02*
X117602500Y-95600000D01*
X120265000Y-98763000D02*
X117602500Y-96100500D01*
X136194157Y-89500000D02*
X135789201Y-89095044D01*
D47*
X113237500Y-95400000D02*
X112537500Y-96100000D01*
D43*
X120700000Y-65125000D02*
X120700000Y-66376700D01*
X122699400Y-65225600D02*
X122699400Y-66730100D01*
X137365000Y-92100000D02*
X137365000Y-89535000D01*
X134999100Y-83250000D02*
X134000000Y-83250000D01*
X135497500Y-78487500D02*
X135497500Y-78900000D01*
D46*
X125450000Y-105100000D02*
X126450000Y-104100000D01*
D43*
X112430000Y-103200000D02*
X113700000Y-101930000D01*
D47*
X114060061Y-99390000D02*
X115400000Y-98050061D01*
D43*
X139065000Y-103800000D02*
X139065000Y-102689900D01*
X117785500Y-77993900D02*
X117785500Y-82868100D01*
X112700000Y-74570000D02*
X112700000Y-75840000D01*
D48*
X122699400Y-66730100D02*
X122699400Y-67799400D01*
D43*
X135497500Y-78900000D02*
X135497500Y-82751600D01*
D45*
X129800000Y-103500000D02*
X128950000Y-102650000D01*
D43*
X125200000Y-65125000D02*
X122800000Y-65125000D01*
D46*
X125450000Y-105550000D02*
X124282000Y-105550000D01*
D45*
X135394157Y-88700000D02*
X135789201Y-89095044D01*
D43*
X120265000Y-100100000D02*
X120265000Y-98763000D01*
D45*
X123775000Y-88175000D02*
X123775000Y-89074100D01*
D47*
X112537500Y-96100000D02*
X112500000Y-96100000D01*
D45*
X121350000Y-97100000D02*
X122196000Y-97100000D01*
D43*
X127200000Y-65125000D02*
X125200000Y-65125000D01*
D45*
X122196000Y-97100000D02*
X122828000Y-96467400D01*
D49*
X119012000Y-110500000D02*
X130188000Y-110500000D01*
D43*
X139100000Y-86562500D02*
X139100000Y-88362500D01*
X137365000Y-89535000D02*
X137400000Y-89500000D01*
D46*
X124016000Y-105284000D02*
X123791000Y-105059000D01*
D43*
X112430000Y-103200000D02*
X111600000Y-103200000D01*
X138337500Y-85800000D02*
X139100000Y-86562500D01*
X140375000Y-97000000D02*
X140375000Y-99700000D01*
X139100000Y-73762500D02*
X139100000Y-80400000D01*
X132200000Y-75299999D02*
X132200000Y-72500000D01*
X120265000Y-101634700D02*
X120915150Y-102284850D01*
X140375000Y-99700000D02*
X139065000Y-101010000D01*
X120265000Y-101400000D02*
X120265000Y-101634700D01*
X132400000Y-106100000D02*
X129800000Y-103500000D01*
X122800000Y-65125000D02*
X120700000Y-65125000D01*
X127200000Y-65125000D02*
X127200000Y-67575000D01*
X139100000Y-88362500D02*
X139100000Y-89136849D01*
X116814070Y-95600000D02*
X115629770Y-94415700D01*
X132100000Y-81889100D02*
X132101200Y-81887900D01*
X132137500Y-81851600D02*
X132101200Y-81887900D01*
X111600000Y-103200000D02*
X111400000Y-103400000D01*
X132300000Y-75400000D02*
X132200000Y-75299999D01*
X120762500Y-67612500D02*
X120762500Y-70700000D01*
D46*
X136035974Y-90564026D02*
X135799999Y-90800001D01*
D43*
X135110800Y-76978000D02*
X135110800Y-78100800D01*
D45*
X123775000Y-89074100D02*
X124251000Y-89550000D01*
D43*
X134999100Y-88400900D02*
X134700000Y-88700000D01*
X115629770Y-94415700D02*
X114221800Y-94415700D01*
X120800000Y-66476700D02*
X120700000Y-66376700D01*
%TO.N,+VSW*%
X130665000Y-77237500D02*
X130665000Y-78800000D01*
X117637500Y-72265500D02*
X115714300Y-74188700D01*
X130295600Y-79169400D02*
X129693300Y-78567100D01*
X111430000Y-76315800D02*
X111430000Y-75840000D01*
X111430000Y-76791700D02*
X113111300Y-76791700D01*
X130062500Y-79402500D02*
X130062500Y-80500000D01*
X116740300Y-75214700D02*
X115714300Y-74188700D01*
D44*
X129100000Y-74800000D02*
X128000000Y-73700000D01*
D43*
X113111300Y-76791700D02*
X115714300Y-74188700D01*
X130295600Y-79169400D02*
X130062500Y-79402500D01*
X111430000Y-76315800D02*
X111430000Y-76791700D01*
X117637500Y-70700000D02*
X117637500Y-72265500D01*
X111430000Y-75840000D02*
X111430000Y-74570000D01*
X130702500Y-77200000D02*
X130500000Y-76997500D01*
X130500000Y-76997500D02*
X130500000Y-74800000D01*
X130665000Y-78800000D02*
X130295600Y-79169400D01*
D44*
X128000000Y-73700000D02*
X128000000Y-73397500D01*
X130500000Y-74800000D02*
X129100000Y-74800000D01*
D50*
%TO.N,Net-(U1-FB)*%
X131800000Y-77297500D02*
X131800000Y-78800000D01*
X132047500Y-77350000D02*
X133962500Y-77350000D01*
X134302500Y-78900000D02*
X133962500Y-78560000D01*
X133962500Y-78560000D02*
X133962500Y-77350000D01*
D44*
%TO.N,VBUS*%
X140300000Y-82200000D02*
X139300000Y-83200000D01*
X126550700Y-69799200D02*
X127900800Y-69799200D01*
X128000000Y-72202500D02*
X128000000Y-71248500D01*
D43*
X125374500Y-68623000D02*
X125374500Y-67874500D01*
X139300000Y-83200000D02*
X140062500Y-83962500D01*
D44*
X140300000Y-74600000D02*
X140300000Y-82200000D01*
X128000000Y-71248500D02*
X126550700Y-69799200D01*
X140600000Y-69400000D02*
X140200000Y-69000000D01*
X140600000Y-74300000D02*
X140600000Y-69400000D01*
D48*
X125374500Y-67874500D02*
X125300000Y-67800000D01*
D43*
X126550700Y-69799200D02*
X125374500Y-68623000D01*
D44*
X137000000Y-66800000D02*
X139202500Y-69002500D01*
D43*
X140050000Y-85812500D02*
X140050000Y-88362500D01*
D46*
X139400000Y-69002500D02*
X139202500Y-69002500D01*
D44*
X130900000Y-66800000D02*
X137000000Y-66800000D01*
X140197500Y-69002500D02*
X139400000Y-69002500D01*
X140200000Y-69000000D02*
X140197500Y-69002500D01*
D43*
X140062500Y-83962500D02*
X140062500Y-85800000D01*
D44*
X127900800Y-69799200D02*
X130900000Y-66800000D01*
X140600000Y-74300000D02*
X140300000Y-74600000D01*
D43*
%TO.N,Net-(U2-VOUT)*%
X139128900Y-93406100D02*
X140500000Y-94777200D01*
X140500000Y-94777200D02*
X140500000Y-94900000D01*
X140050000Y-90637500D02*
X140050000Y-92485000D01*
X140050000Y-92485000D02*
X139128900Y-93406100D01*
X139035000Y-93500000D02*
X139128900Y-93406100D01*
D50*
%TO.N,Net-(U2-BP)*%
X138150000Y-91750000D02*
X138150000Y-90637500D01*
X138500000Y-92100000D02*
X138150000Y-91750000D01*
D45*
%TO.N,+3.3V*%
X130400000Y-90100000D02*
X130000000Y-90500000D01*
D43*
X139168900Y-94900000D02*
X138482900Y-95586000D01*
X114821300Y-103348700D02*
X114821300Y-103250200D01*
D44*
X121400000Y-101400000D02*
X121400000Y-100100000D01*
X123400000Y-91200000D02*
X124100000Y-90500000D01*
D45*
X123275000Y-99525000D02*
X123275000Y-97775000D01*
D43*
X140200000Y-103800000D02*
X140200000Y-101131800D01*
D45*
X133565000Y-89865000D02*
X133590065Y-89890065D01*
X123685000Y-97014800D02*
X123685000Y-91485200D01*
D43*
X139305000Y-94900000D02*
X139168900Y-94900000D01*
D46*
X130500000Y-91000000D02*
X130000000Y-90500000D01*
D43*
X108825000Y-82100000D02*
X108825000Y-83051700D01*
X135800000Y-93694400D02*
X136499600Y-94394000D01*
D45*
X130500000Y-95245600D02*
X130500000Y-94900000D01*
X132900000Y-89900000D02*
X132700000Y-90100000D01*
D44*
X121400000Y-100100000D02*
X121400000Y-99071500D01*
D46*
X123225000Y-99475000D02*
X123225000Y-99525000D01*
X130500000Y-94900000D02*
X130500000Y-91000000D01*
D43*
X110002500Y-90066900D02*
X110002500Y-84229200D01*
D46*
X121400000Y-99071500D02*
X122821500Y-99071500D01*
D44*
X124100000Y-90500000D02*
X130000000Y-90500000D01*
D45*
X121350000Y-97600000D02*
X123100000Y-97600000D01*
X133565000Y-88700000D02*
X133565000Y-89865000D01*
D46*
X122821500Y-99071500D02*
X123225000Y-99475000D01*
D45*
X123275000Y-97775000D02*
X123100000Y-97600000D01*
D46*
X133600000Y-89900000D02*
X132900000Y-89900000D01*
X133590065Y-89890065D02*
X134901623Y-89890065D01*
D45*
X132700000Y-96600000D02*
X131854000Y-96600000D01*
D43*
X113700000Y-104470000D02*
X114821300Y-103348700D01*
X139400000Y-105150000D02*
X140200000Y-104350000D01*
D45*
X123100000Y-97600000D02*
X123685000Y-97014800D01*
X123275000Y-91075000D02*
X123400000Y-91200000D01*
X136483379Y-91590663D02*
X136309337Y-91590663D01*
D43*
X135800000Y-92100000D02*
X135800000Y-93694400D01*
D45*
X136309337Y-91590663D02*
X135800000Y-92100000D01*
D43*
X140200000Y-104350000D02*
X140200000Y-103800000D01*
D45*
X123275000Y-88175000D02*
X123275000Y-91075000D01*
D43*
X110002500Y-90066900D02*
X110002500Y-95300000D01*
D45*
X131854000Y-96600000D02*
X130500000Y-95245600D01*
X123685000Y-91485200D02*
X123400000Y-91200000D01*
D43*
X110002500Y-84229200D02*
X108825000Y-83051700D01*
D45*
X133565000Y-89865000D02*
X133600000Y-89900000D01*
X132700000Y-90100000D02*
X130400000Y-90100000D01*
D43*
X136499600Y-94394000D02*
X136533800Y-94394000D01*
D44*
X121400000Y-99071500D02*
X121400000Y-97750000D01*
D46*
X121400000Y-97700000D02*
X121350000Y-97650000D01*
D45*
%TO.N,Net-(U4-VDDA)*%
X129275000Y-99525000D02*
X129275000Y-98304100D01*
X129275000Y-98304100D02*
X129294000Y-98284700D01*
D50*
%TO.N,Net-(J2-~{RESET})*%
X111045847Y-104255000D02*
X112215000Y-104255000D01*
X113413750Y-96948750D02*
X110200000Y-96948750D01*
X116575000Y-88500000D02*
X116575000Y-90753800D01*
X115557000Y-91771800D02*
X116045300Y-92260100D01*
X110200000Y-96948750D02*
X110175625Y-96924375D01*
X111708671Y-95300000D02*
X115236871Y-91771800D01*
X126275000Y-98436600D02*
X125983900Y-98145500D01*
X114962500Y-95400000D02*
X113413750Y-96948750D01*
X111197500Y-95300000D02*
X111708671Y-95300000D01*
X108737500Y-98362500D02*
X108737500Y-101946653D01*
X116575000Y-90753800D02*
X115557000Y-91771800D01*
X108737500Y-101946653D02*
X111045847Y-104255000D01*
X126275000Y-99525000D02*
X126275000Y-98436600D01*
X111197500Y-95902500D02*
X108737500Y-98362500D01*
X112215000Y-104255000D02*
X112430000Y-104470000D01*
X111197500Y-95300000D02*
X111197500Y-95902500D01*
X115236871Y-91771800D02*
X115557000Y-91771800D01*
D46*
%TO.N,Net-(U4-PH0)*%
X124668000Y-103432000D02*
X124846700Y-103253300D01*
D50*
X125275000Y-99525000D02*
X125275000Y-100368000D01*
X125018000Y-100625000D02*
X125018000Y-102218000D01*
D46*
X123300000Y-103432000D02*
X124668000Y-103432000D01*
D50*
X125275000Y-100368000D02*
X125018000Y-100625000D01*
D45*
%TO.N,Net-(C17-Pad1)*%
X129800000Y-105368000D02*
X129466300Y-105034300D01*
D50*
X128890000Y-104250000D02*
X128890000Y-104410000D01*
D45*
X128890000Y-104410000D02*
X128890000Y-104250000D01*
D50*
X129466800Y-105034300D02*
X129800000Y-105367500D01*
X128890000Y-104410000D02*
X127750000Y-105550000D01*
D45*
X128890000Y-104458000D02*
X128890000Y-104410000D01*
X129466300Y-105034300D02*
X128890000Y-104458000D01*
D50*
X129466300Y-105034300D02*
X129466800Y-105034300D01*
%TO.N,Net-(U4-VCAP1)*%
X134665000Y-90800000D02*
X134365000Y-91100000D01*
X134365000Y-91100000D02*
X132700000Y-91100000D01*
D49*
%TO.N,Net-(D1-A)*%
X133200000Y-70300000D02*
X133800000Y-70900000D01*
D44*
X133800000Y-70900000D02*
X133800000Y-73076700D01*
X133800000Y-73076700D02*
X133962500Y-73239200D01*
X133962500Y-73239200D02*
X133962500Y-75450000D01*
D49*
X131000000Y-70300000D02*
X133200000Y-70300000D01*
D50*
%TO.N,/Controller/USB+*%
X124052300Y-71766700D02*
X123816700Y-71531100D01*
X124100000Y-71766700D02*
X124052300Y-71766700D01*
D47*
X124100000Y-78318200D02*
X124800000Y-79018200D01*
X124800000Y-79018200D02*
X124800000Y-86987499D01*
X124775000Y-87012499D02*
X124775000Y-88175000D01*
X124800000Y-86987499D02*
X124775000Y-87012499D01*
X124100000Y-68912501D02*
X124100000Y-78318200D01*
X124000000Y-68812501D02*
X124100000Y-68912501D01*
X124000000Y-67800000D02*
X124000000Y-68812501D01*
%TO.N,/Controller/USB-*%
X125275000Y-87012499D02*
X125275000Y-88175000D01*
X124650000Y-68812501D02*
X124550000Y-68912501D01*
X124550000Y-78131800D02*
X125250000Y-78831800D01*
X124650000Y-67800000D02*
X124650000Y-68812501D01*
X125250000Y-78831800D02*
X125250000Y-86987499D01*
D50*
X124550000Y-73762700D02*
X124809200Y-73503500D01*
D47*
X125250000Y-86987499D02*
X125275000Y-87012499D01*
X124550000Y-68912501D02*
X124550000Y-78131800D01*
D50*
X124809200Y-73503500D02*
X124809200Y-73470700D01*
%TO.N,Net-(D3-A)*%
X137772900Y-98847900D02*
X137763300Y-98847900D01*
X138625000Y-99700000D02*
X137772900Y-98847900D01*
%TO.N,Net-(D4-A)*%
X134000000Y-86120500D02*
X133973200Y-86147300D01*
X134000000Y-85000000D02*
X134000000Y-86120500D01*
%TO.N,Net-(D5-A)*%
X132100000Y-85000000D02*
X132100000Y-86135300D01*
%TO.N,Net-(D6-A)*%
X130200000Y-85000000D02*
X130200000Y-86127900D01*
%TO.N,Net-(D7-A)*%
X137686800Y-94490500D02*
X137686800Y-96061800D01*
X137764000Y-94413300D02*
X137686800Y-94490500D01*
X137686800Y-96061800D02*
X138625000Y-97000000D01*
%TO.N,/Controller/JTMS*%
X114462600Y-102437400D02*
X116238428Y-102437400D01*
X117276700Y-87139700D02*
X116325000Y-87139700D01*
X116325000Y-87139700D02*
X114393200Y-89071500D01*
X113700000Y-103200000D02*
X114462600Y-102437400D01*
X114393200Y-89071500D02*
X114393200Y-90498700D01*
X124275000Y-87175008D02*
X123099992Y-86000000D01*
X124275000Y-88175000D02*
X124275000Y-87175008D01*
X116238428Y-102437400D02*
X118026450Y-100649378D01*
%TO.N,/Controller/JTDI*%
X120193300Y-90319100D02*
X120193300Y-89512800D01*
X111819629Y-101930000D02*
X111579629Y-101690000D01*
X120474200Y-90600000D02*
X120193300Y-90319100D01*
X112430000Y-101930000D02*
X111819629Y-101930000D01*
X121350000Y-90600000D02*
X120474200Y-90600000D01*
%TO.N,/Controller/JTDO*%
X122700000Y-93300000D02*
X122500000Y-93100000D01*
X112430000Y-99390000D02*
X112923300Y-98896700D01*
X122500000Y-93100000D02*
X121350000Y-93100000D01*
X118300000Y-93800000D02*
X118813756Y-93286244D01*
X112923300Y-98896700D02*
X112923300Y-98041253D01*
X116400000Y-93800000D02*
X118300000Y-93800000D01*
X112923300Y-98041253D02*
X114364553Y-96600000D01*
X114364553Y-96600000D02*
X116400000Y-96600000D01*
%TO.N,/Controller/JTCK*%
X116054020Y-101807200D02*
X114847200Y-101807200D01*
X117394200Y-98907000D02*
X117171450Y-99129750D01*
X121350000Y-90100000D02*
X121350000Y-89347900D01*
X114847200Y-101807200D02*
X113700000Y-100660000D01*
X117171450Y-100689770D02*
X116054020Y-101807200D01*
X117171450Y-99129750D02*
X117171450Y-100689770D01*
%TO.N,S2U*%
X115232100Y-82179900D02*
X113979900Y-82179900D01*
X127775000Y-96428400D02*
X127775000Y-99525000D01*
X127436300Y-96089700D02*
X127775000Y-96428400D01*
X113979900Y-82179900D02*
X112200000Y-80400000D01*
%TO.N,S1U*%
X124519500Y-97280500D02*
X124519500Y-97915600D01*
X110603300Y-67026700D02*
X110603300Y-80012454D01*
X118005000Y-92310137D02*
X118005000Y-86810400D01*
X111430000Y-66950000D02*
X110680000Y-66950000D01*
X118005000Y-86810400D02*
X113388677Y-82194077D01*
X110603300Y-80012454D02*
X112784923Y-82194077D01*
X110680000Y-66950000D02*
X110603300Y-67026700D01*
X126775000Y-97675000D02*
X125450000Y-96350000D01*
X126775000Y-99525000D02*
X126775000Y-97675000D01*
X117664508Y-92650629D02*
X118005000Y-92310137D01*
X113388677Y-82194077D02*
X112784923Y-82194077D01*
X125450000Y-96350000D02*
X124519500Y-97280500D01*
D47*
%TO.N,Aux0*%
X127775000Y-88175000D02*
X127775000Y-82125000D01*
X127775000Y-82125000D02*
X128800000Y-81100000D01*
D50*
%TO.N,Aux3*%
X120055100Y-91600000D02*
X118962400Y-90507300D01*
X119119500Y-77154800D02*
X119119500Y-70280100D01*
X118745000Y-79954153D02*
X118745000Y-77529300D01*
X121350000Y-91600000D02*
X120055100Y-91600000D01*
X119119500Y-70280100D02*
X118262300Y-69422900D01*
X118962400Y-90507300D02*
X118962400Y-80171553D01*
X118962400Y-80171553D02*
X118745000Y-79954153D01*
X117027500Y-69422900D02*
X114667900Y-71782500D01*
X118262300Y-69422900D02*
X117027500Y-69422900D01*
X118745000Y-77529300D02*
X119119500Y-77154800D01*
X114667900Y-71782500D02*
X114667900Y-72438400D01*
%TO.N,Aux2*%
X121350000Y-91100000D02*
X120253700Y-91100000D01*
X119454400Y-79745600D02*
X119600000Y-79600000D01*
X120253700Y-91100000D02*
X119454400Y-90300700D01*
X119454400Y-90300700D02*
X119454400Y-79745600D01*
%TO.N,S2D*%
X122856100Y-72850900D02*
X122856100Y-70200000D01*
X127119100Y-94744800D02*
X127119100Y-93375100D01*
X128275000Y-95900700D02*
X127119100Y-94744800D01*
X128275000Y-99525000D02*
X128275000Y-95900700D01*
X121962100Y-83995800D02*
X121706535Y-83740235D01*
X121706535Y-74000465D02*
X122856100Y-72850900D01*
X121706535Y-83740235D02*
X121706535Y-74000465D01*
%TO.N,Aux1*%
X127682800Y-74804400D02*
X127423000Y-75064200D01*
X127423000Y-86479197D02*
X127275000Y-86627197D01*
X127423000Y-75064200D02*
X127423000Y-86479197D01*
X127275000Y-86627197D02*
X127275000Y-88175000D01*
%TO.N,S2U_OUT*%
X109872400Y-70879800D02*
X109864500Y-70871900D01*
X109864500Y-70871900D02*
X109864500Y-68828400D01*
X122058800Y-69371800D02*
X122058800Y-72586100D01*
%TO.N,S1U_OUT*%
X113920600Y-80222800D02*
X113277200Y-80222800D01*
X113277200Y-80222800D02*
X113200000Y-80300000D01*
X118375600Y-75767800D02*
X113920600Y-80222800D01*
X118375600Y-72935400D02*
X118375600Y-75767800D01*
%TO.N,S1D*%
X109495400Y-67277300D02*
X109129100Y-67643600D01*
X112978100Y-83791300D02*
X114423300Y-85236500D01*
X125100000Y-92500000D02*
X126065700Y-93465700D01*
X114423300Y-85236500D02*
X114423300Y-85326700D01*
X126065700Y-93465700D02*
X126065700Y-96094300D01*
X126065700Y-96094300D02*
X127275000Y-97303600D01*
X127275000Y-97303600D02*
X127275000Y-99525000D01*
X109129100Y-79942300D02*
X112978100Y-83791300D01*
X109129100Y-67643600D02*
X109129100Y-79942300D01*
%TO.N,HVEnable*%
X136237500Y-77350000D02*
X138055000Y-77350000D01*
X121845000Y-85745847D02*
X123000000Y-84590847D01*
X136512200Y-77075300D02*
X136512200Y-76442000D01*
X122545847Y-92328353D02*
X122545847Y-87155000D01*
X121845000Y-86454153D02*
X121845000Y-85745847D01*
X121350000Y-92600000D02*
X122274200Y-92600000D01*
X136237500Y-77350000D02*
X136512200Y-77075300D01*
X122274200Y-92600000D02*
X122545847Y-92328353D01*
X122545847Y-87155000D02*
X121845000Y-86454153D01*
X123000000Y-78591000D02*
X122561535Y-78152535D01*
X123000000Y-84590847D02*
X123000000Y-78591000D01*
%TO.N,Net-(U2-ON{slash}~{OFF})*%
X137457900Y-87670400D02*
X138150000Y-88362500D01*
X137457900Y-83847100D02*
X137457900Y-87670400D01*
X138105000Y-83200000D02*
X137457900Y-83847100D01*
%TO.N,Net-(U4-PA0)*%
X129775000Y-101185700D02*
X129775000Y-99525000D01*
%TO.N,Net-(U4-BOOT0)*%
X119555000Y-94842500D02*
X119555000Y-91825500D01*
X118797500Y-95600000D02*
X119555000Y-94842500D01*
X116575000Y-82926700D02*
X116575000Y-82100000D01*
X119555000Y-91825500D02*
X118458200Y-90728700D01*
X118458200Y-90728700D02*
X118458200Y-84809900D01*
X118797500Y-95600000D02*
X121350000Y-95600000D01*
X118458200Y-84809900D02*
X116575000Y-82926700D01*
%TO.N,Net-(U4-PH1)*%
X125775000Y-100875000D02*
X125800000Y-100900000D01*
X125775000Y-99525000D02*
X125775000Y-100875000D01*
%TO.N,Net-(U4-PA8)*%
X126775000Y-86279413D02*
X126637386Y-86141799D01*
X126775000Y-88175000D02*
X126775000Y-86279413D01*
%TO.N,Net-(U4-PA9)*%
X125782386Y-86495952D02*
X126275000Y-86988566D01*
X126075200Y-84857200D02*
X125782386Y-85150014D01*
X125782386Y-85150014D02*
X125782386Y-86495952D01*
X126275000Y-86988566D02*
X126275000Y-88175000D01*
%TO.N,Net-(U4-PA10)*%
X125775000Y-89030500D02*
X126297700Y-89553200D01*
X129089200Y-83530400D02*
X129089200Y-85266600D01*
X128677300Y-83118500D02*
X129089200Y-83530400D01*
X126297700Y-89553200D02*
X126662600Y-89553200D01*
X125775000Y-88175000D02*
X125775000Y-89030500D01*
%TO.N,/Controller/BOOT1*%
X134605000Y-94046700D02*
X134605000Y-92100000D01*
X134605000Y-92100000D02*
X132700000Y-92100000D01*
%TO.N,Net-(U4-PB0)*%
X133840300Y-94341200D02*
X133840300Y-93374900D01*
X135296700Y-94787300D02*
X134286400Y-94787300D01*
X133565400Y-93100000D02*
X132700000Y-93100000D01*
X134286400Y-94787300D02*
X133840300Y-94341200D01*
X133840300Y-93374900D02*
X133565400Y-93100000D01*
%TO.N,/Controller/~{SPI2NSS}*%
X140420600Y-106610200D02*
X140420600Y-107386000D01*
X139106800Y-108699800D02*
X135337700Y-108699800D01*
X119948400Y-96600000D02*
X119654100Y-96894300D01*
X135337700Y-108699800D02*
X133565300Y-106927400D01*
X118800000Y-101389700D02*
X118800000Y-98800000D01*
X139910400Y-106100000D02*
X140420600Y-106610200D01*
X124337700Y-106927400D02*
X118800000Y-101389700D01*
X140420600Y-107386000D02*
X139106800Y-108699800D01*
X133565300Y-106927400D02*
X124337700Y-106927400D01*
X121350000Y-96600000D02*
X119948400Y-96600000D01*
%TO.N,/Controller/SPI2_SCK*%
X138211800Y-106250300D02*
X138211800Y-100961400D01*
X139011500Y-107050000D02*
X138211800Y-106250300D01*
X131308500Y-92769300D02*
X131308500Y-92073500D01*
X131308500Y-92073500D02*
X131782000Y-91600000D01*
X131782000Y-91600000D02*
X132700000Y-91600000D01*
%TO.N,/Controller/SPI2_MOSI*%
X129275000Y-88175000D02*
X129275000Y-87251300D01*
X129275000Y-87251300D02*
X129490600Y-87035700D01*
X129490600Y-87035700D02*
X131200900Y-87035700D01*
X131200900Y-87035700D02*
X131818200Y-87653000D01*
X137125000Y-107050000D02*
X137125000Y-107969400D01*
%TO.N,/Controller/SPI2_MISO*%
X130445847Y-97855000D02*
X131017800Y-97855000D01*
X129945000Y-97354153D02*
X130445847Y-97855000D01*
X129775000Y-88175000D02*
X129775000Y-89050400D01*
X131017800Y-97855000D02*
X137125000Y-103962200D01*
X128012500Y-92012500D02*
X128012500Y-94849700D01*
X127600000Y-91600000D02*
X128012500Y-92012500D01*
X129945000Y-96782200D02*
X129945000Y-97354153D01*
X129775000Y-89050400D02*
X130029100Y-89304500D01*
X128012500Y-94849700D02*
X129945000Y-96782200D01*
X137125000Y-103962200D02*
X137125000Y-105150000D01*
X130029100Y-89304500D02*
X131393800Y-89304500D01*
%TD*%
%TA.AperFunction,Conductor*%
%TO.N,+3.3V*%
G36*
X129049763Y-89435686D02*
G01*
X129049764Y-89435687D01*
X129162280Y-89450500D01*
X129239147Y-89450500D01*
X129306186Y-89470185D01*
X129326828Y-89486819D01*
X129383327Y-89543318D01*
X129383332Y-89543322D01*
X129574776Y-89734767D01*
X129630368Y-89790359D01*
X129699746Y-89836716D01*
X129732815Y-89858812D01*
X129778969Y-89877929D01*
X129778970Y-89877930D01*
X129778971Y-89877930D01*
X129846648Y-89905963D01*
X129866697Y-89909951D01*
X129900296Y-89916634D01*
X129967492Y-89930001D01*
X129967494Y-89930001D01*
X130096821Y-89930001D01*
X130096841Y-89930000D01*
X130690052Y-89930000D01*
X130757091Y-89949685D01*
X130782200Y-89971026D01*
X130787926Y-89977385D01*
X130792758Y-89981736D01*
X130791197Y-89983469D01*
X130827363Y-90030375D01*
X130833338Y-90099989D01*
X130800728Y-90161782D01*
X130784695Y-90175674D01*
X130734127Y-90212413D01*
X130607466Y-90353085D01*
X130512821Y-90517015D01*
X130512818Y-90517022D01*
X130479226Y-90620409D01*
X130454326Y-90697044D01*
X130434540Y-90885300D01*
X130454326Y-91073556D01*
X130454327Y-91073559D01*
X130512818Y-91253577D01*
X130512821Y-91253584D01*
X130607467Y-91417516D01*
X130734129Y-91558188D01*
X130749698Y-91569500D01*
X130792365Y-91624828D01*
X130798345Y-91694442D01*
X130779916Y-91738709D01*
X130754189Y-91777210D01*
X130754188Y-91777213D01*
X130728094Y-91840211D01*
X130707039Y-91891040D01*
X130707035Y-91891055D01*
X130683000Y-92011889D01*
X130683000Y-92070612D01*
X130663315Y-92137651D01*
X130651150Y-92153584D01*
X130575966Y-92237084D01*
X130481321Y-92401015D01*
X130481318Y-92401022D01*
X130431493Y-92554370D01*
X130422826Y-92581044D01*
X130403040Y-92769300D01*
X130422826Y-92957556D01*
X130422827Y-92957559D01*
X130481318Y-93137577D01*
X130481321Y-93137584D01*
X130575967Y-93301516D01*
X130641920Y-93374764D01*
X130702629Y-93442188D01*
X130855765Y-93553448D01*
X130855770Y-93553451D01*
X131028692Y-93630442D01*
X131028697Y-93630444D01*
X131213854Y-93669800D01*
X131213855Y-93669800D01*
X131310105Y-93669800D01*
X131377144Y-93689485D01*
X131422899Y-93742289D01*
X131433044Y-93777615D01*
X131440374Y-93833293D01*
X131437399Y-93833684D01*
X131437399Y-93866316D01*
X131440374Y-93866708D01*
X131424500Y-93987272D01*
X131424500Y-94212727D01*
X131440374Y-94333292D01*
X131437399Y-94333683D01*
X131437399Y-94366316D01*
X131440374Y-94366708D01*
X131424500Y-94487272D01*
X131424500Y-94712727D01*
X131440374Y-94833292D01*
X131437399Y-94833683D01*
X131437399Y-94866316D01*
X131440374Y-94866708D01*
X131424500Y-94987272D01*
X131424500Y-95212727D01*
X131440374Y-95333292D01*
X131437399Y-95333683D01*
X131437399Y-95366316D01*
X131440374Y-95366708D01*
X131424500Y-95487272D01*
X131424500Y-95712727D01*
X131440374Y-95833292D01*
X131437399Y-95833683D01*
X131437399Y-95866316D01*
X131440374Y-95866708D01*
X131426211Y-95974279D01*
X131397944Y-96038176D01*
X131339619Y-96076646D01*
X131269754Y-96077477D01*
X131252836Y-96071372D01*
X131179807Y-96038857D01*
X131179802Y-96038855D01*
X131034001Y-96007865D01*
X130994646Y-95999500D01*
X130805354Y-95999500D01*
X130772897Y-96006398D01*
X130620197Y-96038855D01*
X130620192Y-96038857D01*
X130447270Y-96115848D01*
X130447266Y-96115851D01*
X130368439Y-96173121D01*
X130302632Y-96196600D01*
X130234579Y-96180774D01*
X130207874Y-96160483D01*
X128674319Y-94626928D01*
X128640834Y-94565605D01*
X128638000Y-94539247D01*
X128638000Y-91950897D01*
X128638000Y-91950894D01*
X128636967Y-91945704D01*
X128636968Y-91945688D01*
X128636965Y-91945689D01*
X128613963Y-91830051D01*
X128613962Y-91830047D01*
X128612753Y-91827128D01*
X128612739Y-91827096D01*
X128596653Y-91788259D01*
X128579333Y-91746444D01*
X128566812Y-91716214D01*
X128530323Y-91661606D01*
X128525519Y-91654417D01*
X128505301Y-91598490D01*
X128485674Y-91411744D01*
X128427179Y-91231716D01*
X128332533Y-91067784D01*
X128205871Y-90927112D01*
X128205870Y-90927111D01*
X128052734Y-90815851D01*
X128052729Y-90815848D01*
X127879807Y-90738857D01*
X127879802Y-90738855D01*
X127734001Y-90707865D01*
X127694646Y-90699500D01*
X127505354Y-90699500D01*
X127472897Y-90706398D01*
X127320197Y-90738855D01*
X127320192Y-90738857D01*
X127147270Y-90815848D01*
X127147265Y-90815851D01*
X126994129Y-90927111D01*
X126867466Y-91067785D01*
X126772821Y-91231715D01*
X126772818Y-91231722D01*
X126714327Y-91411740D01*
X126714326Y-91411744D01*
X126694540Y-91600000D01*
X126714326Y-91788256D01*
X126714327Y-91788259D01*
X126772818Y-91968277D01*
X126772821Y-91968284D01*
X126867467Y-92132216D01*
X126951461Y-92225500D01*
X126994129Y-92272888D01*
X126998958Y-92277236D01*
X126997298Y-92279079D01*
X127033141Y-92325579D01*
X127039108Y-92395193D01*
X127006491Y-92456982D01*
X126945646Y-92491329D01*
X126943363Y-92491836D01*
X126839297Y-92513955D01*
X126839292Y-92513957D01*
X126666370Y-92590948D01*
X126666365Y-92590951D01*
X126513229Y-92702211D01*
X126513228Y-92702212D01*
X126446002Y-92776874D01*
X126386516Y-92813522D01*
X126316659Y-92812191D01*
X126266172Y-92781582D01*
X126038960Y-92554370D01*
X126005475Y-92493047D01*
X126003323Y-92479671D01*
X125985674Y-92311744D01*
X125929107Y-92137651D01*
X125927181Y-92131722D01*
X125927180Y-92131721D01*
X125927179Y-92131716D01*
X125832533Y-91967784D01*
X125705871Y-91827112D01*
X125705849Y-91827096D01*
X125552734Y-91715851D01*
X125552729Y-91715848D01*
X125379807Y-91638857D01*
X125379802Y-91638855D01*
X125234001Y-91607865D01*
X125194646Y-91599500D01*
X125005354Y-91599500D01*
X124972897Y-91606398D01*
X124820197Y-91638855D01*
X124820192Y-91638857D01*
X124647270Y-91715848D01*
X124647265Y-91715851D01*
X124494129Y-91827111D01*
X124367466Y-91967785D01*
X124272821Y-92131715D01*
X124272818Y-92131722D01*
X124214327Y-92311740D01*
X124214326Y-92311744D01*
X124194540Y-92500000D01*
X124214326Y-92688256D01*
X124214327Y-92688259D01*
X124272818Y-92868277D01*
X124272821Y-92868284D01*
X124367467Y-93032216D01*
X124373030Y-93038394D01*
X124494129Y-93172888D01*
X124647265Y-93284148D01*
X124647270Y-93284151D01*
X124820192Y-93361142D01*
X124820197Y-93361144D01*
X125005354Y-93400500D01*
X125064548Y-93400500D01*
X125131587Y-93420185D01*
X125152229Y-93436819D01*
X125403881Y-93688471D01*
X125437366Y-93749794D01*
X125440200Y-93776152D01*
X125440200Y-95612430D01*
X125420515Y-95679469D01*
X125367711Y-95725224D01*
X125340392Y-95734047D01*
X125267553Y-95748535D01*
X125267538Y-95748540D01*
X125153713Y-95795688D01*
X125153709Y-95795690D01*
X125112680Y-95823106D01*
X125051267Y-95864142D01*
X125051260Y-95864147D01*
X124329958Y-96585451D01*
X124120769Y-96794640D01*
X124120767Y-96794642D01*
X124087470Y-96827939D01*
X124033644Y-96881764D01*
X124033642Y-96881767D01*
X124010123Y-96916966D01*
X124010122Y-96916968D01*
X124010121Y-96916967D01*
X123965189Y-96984212D01*
X123965185Y-96984219D01*
X123934680Y-97057866D01*
X123934681Y-97057867D01*
X123931191Y-97066294D01*
X123923089Y-97085854D01*
X123923085Y-97085862D01*
X123918039Y-97098040D01*
X123918035Y-97098054D01*
X123894754Y-97215101D01*
X123894753Y-97215109D01*
X123894000Y-97218889D01*
X123893403Y-97224957D01*
X123891687Y-97224787D01*
X123874315Y-97283951D01*
X123862150Y-97299884D01*
X123786966Y-97383384D01*
X123692321Y-97547315D01*
X123692318Y-97547322D01*
X123637789Y-97715147D01*
X123633826Y-97727344D01*
X123614040Y-97915600D01*
X123629536Y-98063041D01*
X123616968Y-98131768D01*
X123569236Y-98182792D01*
X123506216Y-98200000D01*
X122623372Y-98200000D01*
X122556333Y-98180315D01*
X122510578Y-98127511D01*
X122500634Y-98058353D01*
X122524997Y-98000513D01*
X122552261Y-97964981D01*
X122552263Y-97964979D01*
X122610198Y-97825108D01*
X122610199Y-97825103D01*
X122620088Y-97750000D01*
X122609457Y-97737878D01*
X122580054Y-97674496D01*
X122589586Y-97605280D01*
X122614963Y-97568479D01*
X122639423Y-97543996D01*
X122639431Y-97544004D01*
X122639463Y-97543954D01*
X122683411Y-97500008D01*
X122683413Y-97500004D01*
X122687541Y-97495877D01*
X122687977Y-97495393D01*
X123271364Y-96911454D01*
X123271372Y-96911462D01*
X123271404Y-96911413D01*
X123315411Y-96867408D01*
X123315420Y-96867393D01*
X123315585Y-96867191D01*
X123315600Y-96867177D01*
X123320730Y-96859490D01*
X123350985Y-96828007D01*
X123377342Y-96808858D01*
X123433871Y-96767788D01*
X123560533Y-96627116D01*
X123655179Y-96463184D01*
X123713674Y-96283156D01*
X123733460Y-96094900D01*
X123713674Y-95906644D01*
X123659112Y-95738723D01*
X123655181Y-95726622D01*
X123655180Y-95726621D01*
X123655179Y-95726616D01*
X123560533Y-95562684D01*
X123433871Y-95422012D01*
X123426714Y-95416812D01*
X123280734Y-95310751D01*
X123280729Y-95310748D01*
X123107807Y-95233757D01*
X123107802Y-95233755D01*
X122954953Y-95201267D01*
X122922646Y-95194400D01*
X122749500Y-95194400D01*
X122682461Y-95174715D01*
X122636706Y-95121911D01*
X122625500Y-95070400D01*
X122625500Y-94987286D01*
X122625500Y-94987280D01*
X122610687Y-94874764D01*
X122610686Y-94874763D01*
X122609626Y-94866705D01*
X122612689Y-94866301D01*
X122612689Y-94833698D01*
X122609626Y-94833295D01*
X122610687Y-94825236D01*
X122625500Y-94712720D01*
X122625500Y-94487280D01*
X122610687Y-94374764D01*
X122610686Y-94374763D01*
X122609626Y-94366705D01*
X122612689Y-94366301D01*
X122612689Y-94333696D01*
X122609626Y-94333293D01*
X122612915Y-94308313D01*
X122641182Y-94244417D01*
X122699507Y-94205947D01*
X122735854Y-94200500D01*
X122794644Y-94200500D01*
X122794646Y-94200500D01*
X122979803Y-94161144D01*
X123152730Y-94084151D01*
X123305871Y-93972888D01*
X123432533Y-93832216D01*
X123527179Y-93668284D01*
X123585674Y-93488256D01*
X123605460Y-93300000D01*
X123585674Y-93111744D01*
X123527179Y-92931716D01*
X123432533Y-92767784D01*
X123305871Y-92627112D01*
X123256099Y-92590951D01*
X123211335Y-92558428D01*
X123168669Y-92503099D01*
X123162603Y-92433916D01*
X123165860Y-92417544D01*
X123165860Y-92417542D01*
X123171347Y-92389960D01*
X123171347Y-92266746D01*
X123171347Y-89924155D01*
X123191032Y-89857116D01*
X123243836Y-89811361D01*
X123312994Y-89801417D01*
X123376550Y-89830442D01*
X123413278Y-89885837D01*
X123423818Y-89918277D01*
X123423821Y-89918284D01*
X123518467Y-90082216D01*
X123590109Y-90161782D01*
X123645129Y-90222888D01*
X123798265Y-90334148D01*
X123798270Y-90334151D01*
X123971192Y-90411142D01*
X123971197Y-90411144D01*
X124156354Y-90450500D01*
X124156355Y-90450500D01*
X124345644Y-90450500D01*
X124345646Y-90450500D01*
X124530803Y-90411144D01*
X124703730Y-90334151D01*
X124856871Y-90222888D01*
X124983533Y-90082216D01*
X125078179Y-89918284D01*
X125136674Y-89738256D01*
X125153390Y-89579200D01*
X125179974Y-89514588D01*
X125237272Y-89474603D01*
X125307091Y-89471943D01*
X125364392Y-89504483D01*
X125383332Y-89523423D01*
X125383337Y-89523427D01*
X125811841Y-89951932D01*
X125811842Y-89951933D01*
X125882211Y-90022302D01*
X125897682Y-90037773D01*
X125917387Y-90063454D01*
X125930067Y-90085416D01*
X126011336Y-90175674D01*
X126056729Y-90226088D01*
X126209865Y-90337348D01*
X126209870Y-90337351D01*
X126382792Y-90414342D01*
X126382797Y-90414344D01*
X126567954Y-90453700D01*
X126567955Y-90453700D01*
X126757244Y-90453700D01*
X126757246Y-90453700D01*
X126942403Y-90414344D01*
X127115330Y-90337351D01*
X127268471Y-90226088D01*
X127395133Y-90085416D01*
X127489779Y-89921484D01*
X127548274Y-89741456D01*
X127567183Y-89561537D01*
X127593767Y-89496924D01*
X127651065Y-89456939D01*
X127690504Y-89450500D01*
X127887713Y-89450500D01*
X127887720Y-89450500D01*
X128000236Y-89435687D01*
X128000236Y-89435686D01*
X128008295Y-89434626D01*
X128008698Y-89437689D01*
X128041302Y-89437689D01*
X128041705Y-89434626D01*
X128049763Y-89435686D01*
X128049764Y-89435687D01*
X128162280Y-89450500D01*
X128162287Y-89450500D01*
X128387713Y-89450500D01*
X128387720Y-89450500D01*
X128500236Y-89435687D01*
X128500236Y-89435686D01*
X128508295Y-89434626D01*
X128508698Y-89437689D01*
X128541302Y-89437689D01*
X128541705Y-89434626D01*
X128549763Y-89435686D01*
X128549764Y-89435687D01*
X128662280Y-89450500D01*
X128662287Y-89450500D01*
X128887713Y-89450500D01*
X128887720Y-89450500D01*
X129000236Y-89435687D01*
X129000236Y-89435686D01*
X129008295Y-89434626D01*
X129008698Y-89437689D01*
X129041302Y-89437689D01*
X129041705Y-89434626D01*
X129049763Y-89435686D01*
G37*
%TD.AperFunction*%
%TD*%
M02*
