%TF.GenerationSoftware,KiCad,Pcbnew,8.0.2*%
%TF.CreationDate,2024-06-17T14:20:13-07:00*%
%TF.ProjectId,USB_SPDTK,5553425f-5350-4445-944b-2e6b69636164,rev?*%
%TF.SameCoordinates,Original*%
%TF.FileFunction,Copper,L2,Bot*%
%TF.FilePolarity,Positive*%
%FSLAX46Y46*%
G04 Gerber Fmt 4.6, Leading zero omitted, Abs format (unit mm)*
G04 Created by KiCad (PCBNEW 8.0.2) date 2024-06-17 14:20:13*
%MOMM*%
%LPD*%
G01*
G04 APERTURE LIST*
G04 Aperture macros list*
%AMRoundRect*
0 Rectangle with rounded corners*
0 $1 Rounding radius*
0 $2 $3 $4 $5 $6 $7 $8 $9 X,Y pos of 4 corners*
0 Add a 4 corners polygon primitive as box body*
4,1,4,$2,$3,$4,$5,$6,$7,$8,$9,$2,$3,0*
0 Add four circle primitives for the rounded corners*
1,1,$1+$1,$2,$3*
1,1,$1+$1,$4,$5*
1,1,$1+$1,$6,$7*
1,1,$1+$1,$8,$9*
0 Add four rect primitives between the rounded corners*
20,1,$1+$1,$2,$3,$4,$5,0*
20,1,$1+$1,$4,$5,$6,$7,0*
20,1,$1+$1,$6,$7,$8,$9,0*
20,1,$1+$1,$8,$9,$2,$3,0*%
G04 Aperture macros list end*
%TA.AperFunction,ComponentPad*%
%ADD10R,1.000000X1.000000*%
%TD*%
%TA.AperFunction,ComponentPad*%
%ADD11O,1.000000X1.000000*%
%TD*%
%TA.AperFunction,ComponentPad*%
%ADD12C,3.600000*%
%TD*%
%TA.AperFunction,ConnectorPad*%
%ADD13C,5.600000*%
%TD*%
%TA.AperFunction,ComponentPad*%
%ADD14O,0.900000X1.600000*%
%TD*%
%TA.AperFunction,SMDPad,CuDef*%
%ADD15RoundRect,0.137500X0.137500X-0.662500X0.137500X0.662500X-0.137500X0.662500X-0.137500X-0.662500X0*%
%TD*%
%TA.AperFunction,SMDPad,CuDef*%
%ADD16RoundRect,0.160000X-0.197500X-0.160000X0.197500X-0.160000X0.197500X0.160000X-0.197500X0.160000X0*%
%TD*%
%TA.AperFunction,SMDPad,CuDef*%
%ADD17RoundRect,0.155000X0.212500X0.155000X-0.212500X0.155000X-0.212500X-0.155000X0.212500X-0.155000X0*%
%TD*%
%TA.AperFunction,SMDPad,CuDef*%
%ADD18RoundRect,0.155000X-0.212500X-0.155000X0.212500X-0.155000X0.212500X0.155000X-0.212500X0.155000X0*%
%TD*%
%TA.AperFunction,SMDPad,CuDef*%
%ADD19RoundRect,0.237500X-0.300000X-0.237500X0.300000X-0.237500X0.300000X0.237500X-0.300000X0.237500X0*%
%TD*%
%TA.AperFunction,SMDPad,CuDef*%
%ADD20RoundRect,0.175000X0.325000X-0.175000X0.325000X0.175000X-0.325000X0.175000X-0.325000X-0.175000X0*%
%TD*%
%TA.AperFunction,SMDPad,CuDef*%
%ADD21RoundRect,0.150000X0.150000X-0.200000X0.150000X0.200000X-0.150000X0.200000X-0.150000X-0.200000X0*%
%TD*%
%TA.AperFunction,SMDPad,CuDef*%
%ADD22RoundRect,0.160000X0.197500X0.160000X-0.197500X0.160000X-0.197500X-0.160000X0.197500X-0.160000X0*%
%TD*%
%TA.AperFunction,SMDPad,CuDef*%
%ADD23RoundRect,0.237500X0.300000X0.237500X-0.300000X0.237500X-0.300000X-0.237500X0.300000X-0.237500X0*%
%TD*%
%TA.AperFunction,SMDPad,CuDef*%
%ADD24C,1.000000*%
%TD*%
%TA.AperFunction,SMDPad,CuDef*%
%ADD25RoundRect,0.160000X0.160000X-0.197500X0.160000X0.197500X-0.160000X0.197500X-0.160000X-0.197500X0*%
%TD*%
%TA.AperFunction,ViaPad*%
%ADD26C,0.800000*%
%TD*%
%TA.AperFunction,Conductor*%
%ADD27C,0.400000*%
%TD*%
%TA.AperFunction,Conductor*%
%ADD28C,0.254000*%
%TD*%
%TA.AperFunction,Conductor*%
%ADD29C,0.500000*%
%TD*%
%TA.AperFunction,Conductor*%
%ADD30C,0.200000*%
%TD*%
%TA.AperFunction,Conductor*%
%ADD31C,0.250000*%
%TD*%
%TA.AperFunction,Conductor*%
%ADD32C,0.800000*%
%TD*%
G04 APERTURE END LIST*
D10*
%TO.P,J3,1,Pin_1*%
%TO.N,S1U*%
X111430000Y-66950000D03*
D11*
%TO.P,J3,2,Pin_2*%
%TO.N,S1D*%
X112700000Y-66950000D03*
%TO.P,J3,3,Pin_3*%
%TO.N,S2U*%
X111430000Y-68220000D03*
%TO.P,J3,4,Pin_4*%
%TO.N,S2D*%
X112700000Y-68220000D03*
%TO.P,J3,5,Pin_5*%
%TO.N,S1U_OUT*%
X111430000Y-69490000D03*
%TO.P,J3,6,Pin_6*%
%TO.N,S1D_OUT*%
X112700000Y-69490000D03*
%TO.P,J3,7,Pin_7*%
%TO.N,S2U_OUT*%
X111430000Y-70760000D03*
%TO.P,J3,8,Pin_8*%
%TO.N,S2D_OUT*%
X112700000Y-70760000D03*
%TO.P,J3,9,Pin_9*%
%TO.N,Aux0*%
X111430000Y-72030000D03*
%TO.P,J3,10,Pin_10*%
%TO.N,Aux1*%
X112700000Y-72030000D03*
%TO.P,J3,11,Pin_11*%
%TO.N,Aux2*%
X111430000Y-73300000D03*
%TO.P,J3,12,Pin_12*%
%TO.N,Aux3*%
X112700000Y-73300000D03*
%TO.P,J3,13,Pin_13*%
%TO.N,+VSW*%
X111430000Y-74570000D03*
%TO.P,J3,14,Pin_14*%
%TO.N,GND*%
X112700000Y-74570000D03*
%TO.P,J3,15,Pin_15*%
%TO.N,+VSW*%
X111430000Y-75840000D03*
%TO.P,J3,16,Pin_16*%
%TO.N,GND*%
X112700000Y-75840000D03*
%TD*%
D12*
%TO.P,H1,1,1*%
%TO.N,GND*%
X119012000Y-110500000D03*
D13*
X119012000Y-110500000D03*
%TD*%
D12*
%TO.P,H2,1,1*%
%TO.N,GND*%
X130188000Y-110500000D03*
D13*
X130188000Y-110500000D03*
%TD*%
D14*
%TO.P,J1,6,Shield*%
%TO.N,GND*%
X127300000Y-65125000D03*
X120700000Y-65125000D03*
%TD*%
D15*
%TO.P,U3,1,I1*%
%TO.N,S1U*%
X127645000Y-82750000D03*
%TO.P,U3,2,I2*%
%TO.N,S1D*%
X126375000Y-82750000D03*
%TO.P,U3,3,I3*%
%TO.N,S2U*%
X125105000Y-82750000D03*
%TO.P,U3,4,I4*%
%TO.N,S2D*%
X123835000Y-82750000D03*
%TO.P,U3,5,I5*%
%TO.N,unconnected-(U3-I5-Pad5)*%
X122565000Y-82750000D03*
%TO.P,U3,6,I6*%
%TO.N,unconnected-(U3-I6-Pad6)*%
X121295000Y-82750000D03*
%TO.P,U3,7,I7*%
%TO.N,unconnected-(U3-I7-Pad7)*%
X120025000Y-82750000D03*
%TO.P,U3,8,GND*%
%TO.N,GND*%
X118755000Y-82750000D03*
%TO.P,U3,9,COM*%
%TO.N,+VSW*%
X118755000Y-76250000D03*
%TO.P,U3,10,O7*%
%TO.N,unconnected-(U3-O7-Pad10)*%
X120025000Y-76250000D03*
%TO.P,U3,11,O6*%
%TO.N,unconnected-(U3-O6-Pad11)*%
X121295000Y-76250000D03*
%TO.P,U3,12,O5*%
%TO.N,unconnected-(U3-O5-Pad12)*%
X122565000Y-76250000D03*
%TO.P,U3,13,O4*%
%TO.N,S2D_OUT*%
X123835000Y-76250000D03*
%TO.P,U3,14,O3*%
%TO.N,S2U_OUT*%
X125105000Y-76250000D03*
%TO.P,U3,15,O2*%
%TO.N,S1D_OUT*%
X126375000Y-76250000D03*
%TO.P,U3,16,O1*%
%TO.N,S1U_OUT*%
X127645000Y-76250000D03*
%TD*%
D16*
%TO.P,R9,1*%
%TO.N,Net-(U4-PA0)*%
X135402500Y-99700000D03*
%TO.P,R9,2*%
%TO.N,Net-(D3-A)*%
X136597500Y-99700000D03*
%TD*%
D17*
%TO.P,C11,1*%
%TO.N,+3.3V*%
X130535000Y-95700000D03*
%TO.P,C11,2*%
%TO.N,GND*%
X129400000Y-95700000D03*
%TD*%
D18*
%TO.P,C10,1*%
%TO.N,+3.3V*%
X123132500Y-97000000D03*
%TO.P,C10,2*%
%TO.N,GND*%
X124267500Y-97000000D03*
%TD*%
D17*
%TO.P,C9,1*%
%TO.N,GND*%
X124267500Y-90300000D03*
%TO.P,C9,2*%
%TO.N,+3.3V*%
X123132500Y-90300000D03*
%TD*%
D19*
%TO.P,C15,1*%
%TO.N,GND*%
X116637500Y-74100000D03*
%TO.P,C15,2*%
%TO.N,+VSW*%
X118362500Y-74100000D03*
%TD*%
D20*
%TO.P,D2,1,GND*%
%TO.N,GND*%
X125550000Y-72500000D03*
D21*
%TO.P,D2,2,I/O1*%
%TO.N,/Controller/USB-*%
X123850000Y-72500000D03*
%TO.P,D2,3,I/O2*%
%TO.N,/Controller/USB+*%
X123850000Y-70500000D03*
%TO.P,D2,4,VCC*%
%TO.N,VBUS*%
X125750000Y-70500000D03*
%TD*%
D17*
%TO.P,C13,1*%
%TO.N,Net-(U4-VDDA)*%
X129535000Y-97700000D03*
%TO.P,C13,2*%
%TO.N,GND*%
X128400000Y-97700000D03*
%TD*%
D22*
%TO.P,R17,1*%
%TO.N,/Controller/BOOT1*%
X129897500Y-92100000D03*
%TO.P,R17,2*%
%TO.N,GND*%
X128702500Y-92100000D03*
%TD*%
D23*
%TO.P,FB1,1*%
%TO.N,+3.3V*%
X132662500Y-99200000D03*
%TO.P,FB1,2*%
%TO.N,Net-(U4-VDDA)*%
X130937500Y-99200000D03*
%TD*%
D24*
%TO.P,FID3,*%
%TO.N,*%
X109900000Y-111500000D03*
%TD*%
D25*
%TO.P,R14,1*%
%TO.N,Net-(U4-PA10)*%
X130200000Y-84697500D03*
%TO.P,R14,2*%
%TO.N,Net-(D6-A)*%
X130200000Y-83502500D03*
%TD*%
%TO.P,R13,1*%
%TO.N,Net-(U4-PA9)*%
X132200000Y-84597500D03*
%TO.P,R13,2*%
%TO.N,Net-(D5-A)*%
X132200000Y-83402500D03*
%TD*%
%TO.P,R11,1*%
%TO.N,Net-(C17-Pad1)*%
X126900000Y-103497500D03*
%TO.P,R11,2*%
%TO.N,Net-(U4-PH1)*%
X126900000Y-102302500D03*
%TD*%
D16*
%TO.P,R16,1*%
%TO.N,Net-(U4-PB0)*%
X134602500Y-93100000D03*
%TO.P,R16,2*%
%TO.N,Net-(D7-A)*%
X135797500Y-93100000D03*
%TD*%
D25*
%TO.P,R12,1*%
%TO.N,Net-(U4-PA8)*%
X134000000Y-84572500D03*
%TO.P,R12,2*%
%TO.N,Net-(D4-A)*%
X134000000Y-83377500D03*
%TD*%
D24*
%TO.P,FID4,*%
%TO.N,*%
X139400000Y-66000000D03*
%TD*%
D26*
%TO.N,GND*%
X112500000Y-96100000D03*
X108825000Y-89606500D03*
X138866375Y-89370474D03*
X124016000Y-105284000D03*
X111400000Y-103400000D03*
X120915150Y-102284850D03*
X133000000Y-106100000D03*
X131340000Y-90885300D03*
X130900000Y-96900000D03*
X117785500Y-77993900D03*
X132200000Y-72500000D03*
X132300000Y-75400000D03*
X122828000Y-96094900D03*
X115400000Y-98000000D03*
X135789201Y-89095044D03*
X132101200Y-81887900D03*
X128774000Y-100752000D03*
X117785500Y-82868100D03*
X139065000Y-102689900D03*
X124251000Y-89550000D03*
%TO.N,+VSW*%
X129693300Y-78567100D03*
X116740300Y-75214700D03*
%TO.N,VBUS*%
X126550700Y-69799200D03*
%TO.N,+3.3V*%
X140200000Y-101131800D03*
X123400000Y-91200000D03*
X138482900Y-95586000D03*
X136483379Y-91590663D03*
X123100000Y-97600000D03*
X136533800Y-94394000D03*
X114821300Y-103250200D03*
X134901623Y-89890065D03*
X130500000Y-94900000D03*
X121400000Y-99071500D03*
X110002500Y-90066900D03*
%TO.N,Net-(U4-VDDA)*%
X129294000Y-98284700D03*
%TO.N,Net-(J2-~{RESET})*%
X125983900Y-98145500D03*
X116045300Y-92260100D03*
%TO.N,Net-(C17-Pad1)*%
X128890000Y-104250000D03*
%TO.N,/Controller/USB+*%
X123816700Y-71531100D03*
%TO.N,/Controller/USB-*%
X124809200Y-73470700D03*
%TO.N,Net-(D3-A)*%
X137763300Y-98847900D03*
%TO.N,Net-(D4-A)*%
X133973200Y-86147300D03*
%TO.N,Net-(D5-A)*%
X132100000Y-86135300D03*
%TO.N,Net-(D6-A)*%
X130200000Y-86127900D03*
%TO.N,Net-(D7-A)*%
X137764000Y-94413300D03*
%TO.N,/Controller/JTMS*%
X118026450Y-100649378D03*
X114393200Y-90498700D03*
X123099992Y-86000000D03*
X117276700Y-87139700D03*
%TO.N,/Controller/JTDI*%
X120193300Y-89512800D03*
X111579629Y-101690000D03*
%TO.N,/Controller/JTDO*%
X116400000Y-93800000D03*
X118813756Y-93286244D03*
X116400000Y-96600000D03*
X122700000Y-93300000D03*
%TO.N,/Controller/JTCK*%
X121350000Y-89347900D03*
X117394200Y-98907000D03*
%TO.N,S2U*%
X115232100Y-82179900D03*
X127436300Y-96089700D03*
X112200000Y-80400000D03*
%TO.N,S1U*%
X112784923Y-82194077D03*
X124519500Y-97915600D03*
X117664508Y-92650629D03*
%TO.N,Aux0*%
X128800000Y-81100000D03*
%TO.N,Aux3*%
X114667900Y-72438400D03*
%TO.N,Aux2*%
X119600000Y-79600000D03*
%TO.N,S2D*%
X121962100Y-83995800D03*
X127119100Y-93375100D03*
X122856100Y-70200000D03*
%TO.N,Aux1*%
X127682800Y-74804400D03*
%TO.N,S2U_OUT*%
X122058800Y-72586100D03*
X109872400Y-70879800D03*
X122058800Y-69371800D03*
X109864500Y-68828400D03*
%TO.N,S1U_OUT*%
X118375600Y-72935400D03*
X113200000Y-80300000D03*
%TO.N,S1D*%
X125100000Y-92500000D03*
X112978100Y-83791300D03*
X114423300Y-85326700D03*
X109495400Y-67277300D03*
%TO.N,HVEnable*%
X122561535Y-78152535D03*
X136512200Y-76442000D03*
%TO.N,Net-(U4-PA0)*%
X129775000Y-101185700D03*
%TO.N,Net-(U4-PH1)*%
X125800000Y-100900000D03*
%TO.N,Net-(U4-PA8)*%
X126637386Y-86141799D03*
%TO.N,Net-(U4-PA9)*%
X126075200Y-84857200D03*
%TO.N,Net-(U4-PA10)*%
X126662600Y-89553200D03*
X129089200Y-85266600D03*
X128677300Y-83118500D03*
%TO.N,/Controller/BOOT1*%
X134605000Y-94046700D03*
%TO.N,Net-(U4-PB0)*%
X135296700Y-94787300D03*
%TO.N,/Controller/~{SPI2NSS}*%
X118800000Y-98800000D03*
X119654100Y-96894300D03*
%TO.N,/Controller/SPI2_SCK*%
X131308500Y-92769300D03*
X138211800Y-100961400D03*
%TO.N,/Controller/SPI2_MOSI*%
X131818200Y-87653000D03*
X137125000Y-107969400D03*
%TO.N,/Controller/SPI2_MISO*%
X131393800Y-89304500D03*
X127600000Y-91600000D03*
%TD*%
D27*
%TO.N,GND*%
X128700000Y-95000000D02*
X128702000Y-94997500D01*
X127700000Y-97000000D02*
X128400000Y-97700000D01*
D28*
X131340000Y-90885300D02*
X129917000Y-90885300D01*
X128400000Y-100378000D02*
X128400000Y-97700000D01*
D29*
X139065000Y-102689900D02*
X130014700Y-102689900D01*
X118755000Y-82750000D02*
X117903600Y-82750000D01*
D30*
X113500000Y-96100000D02*
X112500000Y-96100000D01*
D29*
X117785500Y-77993900D02*
X115805600Y-77993900D01*
D27*
X124268000Y-90830400D02*
X124268000Y-96100000D01*
D31*
X112091450Y-106002897D02*
X116588553Y-110500000D01*
D29*
X124268000Y-90830400D02*
X124267500Y-90829900D01*
X112700000Y-75840000D02*
X113651700Y-75840000D01*
X132292900Y-81887900D02*
X132101200Y-81887900D01*
D27*
X124268000Y-97000000D02*
X127700000Y-97000000D01*
D29*
X124267500Y-96550500D02*
X124267500Y-97000000D01*
D31*
X111400000Y-104399705D02*
X112091450Y-105091155D01*
D28*
X135727222Y-89033065D02*
X135789201Y-89095044D01*
X130600000Y-96900000D02*
X129400000Y-95700000D01*
D27*
X129000000Y-95700000D02*
X127700000Y-97000000D01*
X129400000Y-95700000D02*
X129000000Y-95700000D01*
D29*
X127300000Y-66376700D02*
X124987900Y-68688800D01*
X124987900Y-71937900D02*
X125550000Y-72500000D01*
X117170200Y-83483400D02*
X114948100Y-83483400D01*
D31*
X112091450Y-105091155D02*
X112091450Y-106002897D01*
D30*
X115400000Y-98000000D02*
X113500000Y-96100000D01*
D29*
X121171000Y-79898000D02*
X130111300Y-79898000D01*
X125550000Y-72500000D02*
X132200000Y-72500000D01*
X124987900Y-68688800D02*
X124987900Y-71937900D01*
X117785500Y-82868100D02*
X117170200Y-83483400D01*
D28*
X129917000Y-90885300D02*
X128702100Y-92100000D01*
D31*
X111400000Y-103400000D02*
X111400000Y-104399705D01*
D29*
X124268000Y-96550000D02*
X124267500Y-96550500D01*
D27*
X124268000Y-90300000D02*
X124268000Y-90830400D01*
X124268000Y-96550000D02*
X124268000Y-97000000D01*
D29*
X119973000Y-78700000D02*
X121171000Y-79898000D01*
X130014700Y-102689900D02*
X128774000Y-101449200D01*
D28*
X124251000Y-89550000D02*
X124251000Y-90283400D01*
X130900000Y-96900000D02*
X130600000Y-96900000D01*
D27*
X129400000Y-95700000D02*
X128700000Y-95000000D01*
D28*
X131340000Y-90885300D02*
X133192235Y-89033065D01*
D29*
X114948100Y-83483400D02*
X108825000Y-89606500D01*
D32*
X133000000Y-107688000D02*
X130188000Y-110500000D01*
D27*
X128702000Y-94997500D02*
X128702000Y-92100000D01*
D29*
X127300000Y-65125000D02*
X127300000Y-66376700D01*
X117903600Y-82750000D02*
X117785500Y-82868100D01*
X118491600Y-78700000D02*
X119973000Y-78700000D01*
D28*
X133192235Y-89033065D02*
X135727222Y-89033065D01*
X128774000Y-100752000D02*
X128400000Y-100378000D01*
D29*
X115805600Y-77993900D02*
X113651700Y-75840000D01*
D27*
X124268000Y-96100000D02*
X124268000Y-96550000D01*
D29*
X116637500Y-74100000D02*
X116167500Y-74570000D01*
X124267500Y-90829900D02*
X124267500Y-90300000D01*
X116167500Y-74570000D02*
X112700000Y-74570000D01*
D28*
X122828000Y-96094900D02*
X124262000Y-96094900D01*
D29*
X130111300Y-79898000D02*
X132101200Y-81887900D01*
X117785500Y-77993900D02*
X118491600Y-78700000D01*
X128774000Y-101449200D02*
X128774000Y-100752000D01*
D28*
X124262000Y-96094900D02*
X124268000Y-96100000D01*
D32*
X133000000Y-106100000D02*
X133000000Y-107688000D01*
D29*
%TO.N,+VSW*%
X118362500Y-75857500D02*
X118755000Y-76250000D01*
X118755000Y-77215750D02*
X119339250Y-77800000D01*
X129160400Y-79100000D02*
X129693300Y-78567100D01*
X122200000Y-79100000D02*
X129160400Y-79100000D01*
X118362500Y-75214700D02*
X118362500Y-75857500D01*
X118362500Y-75214700D02*
X116740300Y-75214700D01*
X120900000Y-77800000D02*
X122200000Y-79100000D01*
X118362500Y-74100000D02*
X118362500Y-75214700D01*
X119339250Y-77800000D02*
X120900000Y-77800000D01*
X118755000Y-76676500D02*
X118755000Y-77215750D01*
%TO.N,VBUS*%
X126550700Y-69799200D02*
X126450800Y-69799200D01*
X126450800Y-69799200D02*
X125750000Y-70500000D01*
D28*
%TO.N,+3.3V*%
X130911982Y-95700000D02*
X132662000Y-97450018D01*
D29*
X121721100Y-88449500D02*
X123132500Y-89860900D01*
D28*
X132662000Y-98518700D02*
X132662000Y-99200000D01*
D29*
X132662000Y-98518700D02*
X132662500Y-98519200D01*
D27*
X134901623Y-90008907D02*
X136483379Y-91590663D01*
D28*
X130600000Y-95700000D02*
X130911982Y-95700000D01*
D29*
X137725800Y-95586000D02*
X138482900Y-95586000D01*
D28*
X132662000Y-97450018D02*
X132662000Y-98518700D01*
D29*
X130535000Y-95317500D02*
X130600000Y-95382500D01*
X138482900Y-95586000D02*
X140200000Y-97303100D01*
X123100000Y-97600000D02*
X123132500Y-97567500D01*
X117221300Y-103250200D02*
X121400000Y-99071500D01*
D28*
X130535000Y-95317500D02*
X130535000Y-94935000D01*
D29*
X110002500Y-90066900D02*
X111619900Y-88449500D01*
X123132500Y-89860900D02*
X123132500Y-90300000D01*
D28*
X123400000Y-90567500D02*
X123132300Y-90300200D01*
D29*
X132662500Y-98519200D02*
X132662500Y-99200000D01*
X111619900Y-88449500D02*
X121721100Y-88449500D01*
D28*
X134901623Y-89890065D02*
X134901623Y-90008907D01*
D29*
X123132500Y-97567500D02*
X123132500Y-97000000D01*
X114821300Y-103250200D02*
X117221300Y-103250200D01*
D28*
X130535000Y-94935000D02*
X130500000Y-94900000D01*
D29*
X136533800Y-94394000D02*
X137725800Y-95586000D01*
D28*
X130535000Y-95700000D02*
X130535000Y-95317500D01*
D29*
X140200000Y-97303100D02*
X140200000Y-101131800D01*
X130600000Y-95382500D02*
X130600000Y-95700000D01*
D28*
X123400000Y-91200000D02*
X123400000Y-90567500D01*
%TO.N,Net-(U4-VDDA)*%
X130938000Y-98918700D02*
X130938000Y-98637500D01*
X129294000Y-97940600D02*
X129535000Y-97700000D01*
X129310000Y-98300000D02*
X129294000Y-98284700D01*
X129294000Y-98284700D02*
X129294000Y-97940600D01*
X130938000Y-98637500D02*
X130600000Y-98300000D01*
X130600000Y-98300000D02*
X129310000Y-98300000D01*
D31*
%TO.N,Net-(J2-~{RESET})*%
X119955100Y-96167600D02*
X119952800Y-96167600D01*
X122619200Y-98834000D02*
X120380800Y-96595600D01*
X125295400Y-98834000D02*
X122619200Y-98834000D01*
X125983900Y-98145500D02*
X125295400Y-98834000D01*
X120380800Y-96593300D02*
X119955100Y-96167600D01*
X119952800Y-96167600D02*
X116045300Y-92260100D01*
X120380800Y-96595600D02*
X120380800Y-96593300D01*
%TO.N,Net-(C17-Pad1)*%
X126900500Y-103498000D02*
X128138000Y-103498000D01*
X128138000Y-103498000D02*
X128890000Y-104250000D01*
%TO.N,/Controller/USB+*%
X123850000Y-71497800D02*
X123816700Y-71531100D01*
X123850000Y-70500000D02*
X123850000Y-71497800D01*
%TO.N,/Controller/USB-*%
X123850000Y-72511500D02*
X124809200Y-73470700D01*
%TO.N,Net-(D3-A)*%
X137449600Y-98847900D02*
X137763300Y-98847900D01*
X136597500Y-99700000D02*
X137449600Y-98847900D01*
%TO.N,Net-(D4-A)*%
X134697600Y-84075100D02*
X134697600Y-85422900D01*
X134000000Y-83377500D02*
X134697600Y-84075100D01*
X134697600Y-85422900D02*
X133973200Y-86147300D01*
%TO.N,Net-(D5-A)*%
X132905900Y-85329400D02*
X132100000Y-86135300D01*
X132905900Y-84108400D02*
X132905900Y-85329400D01*
X132200000Y-83402500D02*
X132905900Y-84108400D01*
%TO.N,Net-(D6-A)*%
X130200000Y-83502500D02*
X130876100Y-84178600D01*
X130876100Y-84178600D02*
X130876100Y-85451800D01*
X130876100Y-85451800D02*
X130200000Y-86127900D01*
D28*
%TO.N,Net-(D7-A)*%
X135797500Y-93100000D02*
X136450700Y-93100000D01*
X136450700Y-93100000D02*
X137764000Y-94413300D01*
D31*
%TO.N,/Controller/JTMS*%
X113629500Y-102545000D02*
X114385300Y-101789200D01*
X114393200Y-90498700D02*
X108266300Y-96625600D01*
X108266300Y-101005900D02*
X109805400Y-102545000D01*
X116886628Y-101789200D02*
X118026450Y-100649378D01*
X109805400Y-102545000D02*
X113629500Y-102545000D01*
X114385300Y-101789200D02*
X116886628Y-101789200D01*
X117276700Y-87139700D02*
X117716400Y-86700000D01*
X108266300Y-96625600D02*
X108266300Y-101005900D01*
X117716400Y-86700000D02*
X122399992Y-86700000D01*
X122399992Y-86700000D02*
X123099992Y-86000000D01*
%TO.N,/Controller/JTDI*%
X108760400Y-97728300D02*
X108760400Y-100800100D01*
X120193300Y-89512800D02*
X116975900Y-89512800D01*
X116975900Y-89512800D02*
X108760400Y-97728300D01*
X109650300Y-101690000D02*
X111579629Y-101690000D01*
X108760400Y-100800100D02*
X109650300Y-101690000D01*
%TO.N,/Controller/JTDO*%
X116400000Y-96600000D02*
X116400000Y-93800000D01*
X122686244Y-93286244D02*
X122700000Y-93300000D01*
X118813756Y-93286244D02*
X122686244Y-93286244D01*
%TO.N,/Controller/JTCK*%
X121350000Y-89347900D02*
X121350000Y-89454200D01*
X120535200Y-90269000D02*
X116905800Y-90269000D01*
X121350000Y-89454200D02*
X120535200Y-90269000D01*
X116905800Y-90269000D02*
X115313200Y-91861600D01*
X115313200Y-91861600D02*
X115313200Y-96826000D01*
X115313200Y-96826000D02*
X117394200Y-98907000D01*
%TO.N,S2U*%
X125105000Y-82750000D02*
X124822700Y-83032300D01*
X111430000Y-68290600D02*
X110165500Y-69555100D01*
X115821200Y-81590800D02*
X115232100Y-82179900D01*
X125909700Y-87614800D02*
X125909700Y-89828200D01*
X125909700Y-89828200D02*
X126600000Y-90518500D01*
X124822700Y-86527800D02*
X125909700Y-87614800D01*
X110165500Y-69555100D02*
X109518200Y-69555100D01*
X125105000Y-82504300D02*
X124191500Y-81590800D01*
X108643800Y-70429500D02*
X108643800Y-76843800D01*
X126600000Y-91780000D02*
X127872100Y-93052100D01*
X127872100Y-93052100D02*
X127872100Y-95653900D01*
X126600000Y-90518500D02*
X126600000Y-91780000D01*
X124191500Y-81590800D02*
X115821200Y-81590800D01*
X108643800Y-76843800D02*
X112200000Y-80400000D01*
X127872100Y-95653900D02*
X127436300Y-96089700D01*
X109518200Y-69555100D02*
X108643800Y-70429500D01*
X124822700Y-83032300D02*
X124822700Y-86527800D01*
%TO.N,S1U*%
X127645000Y-82524500D02*
X125897500Y-80777000D01*
X125897500Y-80777000D02*
X114202000Y-80777000D01*
X117664508Y-93238208D02*
X117664508Y-92650629D01*
X114202000Y-80777000D02*
X112784923Y-82194077D01*
X122808600Y-98382300D02*
X117664508Y-93238208D01*
X124519500Y-97915600D02*
X124052800Y-98382300D01*
X124052800Y-98382300D02*
X122808600Y-98382300D01*
%TO.N,S2D_OUT*%
X123835000Y-76250000D02*
X123835000Y-75390300D01*
X123835000Y-75390300D02*
X119204700Y-70760000D01*
X112700000Y-70760000D02*
X119204700Y-70760000D01*
%TO.N,Aux0*%
X113300000Y-79500000D02*
X117600000Y-79500000D01*
X109861800Y-76061800D02*
X113300000Y-79500000D01*
X117600000Y-79500000D02*
X118500000Y-80400000D01*
X111430000Y-72030000D02*
X109861800Y-73598200D01*
X109861800Y-73598200D02*
X109861800Y-76061800D01*
X126299999Y-80400000D02*
X126999999Y-81100000D01*
X118500000Y-80400000D02*
X126299999Y-80400000D01*
X126999999Y-81100000D02*
X128800000Y-81100000D01*
%TO.N,Aux3*%
X112700000Y-73300000D02*
X113806300Y-73300000D01*
X113806300Y-73300000D02*
X114667900Y-72438400D01*
%TO.N,Aux2*%
X110603300Y-74126700D02*
X110603300Y-76270142D01*
X110603300Y-76270142D02*
X113456158Y-79123000D01*
X111430000Y-73300000D02*
X110603300Y-74126700D01*
X113456158Y-79123000D02*
X118204664Y-79123000D01*
X118681664Y-79600000D02*
X119600000Y-79600000D01*
X118204664Y-79123000D02*
X118681664Y-79600000D01*
%TO.N,S1D_OUT*%
X123103700Y-72603300D02*
X119990400Y-69490000D01*
X112700000Y-69490000D02*
X119990400Y-69490000D01*
X124622200Y-74299800D02*
X124526400Y-74299800D01*
X123103700Y-72877100D02*
X123103700Y-72603300D01*
X126375000Y-76052600D02*
X124622200Y-74299800D01*
X124526400Y-74299800D02*
X123103700Y-72877100D01*
%TO.N,S2D*%
X121859400Y-70200000D02*
X122856100Y-70200000D01*
X124201600Y-86919700D02*
X125458000Y-88176100D01*
X121962100Y-83995800D02*
X122776500Y-83995800D01*
X125909700Y-90692200D02*
X125909700Y-92165700D01*
X122776500Y-83995800D02*
X123835000Y-82937300D01*
X124201600Y-85420900D02*
X124201600Y-86919700D01*
X122776500Y-83995800D02*
X124201600Y-85420900D01*
X112700000Y-68220000D02*
X119879400Y-68220000D01*
X125458000Y-88176100D02*
X125458000Y-90240500D01*
X125458000Y-90240500D02*
X125909700Y-90692200D01*
X119879400Y-68220000D02*
X121859400Y-70200000D01*
X125909700Y-92165700D02*
X127119100Y-93375100D01*
%TO.N,Aux1*%
X112700000Y-72030000D02*
X113526700Y-72030000D01*
X119086800Y-71692500D02*
X120338400Y-72944100D01*
X113864200Y-71692500D02*
X119086800Y-71692500D01*
X126745900Y-77377300D02*
X127042800Y-77080400D01*
X127587200Y-74804400D02*
X127682800Y-74804400D01*
X127042800Y-77080400D02*
X127042800Y-75348800D01*
X123232800Y-77105100D02*
X123505000Y-77377300D01*
X123232800Y-75426900D02*
X123232800Y-77105100D01*
X120338400Y-72944100D02*
X120750000Y-72944100D01*
X123505000Y-77377300D02*
X126745900Y-77377300D01*
X127042800Y-75348800D02*
X127587200Y-74804400D01*
X113526700Y-72030000D02*
X113864200Y-71692500D01*
X120750000Y-72944100D02*
X123232800Y-75426900D01*
%TO.N,S2U_OUT*%
X118344900Y-65657900D02*
X110071100Y-65657900D01*
X110071100Y-65657900D02*
X108725100Y-67003900D01*
X109992200Y-70760000D02*
X111430000Y-70760000D01*
X122058800Y-69371800D02*
X118344900Y-65657900D01*
X108725100Y-67689000D02*
X109864500Y-68828400D01*
X125105000Y-75632300D02*
X122058800Y-72586100D01*
X108725100Y-67003900D02*
X108725100Y-67689000D01*
X109992200Y-70760000D02*
X109872400Y-70879800D01*
%TO.N,S1U_OUT*%
X126933000Y-77829000D02*
X127645000Y-77117000D01*
X109715500Y-70006800D02*
X109100200Y-70622100D01*
X110913200Y-70006800D02*
X109715500Y-70006800D01*
X111430000Y-69490000D02*
X110913200Y-70006800D01*
X121962800Y-75450100D02*
X121962800Y-77105684D01*
X123329000Y-77829000D02*
X126933000Y-77829000D01*
X121962800Y-77105684D02*
X122232116Y-77375000D01*
X122232116Y-77375000D02*
X122875000Y-77375000D01*
X122875000Y-77375000D02*
X123329000Y-77829000D01*
X109100200Y-70622100D02*
X109100200Y-76200200D01*
X118375600Y-72935400D02*
X119302100Y-72935400D01*
X119302100Y-72935400D02*
X119854400Y-73487700D01*
X120000400Y-73487700D02*
X121962800Y-75450100D01*
X127645000Y-77117000D02*
X127645000Y-76250000D01*
X119854400Y-73487700D02*
X120000400Y-73487700D01*
X109100200Y-76200200D02*
X113200000Y-80300000D01*
%TO.N,S1D*%
X112981500Y-83787900D02*
X112978100Y-83791300D01*
X125100000Y-92500000D02*
X125006300Y-92406300D01*
X112700000Y-66950000D02*
X112700000Y-66123300D01*
X124995500Y-81154000D02*
X115230400Y-81154000D01*
X125006300Y-89213700D02*
X123665400Y-87872800D01*
X112981500Y-83402900D02*
X112981500Y-83787900D01*
X123665400Y-87872800D02*
X116969400Y-87872800D01*
X112700000Y-66123300D02*
X110649400Y-66123300D01*
X115230400Y-81154000D02*
X112981500Y-83402900D01*
X116969400Y-87872800D02*
X114423300Y-85326700D01*
X125006300Y-92406300D02*
X125006300Y-89213700D01*
X110649400Y-66123300D02*
X109495400Y-67277300D01*
X126375000Y-82533500D02*
X124995500Y-81154000D01*
%TO.N,HVEnable*%
X130787100Y-76442000D02*
X128931100Y-78298000D01*
X136512200Y-76442000D02*
X130787100Y-76442000D01*
X128931100Y-78298000D02*
X122707000Y-78298000D01*
X122707000Y-78298000D02*
X122561535Y-78152535D01*
%TO.N,Net-(U4-PA0)*%
X133916800Y-101185700D02*
X129775000Y-101185700D01*
X135402500Y-99700000D02*
X133916800Y-101185700D01*
%TO.N,Net-(U4-PH1)*%
X125800000Y-101202000D02*
X126900000Y-102302000D01*
X125800000Y-100900000D02*
X125800000Y-101202000D01*
%TO.N,Net-(U4-PA8)*%
X133051600Y-85951300D02*
X133051600Y-86226800D01*
X133051600Y-86226800D02*
X132368100Y-86910300D01*
X132368100Y-86910300D02*
X127405887Y-86910300D01*
X127405887Y-86910300D02*
X126637386Y-86141799D01*
X134000000Y-85002900D02*
X133051600Y-85951300D01*
X134000000Y-84572500D02*
X134000000Y-85002900D01*
%TO.N,Net-(U4-PA9)*%
X129856600Y-82798100D02*
X129404000Y-83250700D01*
X129404000Y-83250700D02*
X129404000Y-83419500D01*
X130548900Y-82798100D02*
X129856600Y-82798100D01*
X131488400Y-83737600D02*
X130548900Y-82798100D01*
X127966300Y-84857200D02*
X126075200Y-84857200D01*
X131488400Y-83885900D02*
X131488400Y-83737600D01*
X132200000Y-84597500D02*
X131488400Y-83885900D01*
X129404000Y-83419500D02*
X127966300Y-84857200D01*
%TO.N,Net-(U4-PA10)*%
X126662600Y-87657700D02*
X125330100Y-86325200D01*
X128677200Y-83118500D02*
X128677300Y-83118500D01*
X125330100Y-86325200D02*
X125330100Y-84560700D01*
X125826500Y-84064300D02*
X127788000Y-84064300D01*
X125330100Y-84560700D02*
X125826500Y-84064300D01*
X129630900Y-85266600D02*
X129089200Y-85266600D01*
X126662600Y-89553200D02*
X126662600Y-87657700D01*
X128677200Y-83175100D02*
X128677200Y-83118500D01*
X130200000Y-84697500D02*
X129630900Y-85266600D01*
X127788000Y-84064300D02*
X128677200Y-83175100D01*
%TO.N,/Controller/BOOT1*%
X132055100Y-91987100D02*
X130010400Y-91987100D01*
X134114700Y-94046700D02*
X132055100Y-91987100D01*
X134605000Y-94046700D02*
X134114700Y-94046700D01*
D28*
%TO.N,Net-(U4-PB0)*%
X134686434Y-93100000D02*
X135332000Y-93745566D01*
X135332000Y-93745566D02*
X135332000Y-94752000D01*
X135332000Y-94752000D02*
X135296700Y-94787300D01*
D31*
%TO.N,/Controller/~{SPI2NSS}*%
X119654100Y-96894300D02*
X119654100Y-97945900D01*
X119654100Y-97945900D02*
X118800000Y-98800000D01*
%TO.N,/Controller/SPI2_SCK*%
X136132100Y-97592900D02*
X137574600Y-97592900D01*
X138517200Y-98535500D02*
X138517200Y-100656000D01*
X131308500Y-92769300D02*
X136132100Y-97592900D01*
X137574600Y-97592900D02*
X138517200Y-98535500D01*
X138517200Y-100656000D02*
X138211800Y-100961400D01*
%TO.N,/Controller/SPI2_MOSI*%
X131818200Y-87653000D02*
X135556310Y-87653000D01*
X135556310Y-87653000D02*
X140953100Y-93049790D01*
X140953100Y-104141300D02*
X137125000Y-107969400D01*
X140953100Y-93049790D02*
X140953100Y-104141300D01*
%TO.N,/Controller/SPI2_MISO*%
X127600000Y-91600000D02*
X129895500Y-89304500D01*
X129895500Y-89304500D02*
X131393800Y-89304500D01*
%TD*%
%TA.AperFunction,Conductor*%
%TO.N,GND*%
G36*
X122128144Y-89937790D02*
G01*
X122178632Y-89968400D01*
X122228181Y-90017949D01*
X122261666Y-90079272D01*
X122264500Y-90105630D01*
X122264500Y-90521190D01*
X122264501Y-90521215D01*
X122267423Y-90558354D01*
X122313630Y-90717400D01*
X122397934Y-90859950D01*
X122397941Y-90859959D01*
X122475870Y-90937888D01*
X122509355Y-90999211D01*
X122511510Y-91038529D01*
X122495409Y-91191728D01*
X122494540Y-91200000D01*
X122514326Y-91388256D01*
X122516292Y-91394309D01*
X122572818Y-91568277D01*
X122572821Y-91568284D01*
X122667467Y-91732216D01*
X122788357Y-91866478D01*
X122794129Y-91872888D01*
X122947265Y-91984148D01*
X122947270Y-91984151D01*
X123120192Y-92061142D01*
X123120197Y-92061144D01*
X123305354Y-92100500D01*
X123305355Y-92100500D01*
X123494644Y-92100500D01*
X123494646Y-92100500D01*
X123679803Y-92061144D01*
X123852730Y-91984151D01*
X124005871Y-91872888D01*
X124132533Y-91732216D01*
X124149412Y-91702979D01*
X124199979Y-91654764D01*
X124268586Y-91641540D01*
X124333451Y-91667508D01*
X124373980Y-91724422D01*
X124380800Y-91764979D01*
X124380800Y-91911464D01*
X124364187Y-91973463D01*
X124272823Y-92131710D01*
X124272818Y-92131722D01*
X124214327Y-92311740D01*
X124214326Y-92311744D01*
X124194540Y-92500000D01*
X124214326Y-92688256D01*
X124214327Y-92688259D01*
X124272818Y-92868277D01*
X124272821Y-92868284D01*
X124367467Y-93032216D01*
X124422663Y-93093517D01*
X124494129Y-93172888D01*
X124647265Y-93284148D01*
X124647270Y-93284151D01*
X124820192Y-93361142D01*
X124820197Y-93361144D01*
X125005354Y-93400500D01*
X125005355Y-93400500D01*
X125194644Y-93400500D01*
X125194646Y-93400500D01*
X125379803Y-93361144D01*
X125552730Y-93284151D01*
X125705871Y-93172888D01*
X125773098Y-93098224D01*
X125832582Y-93061578D01*
X125902439Y-93062907D01*
X125952927Y-93093517D01*
X126180138Y-93320728D01*
X126213623Y-93382051D01*
X126215778Y-93395447D01*
X126220691Y-93442188D01*
X126233426Y-93563356D01*
X126233427Y-93563359D01*
X126291918Y-93743377D01*
X126291921Y-93743384D01*
X126386567Y-93907316D01*
X126505007Y-94038857D01*
X126513229Y-94047988D01*
X126666365Y-94159248D01*
X126666370Y-94159251D01*
X126839292Y-94236242D01*
X126839297Y-94236244D01*
X127024454Y-94275600D01*
X127024455Y-94275600D01*
X127122600Y-94275600D01*
X127189639Y-94295285D01*
X127235394Y-94348089D01*
X127246600Y-94399600D01*
X127246600Y-95109188D01*
X127226915Y-95176227D01*
X127174111Y-95221982D01*
X127160920Y-95227118D01*
X127156498Y-95228554D01*
X126983570Y-95305548D01*
X126983565Y-95305551D01*
X126830429Y-95416811D01*
X126703766Y-95557485D01*
X126609121Y-95721415D01*
X126609118Y-95721422D01*
X126571594Y-95836910D01*
X126550626Y-95901444D01*
X126530840Y-96089700D01*
X126550626Y-96277956D01*
X126550627Y-96277959D01*
X126609118Y-96457977D01*
X126609121Y-96457984D01*
X126703767Y-96621916D01*
X126796660Y-96725084D01*
X126830429Y-96762588D01*
X126983565Y-96873848D01*
X126983570Y-96873851D01*
X127156492Y-96950842D01*
X127156497Y-96950844D01*
X127341654Y-96990200D01*
X127341655Y-96990200D01*
X127537241Y-96990200D01*
X127604280Y-97009885D01*
X127650035Y-97062689D01*
X127659979Y-97131847D01*
X127643973Y-97177320D01*
X127581594Y-97282798D01*
X127581590Y-97282805D01*
X127535421Y-97441718D01*
X127534770Y-97450000D01*
X128150000Y-97450000D01*
X128150000Y-96890000D01*
X128116099Y-96856099D01*
X128082614Y-96794776D01*
X128087598Y-96725084D01*
X128111630Y-96685446D01*
X128168833Y-96621916D01*
X128263479Y-96457984D01*
X128321974Y-96277956D01*
X128337287Y-96132258D01*
X128363870Y-96067646D01*
X128421168Y-96027661D01*
X128490987Y-96025001D01*
X128551160Y-96060510D01*
X128579683Y-96110627D01*
X128581591Y-96117194D01*
X128581592Y-96117197D01*
X128665833Y-96259642D01*
X128665839Y-96259650D01*
X128782849Y-96376660D01*
X128782857Y-96376666D01*
X128925302Y-96460907D01*
X128925305Y-96460908D01*
X129084216Y-96507077D01*
X129084222Y-96507078D01*
X129121342Y-96509999D01*
X129121358Y-96510000D01*
X129150000Y-96510000D01*
X129150000Y-94890000D01*
X129121342Y-94890000D01*
X129084222Y-94892921D01*
X129084216Y-94892922D01*
X128925305Y-94939091D01*
X128925302Y-94939092D01*
X128782857Y-95023333D01*
X128782849Y-95023339D01*
X128709281Y-95096908D01*
X128647958Y-95130393D01*
X128578266Y-95125409D01*
X128522333Y-95083537D01*
X128497916Y-95018073D01*
X128497600Y-95009227D01*
X128497600Y-92990493D01*
X128497599Y-92990487D01*
X128497491Y-92989944D01*
X128497476Y-92989872D01*
X128482475Y-92914451D01*
X128482475Y-92914450D01*
X128473564Y-92869654D01*
X128473563Y-92869648D01*
X128461939Y-92841585D01*
X128452500Y-92794133D01*
X128452500Y-91974000D01*
X128472185Y-91906961D01*
X128524989Y-91861206D01*
X128576500Y-91850000D01*
X128828500Y-91850000D01*
X128895539Y-91869685D01*
X128941294Y-91922489D01*
X128952500Y-91974000D01*
X128952500Y-92920000D01*
X128953337Y-92920000D01*
X129019838Y-92913957D01*
X129172862Y-92866273D01*
X129235365Y-92828489D01*
X129302920Y-92810652D01*
X129363665Y-92828488D01*
X129426929Y-92866732D01*
X129426933Y-92866734D01*
X129481100Y-92883612D01*
X129580067Y-92914452D01*
X129646619Y-92920500D01*
X130148380Y-92920499D01*
X130148388Y-92920499D01*
X130214926Y-92914453D01*
X130214928Y-92914452D01*
X130214933Y-92914452D01*
X130274032Y-92896035D01*
X130343890Y-92894884D01*
X130403283Y-92931685D01*
X130428852Y-92976103D01*
X130481318Y-93137577D01*
X130481321Y-93137584D01*
X130575967Y-93301516D01*
X130660543Y-93395447D01*
X130702629Y-93442188D01*
X130855765Y-93553448D01*
X130855770Y-93553451D01*
X131028692Y-93630442D01*
X131028697Y-93630444D01*
X131213854Y-93669800D01*
X131273048Y-93669800D01*
X131340087Y-93689485D01*
X131360729Y-93706119D01*
X135733363Y-98078755D01*
X135733367Y-98078758D01*
X135835812Y-98147210D01*
X135835811Y-98147210D01*
X135835813Y-98147211D01*
X135835815Y-98147212D01*
X135875634Y-98163705D01*
X135875635Y-98163706D01*
X135875636Y-98163706D01*
X135949648Y-98194363D01*
X135969697Y-98198351D01*
X135983804Y-98201157D01*
X136070492Y-98218401D01*
X136070494Y-98218401D01*
X136199821Y-98218401D01*
X136199841Y-98218400D01*
X136872159Y-98218400D01*
X136939198Y-98238085D01*
X136984953Y-98290889D01*
X136994897Y-98360047D01*
X136979546Y-98404399D01*
X136966433Y-98427113D01*
X136948145Y-98458788D01*
X136928439Y-98484468D01*
X136569726Y-98843181D01*
X136508403Y-98876666D01*
X136482046Y-98879500D01*
X136346611Y-98879500D01*
X136280073Y-98885546D01*
X136280066Y-98885548D01*
X136126933Y-98933265D01*
X136126929Y-98933267D01*
X136064149Y-98971219D01*
X135996594Y-98989055D01*
X135935851Y-98971219D01*
X135873070Y-98933267D01*
X135873066Y-98933265D01*
X135719933Y-98885548D01*
X135719935Y-98885548D01*
X135693312Y-98883128D01*
X135653381Y-98879500D01*
X135653378Y-98879500D01*
X135151611Y-98879500D01*
X135085073Y-98885546D01*
X135085066Y-98885548D01*
X134931933Y-98933265D01*
X134931929Y-98933267D01*
X134794670Y-99016242D01*
X134794665Y-99016246D01*
X134681246Y-99129665D01*
X134681242Y-99129670D01*
X134598267Y-99266929D01*
X134598265Y-99266933D01*
X134550548Y-99420065D01*
X134550548Y-99420067D01*
X134546965Y-99459500D01*
X134544500Y-99486621D01*
X134544500Y-99622047D01*
X134524815Y-99689086D01*
X134508181Y-99709728D01*
X133694029Y-100523881D01*
X133632706Y-100557366D01*
X133606348Y-100560200D01*
X130478748Y-100560200D01*
X130411709Y-100540515D01*
X130386600Y-100519174D01*
X130380873Y-100512814D01*
X130380869Y-100512810D01*
X130227734Y-100401551D01*
X130227729Y-100401548D01*
X130054807Y-100324557D01*
X130054802Y-100324555D01*
X129909001Y-100293565D01*
X129869646Y-100285200D01*
X129680354Y-100285200D01*
X129647897Y-100292098D01*
X129495197Y-100324555D01*
X129495192Y-100324557D01*
X129322270Y-100401548D01*
X129322265Y-100401551D01*
X129169129Y-100512811D01*
X129042466Y-100653485D01*
X128947821Y-100817415D01*
X128947818Y-100817422D01*
X128889327Y-100997440D01*
X128889326Y-100997444D01*
X128869540Y-101185700D01*
X128889326Y-101373956D01*
X128889327Y-101373959D01*
X128947818Y-101553977D01*
X128947821Y-101553984D01*
X129042467Y-101717916D01*
X129136673Y-101822542D01*
X129169129Y-101858588D01*
X129322265Y-101969848D01*
X129322270Y-101969851D01*
X129495192Y-102046842D01*
X129495197Y-102046844D01*
X129680354Y-102086200D01*
X129680355Y-102086200D01*
X129869644Y-102086200D01*
X129869646Y-102086200D01*
X130054803Y-102046844D01*
X130227730Y-101969851D01*
X130380871Y-101858588D01*
X130383788Y-101855347D01*
X130386600Y-101852226D01*
X130446087Y-101815579D01*
X130478748Y-101811200D01*
X133978407Y-101811200D01*
X134038829Y-101799181D01*
X134099252Y-101787163D01*
X134149296Y-101766434D01*
X134213086Y-101740012D01*
X134264309Y-101705784D01*
X134315533Y-101671558D01*
X134402658Y-101584433D01*
X134402659Y-101584431D01*
X134409725Y-101577365D01*
X134409728Y-101577361D01*
X135430271Y-100556818D01*
X135491594Y-100523333D01*
X135517952Y-100520499D01*
X135653388Y-100520499D01*
X135719926Y-100514453D01*
X135719927Y-100514452D01*
X135719933Y-100514452D01*
X135873069Y-100466733D01*
X135935850Y-100428779D01*
X136003405Y-100410944D01*
X136064149Y-100428779D01*
X136126931Y-100466733D01*
X136126934Y-100466734D01*
X136126933Y-100466734D01*
X136181100Y-100483612D01*
X136280067Y-100514452D01*
X136346619Y-100520500D01*
X136848380Y-100520499D01*
X136848388Y-100520499D01*
X136914926Y-100514453D01*
X136914927Y-100514452D01*
X136914933Y-100514452D01*
X137068069Y-100466733D01*
X137148022Y-100418400D01*
X137205329Y-100383757D01*
X137205330Y-100383755D01*
X137205335Y-100383753D01*
X137249522Y-100339565D01*
X137310843Y-100306081D01*
X137380445Y-100311058D01*
X137357376Y-100257884D01*
X137368635Y-100188928D01*
X137374306Y-100178437D01*
X137401733Y-100133069D01*
X137449452Y-99979933D01*
X137455500Y-99913381D01*
X137455499Y-99856218D01*
X137475182Y-99789181D01*
X137527986Y-99743425D01*
X137597144Y-99733481D01*
X137605263Y-99734926D01*
X137668654Y-99748400D01*
X137668655Y-99748400D01*
X137767700Y-99748400D01*
X137834739Y-99768085D01*
X137880494Y-99820889D01*
X137891700Y-99872400D01*
X137891700Y-100037671D01*
X137872015Y-100104710D01*
X137819211Y-100150465D01*
X137818137Y-100150950D01*
X137759067Y-100177250D01*
X137605929Y-100288511D01*
X137605928Y-100288512D01*
X137572577Y-100325552D01*
X137513090Y-100362200D01*
X137443233Y-100360869D01*
X137438159Y-100357469D01*
X137460886Y-100418400D01*
X137446035Y-100486673D01*
X137444590Y-100489246D01*
X137384620Y-100593118D01*
X137384618Y-100593122D01*
X137329967Y-100761322D01*
X137326126Y-100773144D01*
X137306340Y-100961400D01*
X137326126Y-101149656D01*
X137326127Y-101149659D01*
X137384618Y-101329677D01*
X137384621Y-101329684D01*
X137479267Y-101493616D01*
X137605929Y-101634288D01*
X137759065Y-101745548D01*
X137759070Y-101745551D01*
X137931992Y-101822542D01*
X137931997Y-101822544D01*
X138117154Y-101861900D01*
X138117155Y-101861900D01*
X138306444Y-101861900D01*
X138306446Y-101861900D01*
X138491603Y-101822544D01*
X138664530Y-101745551D01*
X138817671Y-101634288D01*
X138944333Y-101493616D01*
X139038979Y-101329684D01*
X139067519Y-101241844D01*
X139106956Y-101184170D01*
X139171314Y-101156971D01*
X139240160Y-101168885D01*
X139291637Y-101216129D01*
X139308770Y-101267198D01*
X139314326Y-101320056D01*
X139314327Y-101320059D01*
X139372818Y-101500077D01*
X139372821Y-101500084D01*
X139467467Y-101664016D01*
X139578349Y-101787163D01*
X139594129Y-101804688D01*
X139747265Y-101915948D01*
X139747270Y-101915951D01*
X139920192Y-101992942D01*
X139920197Y-101992944D01*
X140105354Y-102032300D01*
X140105355Y-102032300D01*
X140203600Y-102032300D01*
X140270639Y-102051985D01*
X140316394Y-102104789D01*
X140327600Y-102156300D01*
X140327600Y-103830848D01*
X140307915Y-103897887D01*
X140291281Y-103918529D01*
X137177229Y-107032581D01*
X137115906Y-107066066D01*
X137089548Y-107068900D01*
X137030354Y-107068900D01*
X137012947Y-107072600D01*
X136845197Y-107108255D01*
X136845192Y-107108257D01*
X136672270Y-107185248D01*
X136672265Y-107185251D01*
X136519129Y-107296511D01*
X136392466Y-107437185D01*
X136297821Y-107601115D01*
X136297818Y-107601122D01*
X136244698Y-107764611D01*
X136239326Y-107781144D01*
X136219540Y-107969400D01*
X136239326Y-108157656D01*
X136239327Y-108157659D01*
X136297818Y-108337677D01*
X136297821Y-108337684D01*
X136392467Y-108501616D01*
X136519129Y-108642288D01*
X136672265Y-108753548D01*
X136672270Y-108753551D01*
X136845192Y-108830542D01*
X136845197Y-108830544D01*
X137030354Y-108869900D01*
X137030355Y-108869900D01*
X137219644Y-108869900D01*
X137219646Y-108869900D01*
X137404803Y-108830544D01*
X137577730Y-108753551D01*
X137730871Y-108642288D01*
X137857533Y-108501616D01*
X137952179Y-108337684D01*
X138010674Y-108157656D01*
X138028321Y-107989745D01*
X138054905Y-107925132D01*
X138063952Y-107915036D01*
X141344764Y-104634225D01*
X141344771Y-104634219D01*
X141351831Y-104627158D01*
X141351833Y-104627158D01*
X141362819Y-104616172D01*
X141424142Y-104582687D01*
X141493834Y-104587671D01*
X141549767Y-104629543D01*
X141574184Y-104695007D01*
X141574500Y-104703853D01*
X141574500Y-111695933D01*
X141574235Y-111704043D01*
X141558139Y-111949620D01*
X141556021Y-111965701D01*
X141508806Y-112203064D01*
X141504608Y-112218731D01*
X141426812Y-112447911D01*
X141420605Y-112462897D01*
X141313561Y-112679960D01*
X141305451Y-112694007D01*
X141170991Y-112895241D01*
X141161117Y-112908109D01*
X141001540Y-113090071D01*
X140990071Y-113101540D01*
X140808109Y-113261117D01*
X140795241Y-113270991D01*
X140594007Y-113405451D01*
X140579960Y-113413561D01*
X140362897Y-113520605D01*
X140347911Y-113526812D01*
X140118731Y-113604608D01*
X140103064Y-113608806D01*
X139865701Y-113656021D01*
X139849620Y-113658139D01*
X139604043Y-113674235D01*
X139595933Y-113674500D01*
X137439991Y-113674500D01*
X137439266Y-113674498D01*
X131813385Y-113641597D01*
X131746462Y-113621521D01*
X131701016Y-113568450D01*
X131691477Y-113499234D01*
X131720874Y-113435850D01*
X131750182Y-113411348D01*
X132042629Y-113235390D01*
X132042632Y-113235388D01*
X132327509Y-113018831D01*
X132340742Y-113006295D01*
X131316599Y-111982152D01*
X131283114Y-111920829D01*
X131288098Y-111851137D01*
X131319939Y-111803572D01*
X131409564Y-111720412D01*
X131456428Y-111676929D01*
X131486178Y-111639622D01*
X131543366Y-111599482D01*
X131613177Y-111596632D01*
X131670807Y-111629254D01*
X132691556Y-112650002D01*
X132818972Y-112499998D01*
X132818975Y-112499994D01*
X133019781Y-112203827D01*
X133187393Y-111887677D01*
X133187402Y-111887659D01*
X133319850Y-111555239D01*
X133319852Y-111555232D01*
X133415578Y-111210457D01*
X133415584Y-111210431D01*
X133473472Y-110857331D01*
X133473473Y-110857314D01*
X133492847Y-110500002D01*
X133492847Y-110499997D01*
X133473473Y-110142685D01*
X133473472Y-110142668D01*
X133415584Y-109789568D01*
X133415578Y-109789542D01*
X133319852Y-109444767D01*
X133319850Y-109444760D01*
X133187402Y-109112340D01*
X133187393Y-109112322D01*
X133019781Y-108796172D01*
X132818975Y-108500005D01*
X132818964Y-108499991D01*
X132691556Y-108349996D01*
X131670806Y-109370745D01*
X131609483Y-109404230D01*
X131539791Y-109399246D01*
X131486178Y-109360377D01*
X131456424Y-109323066D01*
X131319938Y-109196427D01*
X131284183Y-109136399D01*
X131286558Y-109066569D01*
X131316598Y-109017847D01*
X132340741Y-107993704D01*
X132327504Y-107981163D01*
X132042632Y-107764611D01*
X132042629Y-107764609D01*
X131736009Y-107580123D01*
X131411260Y-107429877D01*
X131411255Y-107429876D01*
X131072144Y-107315616D01*
X130722660Y-107238688D01*
X130366924Y-107200000D01*
X130009075Y-107200000D01*
X129653339Y-107238688D01*
X129303855Y-107315616D01*
X128964744Y-107429876D01*
X128964739Y-107429877D01*
X128639990Y-107580123D01*
X128333370Y-107764609D01*
X128333367Y-107764611D01*
X128048486Y-107981170D01*
X128048485Y-107981171D01*
X128035257Y-107993702D01*
X128035256Y-107993703D01*
X129059401Y-109017848D01*
X129092886Y-109079171D01*
X129087902Y-109148863D01*
X129056061Y-109196427D01*
X128919580Y-109323062D01*
X128919573Y-109323069D01*
X128889818Y-109360380D01*
X128832628Y-109400518D01*
X128762817Y-109403366D01*
X128705192Y-109370745D01*
X127684442Y-108349995D01*
X127684441Y-108349996D01*
X127557033Y-108499992D01*
X127356218Y-108796172D01*
X127188606Y-109112322D01*
X127188597Y-109112340D01*
X127056149Y-109444760D01*
X127056147Y-109444767D01*
X126960421Y-109789542D01*
X126960415Y-109789568D01*
X126902527Y-110142668D01*
X126902526Y-110142685D01*
X126883153Y-110499997D01*
X126883153Y-110500002D01*
X126902526Y-110857314D01*
X126902527Y-110857331D01*
X126960415Y-111210431D01*
X126960421Y-111210457D01*
X127056147Y-111555232D01*
X127056149Y-111555239D01*
X127188597Y-111887659D01*
X127188606Y-111887677D01*
X127356218Y-112203827D01*
X127557024Y-112499994D01*
X127557035Y-112500008D01*
X127684441Y-112650002D01*
X127684442Y-112650002D01*
X128705192Y-111629253D01*
X128766515Y-111595768D01*
X128836207Y-111600752D01*
X128889820Y-111639621D01*
X128919575Y-111676933D01*
X129056060Y-111803571D01*
X129091815Y-111863599D01*
X129089440Y-111933429D01*
X129059400Y-111982151D01*
X128035256Y-113006294D01*
X128048495Y-113018836D01*
X128333367Y-113235388D01*
X128333383Y-113235399D01*
X128593896Y-113392144D01*
X128641191Y-113443573D01*
X128653174Y-113512407D01*
X128626039Y-113576793D01*
X128568402Y-113616287D01*
X128529243Y-113622392D01*
X120744964Y-113576870D01*
X120678041Y-113556794D01*
X120632595Y-113503723D01*
X120623056Y-113434508D01*
X120652453Y-113371123D01*
X120681761Y-113346621D01*
X120866629Y-113235390D01*
X120866632Y-113235388D01*
X121151509Y-113018831D01*
X121164742Y-113006295D01*
X120140599Y-111982152D01*
X120107114Y-111920829D01*
X120112098Y-111851137D01*
X120143939Y-111803572D01*
X120233564Y-111720412D01*
X120280428Y-111676929D01*
X120310178Y-111639622D01*
X120367366Y-111599482D01*
X120437177Y-111596632D01*
X120494807Y-111629254D01*
X121515556Y-112650002D01*
X121642972Y-112499998D01*
X121642975Y-112499994D01*
X121843781Y-112203827D01*
X122011393Y-111887677D01*
X122011402Y-111887659D01*
X122143850Y-111555239D01*
X122143852Y-111555232D01*
X122239578Y-111210457D01*
X122239584Y-111210431D01*
X122297472Y-110857331D01*
X122297473Y-110857314D01*
X122316847Y-110500002D01*
X122316847Y-110499997D01*
X122297473Y-110142685D01*
X122297472Y-110142668D01*
X122239584Y-109789568D01*
X122239578Y-109789542D01*
X122143852Y-109444767D01*
X122143850Y-109444760D01*
X122011402Y-109112340D01*
X122011393Y-109112322D01*
X121843781Y-108796172D01*
X121642975Y-108500005D01*
X121642964Y-108499991D01*
X121515556Y-108349996D01*
X120494806Y-109370745D01*
X120433483Y-109404230D01*
X120363791Y-109399246D01*
X120310178Y-109360377D01*
X120280424Y-109323066D01*
X120143938Y-109196427D01*
X120108183Y-109136399D01*
X120110558Y-109066569D01*
X120140598Y-109017847D01*
X121164741Y-107993704D01*
X121151504Y-107981163D01*
X120866632Y-107764611D01*
X120866629Y-107764609D01*
X120560009Y-107580123D01*
X120235260Y-107429877D01*
X120235255Y-107429876D01*
X119896144Y-107315616D01*
X119546660Y-107238688D01*
X119190924Y-107200000D01*
X118833075Y-107200000D01*
X118477339Y-107238688D01*
X118127855Y-107315616D01*
X117788744Y-107429876D01*
X117788739Y-107429877D01*
X117463990Y-107580123D01*
X117157370Y-107764609D01*
X117157367Y-107764611D01*
X116872486Y-107981170D01*
X116872485Y-107981171D01*
X116859257Y-107993702D01*
X116859256Y-107993703D01*
X117883401Y-109017848D01*
X117916886Y-109079171D01*
X117911902Y-109148863D01*
X117880061Y-109196427D01*
X117743580Y-109323062D01*
X117743573Y-109323069D01*
X117713818Y-109360380D01*
X117656628Y-109400518D01*
X117586817Y-109403366D01*
X117529192Y-109370745D01*
X116508442Y-108349995D01*
X116508441Y-108349996D01*
X116381033Y-108499992D01*
X116180218Y-108796172D01*
X116012606Y-109112322D01*
X116012597Y-109112340D01*
X115880149Y-109444760D01*
X115880147Y-109444767D01*
X115784421Y-109789542D01*
X115784415Y-109789568D01*
X115726527Y-110142668D01*
X115726526Y-110142685D01*
X115707153Y-110499997D01*
X115707153Y-110500002D01*
X115726526Y-110857314D01*
X115726527Y-110857331D01*
X115784415Y-111210431D01*
X115784421Y-111210457D01*
X115880147Y-111555232D01*
X115880149Y-111555239D01*
X116012597Y-111887659D01*
X116012606Y-111887677D01*
X116180218Y-112203827D01*
X116381024Y-112499994D01*
X116381035Y-112500008D01*
X116508441Y-112650002D01*
X116508442Y-112650002D01*
X117529192Y-111629253D01*
X117590515Y-111595768D01*
X117660207Y-111600752D01*
X117713820Y-111639621D01*
X117743575Y-111676933D01*
X117880060Y-111803571D01*
X117915815Y-111863599D01*
X117913440Y-111933429D01*
X117883400Y-111982151D01*
X116859256Y-113006294D01*
X116872495Y-113018836D01*
X117157367Y-113235388D01*
X117157370Y-113235390D01*
X117308205Y-113326144D01*
X117355500Y-113377574D01*
X117367483Y-113446408D01*
X117340348Y-113510794D01*
X117282712Y-113550288D01*
X117243552Y-113556393D01*
X108838191Y-113507239D01*
X108784073Y-113494453D01*
X108620043Y-113413563D01*
X108605995Y-113405453D01*
X108404758Y-113270991D01*
X108391890Y-113261117D01*
X108209928Y-113101540D01*
X108198459Y-113090071D01*
X108038882Y-112908109D01*
X108029008Y-112895241D01*
X108018041Y-112878828D01*
X107894548Y-112694007D01*
X107886438Y-112679960D01*
X107845910Y-112597778D01*
X107779391Y-112462890D01*
X107773187Y-112447911D01*
X107695391Y-112218731D01*
X107691193Y-112203064D01*
X107669897Y-112096003D01*
X107643976Y-111965690D01*
X107641861Y-111949632D01*
X107625765Y-111704043D01*
X107625500Y-111695933D01*
X107625500Y-111499994D01*
X108394357Y-111499994D01*
X108394357Y-111500005D01*
X108414890Y-111747812D01*
X108414892Y-111747824D01*
X108475936Y-111988881D01*
X108575826Y-112216606D01*
X108711833Y-112424782D01*
X108711836Y-112424785D01*
X108880256Y-112607738D01*
X109076491Y-112760474D01*
X109295190Y-112878828D01*
X109530386Y-112959571D01*
X109775665Y-113000500D01*
X110024335Y-113000500D01*
X110269614Y-112959571D01*
X110504810Y-112878828D01*
X110723509Y-112760474D01*
X110919744Y-112607738D01*
X111088164Y-112424785D01*
X111224173Y-112216607D01*
X111324063Y-111988881D01*
X111385108Y-111747821D01*
X111390982Y-111676930D01*
X111405643Y-111500005D01*
X111405643Y-111499994D01*
X111385109Y-111252187D01*
X111385107Y-111252175D01*
X111324063Y-111011118D01*
X111224173Y-110783393D01*
X111088166Y-110575217D01*
X111066557Y-110551744D01*
X110919744Y-110392262D01*
X110723509Y-110239526D01*
X110723507Y-110239525D01*
X110723506Y-110239524D01*
X110504811Y-110121172D01*
X110504802Y-110121169D01*
X110269616Y-110040429D01*
X110024335Y-109999500D01*
X109775665Y-109999500D01*
X109530383Y-110040429D01*
X109295197Y-110121169D01*
X109295188Y-110121172D01*
X109076493Y-110239524D01*
X108880257Y-110392261D01*
X108711833Y-110575217D01*
X108575826Y-110783393D01*
X108475936Y-111011118D01*
X108414892Y-111252175D01*
X108414890Y-111252187D01*
X108394357Y-111499994D01*
X107625500Y-111499994D01*
X107625500Y-105626831D01*
X109087050Y-105626831D01*
X109087050Y-105853168D01*
X109122458Y-106076722D01*
X109122458Y-106076725D01*
X109192398Y-106291978D01*
X109192400Y-106291981D01*
X109295155Y-106493650D01*
X109428193Y-106676761D01*
X109588239Y-106836807D01*
X109771350Y-106969845D01*
X109973019Y-107072600D01*
X109973021Y-107072601D01*
X110082754Y-107108255D01*
X110188279Y-107142542D01*
X110411831Y-107177950D01*
X110411832Y-107177950D01*
X110638168Y-107177950D01*
X110638169Y-107177950D01*
X110861721Y-107142542D01*
X110861724Y-107142541D01*
X110861725Y-107142541D01*
X111076978Y-107072601D01*
X111076978Y-107072600D01*
X111076981Y-107072600D01*
X111278650Y-106969845D01*
X111461761Y-106836807D01*
X111621807Y-106676761D01*
X111754845Y-106493650D01*
X111857600Y-106291981D01*
X111882476Y-106215420D01*
X111927541Y-106076725D01*
X111927541Y-106076724D01*
X111927542Y-106076721D01*
X111962950Y-105853169D01*
X111962950Y-105666540D01*
X112319200Y-105666540D01*
X112319200Y-105813459D01*
X112347858Y-105957534D01*
X112347861Y-105957544D01*
X112404078Y-106093266D01*
X112404083Y-106093275D01*
X112485698Y-106215419D01*
X112485701Y-106215423D01*
X112589576Y-106319298D01*
X112589580Y-106319301D01*
X112711724Y-106400916D01*
X112711730Y-106400919D01*
X112711731Y-106400920D01*
X112847458Y-106457140D01*
X112991540Y-106485799D01*
X112991544Y-106485800D01*
X112991545Y-106485800D01*
X113138456Y-106485800D01*
X113138457Y-106485799D01*
X113282542Y-106457140D01*
X113418269Y-106400920D01*
X113540420Y-106319301D01*
X113644301Y-106215420D01*
X113725920Y-106093269D01*
X113782140Y-105957542D01*
X113810800Y-105813455D01*
X113810800Y-105666545D01*
X113802901Y-105626831D01*
X114167050Y-105626831D01*
X114167050Y-105853168D01*
X114202458Y-106076722D01*
X114202458Y-106076725D01*
X114272398Y-106291978D01*
X114272400Y-106291981D01*
X114375155Y-106493650D01*
X114508193Y-106676761D01*
X114668239Y-106836807D01*
X114851350Y-106969845D01*
X115053019Y-107072600D01*
X115053021Y-107072601D01*
X115162754Y-107108255D01*
X115268279Y-107142542D01*
X115491831Y-107177950D01*
X115491832Y-107177950D01*
X115718168Y-107177950D01*
X115718169Y-107177950D01*
X115941721Y-107142542D01*
X115941724Y-107142541D01*
X115941725Y-107142541D01*
X116156978Y-107072601D01*
X116156978Y-107072600D01*
X116156981Y-107072600D01*
X116358650Y-106969845D01*
X116541761Y-106836807D01*
X116701807Y-106676761D01*
X116834845Y-106493650D01*
X116937600Y-106291981D01*
X116962476Y-106215420D01*
X117007541Y-106076725D01*
X117007541Y-106076724D01*
X117007542Y-106076721D01*
X117042950Y-105853169D01*
X117042950Y-105626831D01*
X117007542Y-105403279D01*
X117007541Y-105403275D01*
X117007541Y-105403274D01*
X116937601Y-105188021D01*
X116937599Y-105188018D01*
X116923681Y-105160701D01*
X116834845Y-104986350D01*
X116701807Y-104803239D01*
X116541761Y-104643193D01*
X116358650Y-104510155D01*
X116156981Y-104407400D01*
X116156978Y-104407398D01*
X115941723Y-104337458D01*
X115792686Y-104313852D01*
X115718169Y-104302050D01*
X115491831Y-104302050D01*
X115417313Y-104313852D01*
X115268277Y-104337458D01*
X115268274Y-104337458D01*
X115053021Y-104407398D01*
X115053018Y-104407400D01*
X114851349Y-104510155D01*
X114810226Y-104540033D01*
X114668239Y-104643193D01*
X114668237Y-104643195D01*
X114668236Y-104643195D01*
X114508195Y-104803236D01*
X114508195Y-104803237D01*
X114508193Y-104803239D01*
X114451058Y-104881878D01*
X114375155Y-104986349D01*
X114272400Y-105188018D01*
X114272398Y-105188021D01*
X114202458Y-105403274D01*
X114202458Y-105403277D01*
X114167050Y-105626831D01*
X113802901Y-105626831D01*
X113782140Y-105522458D01*
X113725920Y-105386731D01*
X113725919Y-105386730D01*
X113725916Y-105386724D01*
X113644301Y-105264580D01*
X113644298Y-105264576D01*
X113540423Y-105160701D01*
X113540419Y-105160698D01*
X113418275Y-105079083D01*
X113418266Y-105079078D01*
X113282544Y-105022861D01*
X113282545Y-105022861D01*
X113282542Y-105022860D01*
X113282538Y-105022859D01*
X113282534Y-105022858D01*
X113138459Y-104994200D01*
X113138455Y-104994200D01*
X112991545Y-104994200D01*
X112991540Y-104994200D01*
X112847465Y-105022858D01*
X112847455Y-105022861D01*
X112711733Y-105079078D01*
X112711724Y-105079083D01*
X112589580Y-105160698D01*
X112589576Y-105160701D01*
X112485701Y-105264576D01*
X112485698Y-105264580D01*
X112404083Y-105386724D01*
X112404078Y-105386733D01*
X112347861Y-105522455D01*
X112347858Y-105522465D01*
X112319200Y-105666540D01*
X111962950Y-105666540D01*
X111962950Y-105626831D01*
X111927542Y-105403279D01*
X111927541Y-105403275D01*
X111927541Y-105403274D01*
X111857601Y-105188021D01*
X111857599Y-105188018D01*
X111843681Y-105160701D01*
X111754845Y-104986350D01*
X111621807Y-104803239D01*
X111461761Y-104643193D01*
X111278650Y-104510155D01*
X111076981Y-104407400D01*
X111076978Y-104407398D01*
X110861723Y-104337458D01*
X110712686Y-104313852D01*
X110638169Y-104302050D01*
X110411831Y-104302050D01*
X110337313Y-104313852D01*
X110188277Y-104337458D01*
X110188274Y-104337458D01*
X109973021Y-104407398D01*
X109973018Y-104407400D01*
X109771349Y-104510155D01*
X109730226Y-104540033D01*
X109588239Y-104643193D01*
X109588237Y-104643195D01*
X109588236Y-104643195D01*
X109428195Y-104803236D01*
X109428195Y-104803237D01*
X109428193Y-104803239D01*
X109371058Y-104881878D01*
X109295155Y-104986349D01*
X109192400Y-105188018D01*
X109192398Y-105188021D01*
X109122458Y-105403274D01*
X109122458Y-105403277D01*
X109087050Y-105626831D01*
X107625500Y-105626831D01*
X107625500Y-101549054D01*
X107645185Y-101482015D01*
X107697989Y-101436260D01*
X107767147Y-101426316D01*
X107830703Y-101455341D01*
X107837181Y-101461373D01*
X107871886Y-101496078D01*
X107871908Y-101496098D01*
X109316416Y-102940606D01*
X109316445Y-102940637D01*
X109406664Y-103030856D01*
X109406667Y-103030858D01*
X109457890Y-103065084D01*
X109509114Y-103099312D01*
X109509115Y-103099312D01*
X109509116Y-103099313D01*
X109526077Y-103106338D01*
X109589607Y-103132652D01*
X109622948Y-103146463D01*
X109637129Y-103149283D01*
X109663071Y-103154444D01*
X109663091Y-103154447D01*
X109663113Y-103154452D01*
X109743791Y-103170499D01*
X109743792Y-103170500D01*
X109743793Y-103170500D01*
X113691108Y-103170500D01*
X113691108Y-103170499D01*
X113769729Y-103154861D01*
X113839318Y-103161088D01*
X113894496Y-103203950D01*
X113917239Y-103263515D01*
X113935626Y-103438456D01*
X113935627Y-103438459D01*
X113994118Y-103618477D01*
X113994121Y-103618484D01*
X114088767Y-103782416D01*
X114178183Y-103881722D01*
X114215429Y-103923088D01*
X114368565Y-104034348D01*
X114368570Y-104034351D01*
X114541492Y-104111342D01*
X114541497Y-104111344D01*
X114726654Y-104150700D01*
X114726655Y-104150700D01*
X114915944Y-104150700D01*
X114915946Y-104150700D01*
X115101103Y-104111344D01*
X115274030Y-104034351D01*
X115276076Y-104032864D01*
X115287752Y-104024382D01*
X115353558Y-104000902D01*
X115360637Y-104000700D01*
X117295220Y-104000700D01*
X117392762Y-103981296D01*
X117440213Y-103971858D01*
X117545847Y-103928102D01*
X117576788Y-103915287D01*
X117576788Y-103915286D01*
X117576795Y-103915284D01*
X117576801Y-103915280D01*
X117627032Y-103881717D01*
X117627034Y-103881716D01*
X117699710Y-103833156D01*
X117699709Y-103833156D01*
X117699716Y-103833152D01*
X120632866Y-100900000D01*
X124894540Y-100900000D01*
X124914326Y-101088256D01*
X124914327Y-101088259D01*
X124972818Y-101268277D01*
X124972821Y-101268284D01*
X125067467Y-101432216D01*
X125177108Y-101553984D01*
X125194129Y-101572888D01*
X125347265Y-101684148D01*
X125347266Y-101684148D01*
X125347270Y-101684151D01*
X125407271Y-101710865D01*
X125416928Y-101715165D01*
X125454173Y-101740763D01*
X126043181Y-102329771D01*
X126076666Y-102391094D01*
X126079500Y-102417451D01*
X126079500Y-102553388D01*
X126085546Y-102619926D01*
X126085548Y-102619933D01*
X126133265Y-102773066D01*
X126133267Y-102773070D01*
X126171219Y-102835851D01*
X126189055Y-102903406D01*
X126171219Y-102964149D01*
X126133267Y-103026929D01*
X126133265Y-103026933D01*
X126085548Y-103180065D01*
X126079500Y-103246621D01*
X126079500Y-103748388D01*
X126085546Y-103814926D01*
X126085548Y-103814933D01*
X126133265Y-103968066D01*
X126133267Y-103968070D01*
X126216242Y-104105329D01*
X126216246Y-104105334D01*
X126329665Y-104218753D01*
X126329670Y-104218757D01*
X126466929Y-104301732D01*
X126466933Y-104301734D01*
X126521100Y-104318612D01*
X126620067Y-104349452D01*
X126686619Y-104355500D01*
X127113380Y-104355499D01*
X127113388Y-104355499D01*
X127179926Y-104349453D01*
X127179927Y-104349452D01*
X127179933Y-104349452D01*
X127333069Y-104301733D01*
X127462453Y-104223518D01*
X127470329Y-104218757D01*
X127470330Y-104218755D01*
X127470335Y-104218753D01*
X127529269Y-104159819D01*
X127590592Y-104126334D01*
X127616950Y-104123500D01*
X127827547Y-104123500D01*
X127894586Y-104143185D01*
X127915228Y-104159819D01*
X127951039Y-104195630D01*
X127984524Y-104256953D01*
X127986678Y-104270343D01*
X128004326Y-104438256D01*
X128004327Y-104438259D01*
X128062818Y-104618277D01*
X128062821Y-104618284D01*
X128157467Y-104782216D01*
X128284129Y-104922888D01*
X128437265Y-105034148D01*
X128437270Y-105034151D01*
X128610192Y-105111142D01*
X128610197Y-105111144D01*
X128795354Y-105150500D01*
X128795355Y-105150500D01*
X128984644Y-105150500D01*
X128984646Y-105150500D01*
X129169803Y-105111144D01*
X129342730Y-105034151D01*
X129495871Y-104922888D01*
X129622533Y-104782216D01*
X129717179Y-104618284D01*
X129775674Y-104438256D01*
X129795460Y-104250000D01*
X129775674Y-104061744D01*
X129717179Y-103881716D01*
X129622533Y-103717784D01*
X129495871Y-103577112D01*
X129495870Y-103577111D01*
X129342734Y-103465851D01*
X129342729Y-103465848D01*
X129169807Y-103388857D01*
X129169802Y-103388855D01*
X129024001Y-103357865D01*
X128984646Y-103349500D01*
X128984645Y-103349500D01*
X128925452Y-103349500D01*
X128858413Y-103329815D01*
X128837771Y-103313181D01*
X128630928Y-103106338D01*
X128630925Y-103106334D01*
X128630925Y-103106335D01*
X128623858Y-103099268D01*
X128623858Y-103099267D01*
X128536733Y-103012142D01*
X128536732Y-103012141D01*
X128536731Y-103012140D01*
X128485509Y-102977915D01*
X128434287Y-102943689D01*
X128434286Y-102943688D01*
X128434283Y-102943686D01*
X128434280Y-102943685D01*
X128353763Y-102910335D01*
X128320454Y-102896538D01*
X128320455Y-102896538D01*
X128320452Y-102896537D01*
X128320448Y-102896536D01*
X128320444Y-102896535D01*
X128246944Y-102881915D01*
X128246943Y-102881915D01*
X128199611Y-102872500D01*
X128199607Y-102872500D01*
X128199606Y-102872500D01*
X127804270Y-102872500D01*
X127737231Y-102852815D01*
X127691476Y-102800011D01*
X127681532Y-102730853D01*
X127685884Y-102711610D01*
X127714452Y-102619933D01*
X127720500Y-102553381D01*
X127720499Y-102051620D01*
X127720499Y-102051611D01*
X127714453Y-101985073D01*
X127714452Y-101985070D01*
X127714452Y-101985067D01*
X127666733Y-101831931D01*
X127666732Y-101831929D01*
X127583757Y-101694670D01*
X127583753Y-101694665D01*
X127470334Y-101581246D01*
X127470329Y-101581242D01*
X127333070Y-101498267D01*
X127333066Y-101498265D01*
X127179933Y-101450548D01*
X127179935Y-101450548D01*
X127153312Y-101448128D01*
X127113381Y-101444500D01*
X127113378Y-101444500D01*
X126978452Y-101444500D01*
X126911413Y-101424815D01*
X126890771Y-101408181D01*
X126711245Y-101228655D01*
X126677760Y-101167332D01*
X126680996Y-101102653D01*
X126681277Y-101101786D01*
X126685674Y-101088256D01*
X126705460Y-100900000D01*
X126685674Y-100711744D01*
X126627179Y-100531716D01*
X126532533Y-100367784D01*
X126405871Y-100227112D01*
X126405870Y-100227111D01*
X126252734Y-100115851D01*
X126252729Y-100115848D01*
X126079807Y-100038857D01*
X126079802Y-100038855D01*
X125926972Y-100006371D01*
X125894646Y-99999500D01*
X125705354Y-99999500D01*
X125673028Y-100006371D01*
X125520197Y-100038855D01*
X125520192Y-100038857D01*
X125347270Y-100115848D01*
X125347265Y-100115851D01*
X125194129Y-100227111D01*
X125067466Y-100367785D01*
X124972821Y-100531715D01*
X124972818Y-100531722D01*
X124929452Y-100665190D01*
X124914326Y-100711744D01*
X124894540Y-100900000D01*
X120632866Y-100900000D01*
X121552770Y-99980095D01*
X121614091Y-99946612D01*
X121614427Y-99946539D01*
X121679803Y-99932644D01*
X121852730Y-99855651D01*
X122005871Y-99744388D01*
X122132533Y-99603716D01*
X122215265Y-99460418D01*
X122265831Y-99412204D01*
X122334438Y-99398980D01*
X122370100Y-99407856D01*
X122389596Y-99415931D01*
X122389598Y-99415933D01*
X122436743Y-99435461D01*
X122436748Y-99435463D01*
X122455614Y-99439215D01*
X122455615Y-99439216D01*
X122455616Y-99439216D01*
X122557591Y-99459501D01*
X122557594Y-99459501D01*
X122686921Y-99459501D01*
X122686941Y-99459500D01*
X125357008Y-99459500D01*
X125357008Y-99459499D01*
X125456128Y-99439784D01*
X125477852Y-99435463D01*
X125517807Y-99418913D01*
X125591686Y-99388312D01*
X125642909Y-99354084D01*
X125694133Y-99319858D01*
X125781258Y-99232733D01*
X125781260Y-99232729D01*
X125931672Y-99082317D01*
X125992995Y-99048834D01*
X126019352Y-99046000D01*
X126078544Y-99046000D01*
X126078546Y-99046000D01*
X126263703Y-99006644D01*
X126436630Y-98929651D01*
X126589771Y-98818388D01*
X126716433Y-98677716D01*
X126811079Y-98513784D01*
X126869574Y-98333756D01*
X126889360Y-98145500D01*
X126869574Y-97957244D01*
X126867220Y-97950000D01*
X127534770Y-97950000D01*
X127535421Y-97958281D01*
X127581590Y-98117194D01*
X127581592Y-98117197D01*
X127665833Y-98259642D01*
X127665839Y-98259650D01*
X127782849Y-98376660D01*
X127782857Y-98376666D01*
X127925302Y-98460907D01*
X127925305Y-98460908D01*
X128084216Y-98507077D01*
X128084222Y-98507078D01*
X128121342Y-98509999D01*
X128121358Y-98510000D01*
X128150000Y-98510000D01*
X128150000Y-98381204D01*
X128169685Y-98314165D01*
X128203584Y-98284790D01*
X128200867Y-98283187D01*
X128345779Y-98283187D01*
X128355203Y-98287491D01*
X128392977Y-98346269D01*
X128397319Y-98368237D01*
X128408326Y-98472956D01*
X128408327Y-98472959D01*
X128466818Y-98652977D01*
X128466821Y-98652984D01*
X128561467Y-98816916D01*
X128666230Y-98933267D01*
X128688129Y-98957588D01*
X128841265Y-99068848D01*
X128841270Y-99068851D01*
X129014192Y-99145842D01*
X129014197Y-99145844D01*
X129199354Y-99185200D01*
X129199355Y-99185200D01*
X129388644Y-99185200D01*
X129388646Y-99185200D01*
X129573803Y-99145844D01*
X129725065Y-99078496D01*
X129794313Y-99069212D01*
X129857590Y-99098839D01*
X129894804Y-99157974D01*
X129899500Y-99191776D01*
X129899500Y-99486668D01*
X129899501Y-99486687D01*
X129909825Y-99587752D01*
X129943137Y-99688279D01*
X129964092Y-99751516D01*
X130054660Y-99898350D01*
X130176650Y-100020340D01*
X130323484Y-100110908D01*
X130487247Y-100165174D01*
X130588323Y-100175500D01*
X131286676Y-100175499D01*
X131286684Y-100175498D01*
X131286687Y-100175498D01*
X131342030Y-100169844D01*
X131387753Y-100165174D01*
X131551516Y-100110908D01*
X131698350Y-100020340D01*
X131712319Y-100006371D01*
X131773642Y-99972886D01*
X131843334Y-99977870D01*
X131887681Y-100006371D01*
X131901650Y-100020340D01*
X132048484Y-100110908D01*
X132212247Y-100165174D01*
X132313323Y-100175500D01*
X133011676Y-100175499D01*
X133011684Y-100175498D01*
X133011687Y-100175498D01*
X133067030Y-100169844D01*
X133112753Y-100165174D01*
X133276516Y-100110908D01*
X133423350Y-100020340D01*
X133545340Y-99898350D01*
X133635908Y-99751516D01*
X133690174Y-99587753D01*
X133700500Y-99486677D01*
X133700499Y-98913324D01*
X133698860Y-98897282D01*
X133690174Y-98812247D01*
X133679857Y-98781114D01*
X133635908Y-98648484D01*
X133545340Y-98501650D01*
X133423350Y-98379660D01*
X133423349Y-98379659D01*
X133420731Y-98377041D01*
X133387247Y-98315718D01*
X133386795Y-98313546D01*
X133384159Y-98300291D01*
X133384156Y-98300282D01*
X133327586Y-98163708D01*
X133315420Y-98145500D01*
X133310396Y-98137982D01*
X133289520Y-98071306D01*
X133289500Y-98069093D01*
X133289500Y-97388212D01*
X133265386Y-97266988D01*
X133265385Y-97266987D01*
X133265385Y-97266983D01*
X133263560Y-97262577D01*
X133218086Y-97152791D01*
X133218079Y-97152778D01*
X133149412Y-97050011D01*
X133107845Y-97008444D01*
X133062008Y-96962607D01*
X131390843Y-95291442D01*
X131357358Y-95230119D01*
X131360594Y-95165441D01*
X131385674Y-95088256D01*
X131405460Y-94900000D01*
X131385674Y-94711744D01*
X131327179Y-94531716D01*
X131232533Y-94367784D01*
X131105871Y-94227112D01*
X131103025Y-94225044D01*
X130952734Y-94115851D01*
X130952729Y-94115848D01*
X130779807Y-94038857D01*
X130779802Y-94038855D01*
X130634001Y-94007865D01*
X130594646Y-93999500D01*
X130405354Y-93999500D01*
X130372897Y-94006398D01*
X130220197Y-94038855D01*
X130220192Y-94038857D01*
X130047270Y-94115848D01*
X130047265Y-94115851D01*
X129894129Y-94227111D01*
X129767466Y-94367785D01*
X129672821Y-94531715D01*
X129672818Y-94531722D01*
X129621820Y-94688680D01*
X129614326Y-94711744D01*
X129594540Y-94900000D01*
X129614326Y-95088256D01*
X129614327Y-95088259D01*
X129643931Y-95179370D01*
X129650000Y-95217688D01*
X129650000Y-96510000D01*
X129678642Y-96510000D01*
X129678657Y-96509999D01*
X129715777Y-96507078D01*
X129715783Y-96507077D01*
X129874694Y-96460908D01*
X129874702Y-96460905D01*
X129903886Y-96443646D01*
X129971609Y-96426462D01*
X130030128Y-96443644D01*
X130060100Y-96461370D01*
X130102041Y-96473555D01*
X130219137Y-96507575D01*
X130219140Y-96507575D01*
X130219142Y-96507576D01*
X130256297Y-96510500D01*
X130783700Y-96510499D01*
X130850739Y-96530183D01*
X130871381Y-96546818D01*
X131998181Y-97673618D01*
X132031666Y-97734941D01*
X132034500Y-97761299D01*
X132034500Y-98069342D01*
X132014815Y-98136381D01*
X132013621Y-98138204D01*
X132008716Y-98145545D01*
X131996918Y-98163202D01*
X131996914Y-98163209D01*
X131940341Y-98299789D01*
X131937454Y-98314304D01*
X131905067Y-98376214D01*
X131903518Y-98377790D01*
X131887680Y-98393628D01*
X131826357Y-98427113D01*
X131756665Y-98422129D01*
X131712318Y-98393628D01*
X131698351Y-98379661D01*
X131698350Y-98379660D01*
X131551516Y-98289092D01*
X131468064Y-98261438D01*
X131419454Y-98231478D01*
X131381217Y-98193298D01*
X131376114Y-98188195D01*
X131334157Y-98146237D01*
X131333393Y-98145545D01*
X131326069Y-98138232D01*
X131043544Y-97856125D01*
X131043478Y-97856059D01*
X131000015Y-97812595D01*
X130999649Y-97812295D01*
X130999647Y-97812293D01*
X130948543Y-97778201D01*
X130948482Y-97778128D01*
X130948468Y-97778151D01*
X130897233Y-97743917D01*
X130897231Y-97743916D01*
X130897225Y-97743912D01*
X130897218Y-97743908D01*
X130897111Y-97743851D01*
X130896828Y-97743700D01*
X130839673Y-97720074D01*
X130839603Y-97720018D01*
X130839594Y-97720041D01*
X130795844Y-97701920D01*
X130783035Y-97696615D01*
X130783033Y-97696614D01*
X130783032Y-97696614D01*
X130782900Y-97696574D01*
X130782593Y-97696480D01*
X130721452Y-97684365D01*
X130721453Y-97684356D01*
X130721362Y-97684347D01*
X130712987Y-97682681D01*
X130661786Y-97672496D01*
X130661350Y-97672453D01*
X130599583Y-97672499D01*
X130599536Y-97672500D01*
X130526999Y-97672500D01*
X130459960Y-97652815D01*
X130414205Y-97600011D01*
X130402999Y-97548500D01*
X130402999Y-97478809D01*
X130402998Y-97478784D01*
X130400990Y-97453266D01*
X130400076Y-97441642D01*
X130353870Y-97282600D01*
X130291607Y-97177320D01*
X130269565Y-97140049D01*
X130269558Y-97140040D01*
X130152459Y-97022941D01*
X130152450Y-97022934D01*
X130035228Y-96953609D01*
X130009900Y-96938630D01*
X130009899Y-96938629D01*
X130009898Y-96938629D01*
X130009895Y-96938628D01*
X129850862Y-96892424D01*
X129850856Y-96892423D01*
X129813703Y-96889500D01*
X129256309Y-96889500D01*
X129256284Y-96889501D01*
X129219141Y-96892424D01*
X129060104Y-96938628D01*
X129060096Y-96938631D01*
X129030127Y-96956355D01*
X128962403Y-96973536D01*
X128903889Y-96956355D01*
X128874699Y-96939093D01*
X128874694Y-96939091D01*
X128715783Y-96892922D01*
X128715777Y-96892921D01*
X128678657Y-96890000D01*
X128650000Y-96890000D01*
X128650000Y-97606558D01*
X128630315Y-97673597D01*
X128618151Y-97689529D01*
X128561468Y-97752482D01*
X128561464Y-97752487D01*
X128466821Y-97916415D01*
X128466818Y-97916422D01*
X128411842Y-98085623D01*
X128408326Y-98096444D01*
X128397320Y-98201158D01*
X128370736Y-98265771D01*
X128345779Y-98283187D01*
X128200867Y-98283187D01*
X128183446Y-98272907D01*
X128152023Y-98210502D01*
X128150000Y-98188195D01*
X128150000Y-97950000D01*
X127534770Y-97950000D01*
X126867220Y-97950000D01*
X126811079Y-97777216D01*
X126716433Y-97613284D01*
X126589771Y-97472612D01*
X126589770Y-97472611D01*
X126436634Y-97361351D01*
X126436629Y-97361348D01*
X126263707Y-97284357D01*
X126263702Y-97284355D01*
X126117901Y-97253365D01*
X126078546Y-97245000D01*
X125889254Y-97245000D01*
X125856797Y-97251898D01*
X125704097Y-97284355D01*
X125704092Y-97284357D01*
X125531171Y-97361348D01*
X125436972Y-97429787D01*
X125371165Y-97453266D01*
X125303111Y-97437440D01*
X125256698Y-97391464D01*
X125252035Y-97383388D01*
X125252033Y-97383384D01*
X125168371Y-97290468D01*
X125166507Y-97286585D01*
X125116752Y-97232693D01*
X125108653Y-97230315D01*
X125102807Y-97226318D01*
X124972234Y-97131451D01*
X124972229Y-97131448D01*
X124799307Y-97054457D01*
X124799302Y-97054455D01*
X124651021Y-97022938D01*
X124614146Y-97015100D01*
X124424854Y-97015100D01*
X124387979Y-97022938D01*
X124239699Y-97054455D01*
X124191936Y-97075721D01*
X124122686Y-97085005D01*
X124059409Y-97055377D01*
X124022196Y-96996242D01*
X124017500Y-96962441D01*
X124017500Y-96750000D01*
X124517500Y-96750000D01*
X125132730Y-96750000D01*
X125132078Y-96741718D01*
X125085909Y-96582805D01*
X125085907Y-96582802D01*
X125001666Y-96440357D01*
X125001660Y-96440349D01*
X124884650Y-96323339D01*
X124884642Y-96323333D01*
X124742197Y-96239092D01*
X124742194Y-96239091D01*
X124583283Y-96192922D01*
X124583277Y-96192921D01*
X124546157Y-96190000D01*
X124517500Y-96190000D01*
X124517500Y-96750000D01*
X124017500Y-96750000D01*
X124017500Y-96190000D01*
X123988842Y-96190000D01*
X123951722Y-96192921D01*
X123951716Y-96192922D01*
X123792804Y-96239091D01*
X123792800Y-96239093D01*
X123763609Y-96256356D01*
X123695884Y-96273536D01*
X123637369Y-96256354D01*
X123628461Y-96251086D01*
X123607400Y-96238630D01*
X123607399Y-96238629D01*
X123607398Y-96238629D01*
X123607395Y-96238628D01*
X123448362Y-96192424D01*
X123448356Y-96192423D01*
X123411203Y-96189500D01*
X122853809Y-96189500D01*
X122853784Y-96189501D01*
X122816645Y-96192423D01*
X122657599Y-96238630D01*
X122515049Y-96322934D01*
X122515040Y-96322941D01*
X122397941Y-96440040D01*
X122397934Y-96440049D01*
X122313629Y-96582601D01*
X122313628Y-96582604D01*
X122277543Y-96706809D01*
X122239937Y-96765695D01*
X122176464Y-96794901D01*
X122107278Y-96785155D01*
X122070786Y-96759895D01*
X119434315Y-94123425D01*
X119400830Y-94062102D01*
X119405814Y-93992410D01*
X119447686Y-93936477D01*
X119513150Y-93912060D01*
X119521996Y-93911744D01*
X121983867Y-93911744D01*
X122050906Y-93931429D01*
X122076015Y-93952771D01*
X122081743Y-93959132D01*
X122094129Y-93972888D01*
X122094130Y-93972889D01*
X122247265Y-94084148D01*
X122247270Y-94084151D01*
X122420192Y-94161142D01*
X122420197Y-94161144D01*
X122605354Y-94200500D01*
X122605355Y-94200500D01*
X122794644Y-94200500D01*
X122794646Y-94200500D01*
X122979803Y-94161144D01*
X123152730Y-94084151D01*
X123305871Y-93972888D01*
X123432533Y-93832216D01*
X123527179Y-93668284D01*
X123585674Y-93488256D01*
X123605460Y-93300000D01*
X123585674Y-93111744D01*
X123527179Y-92931716D01*
X123432533Y-92767784D01*
X123305871Y-92627112D01*
X123295694Y-92619718D01*
X123152734Y-92515851D01*
X123152729Y-92515848D01*
X122979807Y-92438857D01*
X122979802Y-92438855D01*
X122834001Y-92407865D01*
X122794646Y-92399500D01*
X122605354Y-92399500D01*
X122572897Y-92406398D01*
X122420197Y-92438855D01*
X122420192Y-92438857D01*
X122247270Y-92515848D01*
X122247265Y-92515851D01*
X122094135Y-92627107D01*
X122094131Y-92627110D01*
X122094131Y-92627111D01*
X122092151Y-92628894D01*
X122090751Y-92629565D01*
X122088871Y-92630932D01*
X122088621Y-92630588D01*
X122029159Y-92659124D01*
X122009178Y-92660744D01*
X119517504Y-92660744D01*
X119450465Y-92641059D01*
X119425356Y-92619718D01*
X119419629Y-92613358D01*
X119419625Y-92613354D01*
X119266490Y-92502095D01*
X119266485Y-92502092D01*
X119093563Y-92425101D01*
X119093558Y-92425099D01*
X118923979Y-92389055D01*
X118908402Y-92385744D01*
X118719110Y-92385744D01*
X118647014Y-92401068D01*
X118577347Y-92395752D01*
X118521614Y-92353614D01*
X118503303Y-92318095D01*
X118491690Y-92282353D01*
X118491688Y-92282349D01*
X118491687Y-92282345D01*
X118397041Y-92118413D01*
X118270379Y-91977741D01*
X118264491Y-91973463D01*
X118117242Y-91866480D01*
X118117237Y-91866477D01*
X117944315Y-91789486D01*
X117944310Y-91789484D01*
X117798509Y-91758494D01*
X117759154Y-91750129D01*
X117569862Y-91750129D01*
X117537405Y-91757027D01*
X117384705Y-91789484D01*
X117384700Y-91789486D01*
X117211778Y-91866477D01*
X117211774Y-91866479D01*
X117068693Y-91970433D01*
X117002887Y-91993912D01*
X116934833Y-91978086D01*
X116886139Y-91927980D01*
X116877878Y-91908431D01*
X116872482Y-91891824D01*
X116872480Y-91891820D01*
X116872479Y-91891816D01*
X116777833Y-91727884D01*
X116651171Y-91587212D01*
X116651170Y-91587211D01*
X116646822Y-91582382D01*
X116648539Y-91580835D01*
X116617437Y-91530341D01*
X116618774Y-91460484D01*
X116649376Y-91410012D01*
X117128573Y-90930816D01*
X117189895Y-90897334D01*
X117216253Y-90894500D01*
X120596807Y-90894500D01*
X120657229Y-90882481D01*
X120717652Y-90870463D01*
X120717655Y-90870461D01*
X120717658Y-90870461D01*
X120750987Y-90856654D01*
X120750986Y-90856654D01*
X120750992Y-90856652D01*
X120831486Y-90823312D01*
X120898676Y-90778416D01*
X120933933Y-90754858D01*
X121021058Y-90667733D01*
X121021059Y-90667731D01*
X121028125Y-90660665D01*
X121028127Y-90660661D01*
X121413270Y-90275519D01*
X121474591Y-90242036D01*
X121475072Y-90241932D01*
X121629803Y-90209044D01*
X121802730Y-90132051D01*
X121955871Y-90020788D01*
X121998802Y-89973108D01*
X122058287Y-89936460D01*
X122128144Y-89937790D01*
G37*
%TD.AperFunction*%
%TA.AperFunction,Conductor*%
G36*
X114607034Y-92868770D02*
G01*
X114662967Y-92910642D01*
X114687384Y-92976106D01*
X114687700Y-92984952D01*
X114687700Y-96764393D01*
X114687700Y-96887607D01*
X114689032Y-96894300D01*
X114690066Y-96899499D01*
X114690066Y-96899508D01*
X114711735Y-97008444D01*
X114711739Y-97008458D01*
X114717736Y-97022937D01*
X114717737Y-97022938D01*
X114758885Y-97122280D01*
X114758886Y-97122282D01*
X114758888Y-97122286D01*
X114779268Y-97152786D01*
X114827340Y-97224731D01*
X114827341Y-97224732D01*
X114827342Y-97224733D01*
X114914467Y-97311858D01*
X114914468Y-97311858D01*
X114921535Y-97318925D01*
X114921534Y-97318925D01*
X114921538Y-97318928D01*
X116008535Y-98405926D01*
X116042020Y-98467249D01*
X116037036Y-98536941D01*
X115995164Y-98592874D01*
X115929700Y-98617291D01*
X115901456Y-98616080D01*
X115754939Y-98592874D01*
X115718169Y-98587050D01*
X115491831Y-98587050D01*
X115428335Y-98597107D01*
X115268277Y-98622458D01*
X115268274Y-98622458D01*
X115053021Y-98692398D01*
X115053018Y-98692400D01*
X114851349Y-98795155D01*
X114746878Y-98871058D01*
X114668239Y-98928193D01*
X114668237Y-98928195D01*
X114668236Y-98928195D01*
X114508195Y-99088236D01*
X114508195Y-99088237D01*
X114508193Y-99088239D01*
X114465900Y-99146450D01*
X114375155Y-99271349D01*
X114272400Y-99473018D01*
X114272398Y-99473021D01*
X114202458Y-99688274D01*
X114202458Y-99688277D01*
X114173295Y-99872400D01*
X114167050Y-99911831D01*
X114167050Y-100138169D01*
X114172963Y-100175499D01*
X114202458Y-100361722D01*
X114202458Y-100361725D01*
X114272398Y-100576978D01*
X114272400Y-100576981D01*
X114375155Y-100778650D01*
X114508193Y-100961761D01*
X114508195Y-100961763D01*
X114511057Y-100965702D01*
X114509432Y-100966881D01*
X114534548Y-101022921D01*
X114524115Y-101092008D01*
X114477987Y-101144486D01*
X114411688Y-101163699D01*
X114323694Y-101163699D01*
X114222897Y-101183748D01*
X114222892Y-101183748D01*
X114202849Y-101187736D01*
X114163243Y-101204142D01*
X114163242Y-101204142D01*
X114089021Y-101234884D01*
X114089008Y-101234891D01*
X113986567Y-101303341D01*
X113986563Y-101303344D01*
X113406729Y-101883181D01*
X113345406Y-101916666D01*
X113319048Y-101919500D01*
X112598684Y-101919500D01*
X112531645Y-101899815D01*
X112485890Y-101847011D01*
X112475363Y-101782539D01*
X112477055Y-101766437D01*
X112485089Y-101690000D01*
X112465303Y-101501744D01*
X112406808Y-101321716D01*
X112312162Y-101157784D01*
X112185500Y-101017112D01*
X112185499Y-101017111D01*
X112032363Y-100905851D01*
X112032361Y-100905850D01*
X111872703Y-100834764D01*
X111819467Y-100789513D01*
X111799146Y-100722664D01*
X111812655Y-100665190D01*
X111857600Y-100576981D01*
X111857601Y-100576978D01*
X111927541Y-100361725D01*
X111927541Y-100361724D01*
X111927542Y-100361721D01*
X111962950Y-100138169D01*
X111962950Y-99911831D01*
X111927542Y-99688279D01*
X111927541Y-99688275D01*
X111927541Y-99688274D01*
X111857601Y-99473021D01*
X111857599Y-99473018D01*
X111850712Y-99459500D01*
X111754845Y-99271350D01*
X111621807Y-99088239D01*
X111461761Y-98928193D01*
X111278650Y-98795155D01*
X111076981Y-98692400D01*
X111076978Y-98692398D01*
X110861723Y-98622458D01*
X110701665Y-98597107D01*
X110638169Y-98587050D01*
X110411831Y-98587050D01*
X110348335Y-98597107D01*
X110188277Y-98622458D01*
X110188274Y-98622458D01*
X109973021Y-98692398D01*
X109973018Y-98692400D01*
X109771349Y-98795155D01*
X109713561Y-98837141D01*
X109588239Y-98928193D01*
X109588236Y-98928195D01*
X109584298Y-98931057D01*
X109583210Y-98929560D01*
X109526653Y-98954893D01*
X109457569Y-98944446D01*
X109405099Y-98898308D01*
X109385900Y-98832030D01*
X109385900Y-98046540D01*
X111303200Y-98046540D01*
X111303200Y-98193459D01*
X111331858Y-98337534D01*
X111331861Y-98337544D01*
X111388078Y-98473266D01*
X111388083Y-98473275D01*
X111469698Y-98595419D01*
X111469701Y-98595423D01*
X111573576Y-98699298D01*
X111573580Y-98699301D01*
X111695724Y-98780916D01*
X111695730Y-98780919D01*
X111695731Y-98780920D01*
X111831458Y-98837140D01*
X111975540Y-98865799D01*
X111975544Y-98865800D01*
X111975545Y-98865800D01*
X112122456Y-98865800D01*
X112122457Y-98865799D01*
X112266542Y-98837140D01*
X112402269Y-98780920D01*
X112524420Y-98699301D01*
X112628301Y-98595420D01*
X112709920Y-98473269D01*
X112766140Y-98337542D01*
X112794800Y-98193455D01*
X112794800Y-98046545D01*
X112794799Y-98046540D01*
X113335200Y-98046540D01*
X113335200Y-98193459D01*
X113363858Y-98337534D01*
X113363861Y-98337544D01*
X113420078Y-98473266D01*
X113420083Y-98473275D01*
X113501698Y-98595419D01*
X113501701Y-98595423D01*
X113605576Y-98699298D01*
X113605580Y-98699301D01*
X113727724Y-98780916D01*
X113727730Y-98780919D01*
X113727731Y-98780920D01*
X113863458Y-98837140D01*
X114007540Y-98865799D01*
X114007544Y-98865800D01*
X114007545Y-98865800D01*
X114154456Y-98865800D01*
X114154457Y-98865799D01*
X114298542Y-98837140D01*
X114434269Y-98780920D01*
X114556420Y-98699301D01*
X114660301Y-98595420D01*
X114741920Y-98473269D01*
X114798140Y-98337542D01*
X114826800Y-98193455D01*
X114826800Y-98046545D01*
X114798140Y-97902458D01*
X114741920Y-97766731D01*
X114741919Y-97766730D01*
X114741916Y-97766724D01*
X114660301Y-97644580D01*
X114660298Y-97644576D01*
X114556423Y-97540701D01*
X114556419Y-97540698D01*
X114434275Y-97459083D01*
X114434266Y-97459078D01*
X114298544Y-97402861D01*
X114298545Y-97402861D01*
X114298542Y-97402860D01*
X114298538Y-97402859D01*
X114298534Y-97402858D01*
X114154459Y-97374200D01*
X114154455Y-97374200D01*
X114007545Y-97374200D01*
X114007540Y-97374200D01*
X113863465Y-97402858D01*
X113863455Y-97402861D01*
X113727733Y-97459078D01*
X113727724Y-97459083D01*
X113605580Y-97540698D01*
X113605576Y-97540701D01*
X113501701Y-97644576D01*
X113501698Y-97644580D01*
X113420083Y-97766724D01*
X113420078Y-97766733D01*
X113363861Y-97902455D01*
X113363858Y-97902465D01*
X113335200Y-98046540D01*
X112794799Y-98046540D01*
X112766140Y-97902458D01*
X112709920Y-97766731D01*
X112709919Y-97766730D01*
X112709916Y-97766724D01*
X112628301Y-97644580D01*
X112628298Y-97644576D01*
X112524423Y-97540701D01*
X112524419Y-97540698D01*
X112402275Y-97459083D01*
X112402266Y-97459078D01*
X112266544Y-97402861D01*
X112266545Y-97402861D01*
X112266542Y-97402860D01*
X112266538Y-97402859D01*
X112266534Y-97402858D01*
X112122459Y-97374200D01*
X112122455Y-97374200D01*
X111975545Y-97374200D01*
X111975540Y-97374200D01*
X111831465Y-97402858D01*
X111831455Y-97402861D01*
X111695733Y-97459078D01*
X111695724Y-97459083D01*
X111573580Y-97540698D01*
X111573576Y-97540701D01*
X111469701Y-97644576D01*
X111469698Y-97644580D01*
X111388083Y-97766724D01*
X111388078Y-97766733D01*
X111331861Y-97902455D01*
X111331858Y-97902465D01*
X111303200Y-98046540D01*
X109385900Y-98046540D01*
X109385900Y-98038752D01*
X109405585Y-97971713D01*
X109422219Y-97951071D01*
X114476019Y-92897271D01*
X114537342Y-92863786D01*
X114607034Y-92868770D01*
G37*
%TD.AperFunction*%
%TA.AperFunction,Conductor*%
G36*
X120218998Y-63745185D02*
G01*
X120264753Y-63797989D01*
X120274697Y-63867147D01*
X120245672Y-63930703D01*
X120220850Y-63952602D01*
X120094410Y-64037086D01*
X120094406Y-64037089D01*
X119962089Y-64169406D01*
X119962086Y-64169410D01*
X119858124Y-64324999D01*
X119858119Y-64325008D01*
X119786508Y-64497894D01*
X119786506Y-64497902D01*
X119750000Y-64681428D01*
X119750000Y-64875000D01*
X120450000Y-64875000D01*
X120450000Y-65375000D01*
X119750000Y-65375000D01*
X119750000Y-65568571D01*
X119786506Y-65752097D01*
X119786508Y-65752105D01*
X119858119Y-65924991D01*
X119858124Y-65925000D01*
X119886677Y-65967732D01*
X119907555Y-66034410D01*
X119889070Y-66101790D01*
X119837092Y-66148480D01*
X119768122Y-66159656D01*
X119704058Y-66131770D01*
X119695894Y-66124304D01*
X118835098Y-65263508D01*
X118835078Y-65263486D01*
X118743633Y-65172041D01*
X118692409Y-65137815D01*
X118641187Y-65103589D01*
X118641186Y-65103588D01*
X118641183Y-65103586D01*
X118641180Y-65103585D01*
X118560692Y-65070247D01*
X118527353Y-65056437D01*
X118517327Y-65054443D01*
X118466929Y-65044418D01*
X118406510Y-65032400D01*
X118406507Y-65032400D01*
X118406506Y-65032400D01*
X110132706Y-65032400D01*
X110009493Y-65032400D01*
X110009488Y-65032400D01*
X109888655Y-65056435D01*
X109888647Y-65056437D01*
X109774816Y-65103587D01*
X109672365Y-65172042D01*
X109672362Y-65172045D01*
X108326369Y-66518040D01*
X108239243Y-66605165D01*
X108239238Y-66605171D01*
X108230992Y-66617511D01*
X108230993Y-66617512D01*
X108170786Y-66707617D01*
X108170785Y-66707618D01*
X108151629Y-66753868D01*
X108137447Y-66788107D01*
X108131923Y-66801443D01*
X108123637Y-66821445D01*
X108123635Y-66821453D01*
X108099600Y-66942289D01*
X108099600Y-66942294D01*
X108099600Y-67627393D01*
X108099600Y-67750607D01*
X108106622Y-67785910D01*
X108116441Y-67835273D01*
X108123637Y-67871454D01*
X108123639Y-67871458D01*
X108132092Y-67891864D01*
X108132093Y-67891867D01*
X108170785Y-67985281D01*
X108170787Y-67985284D01*
X108170788Y-67985286D01*
X108196569Y-68023868D01*
X108205014Y-68036507D01*
X108205015Y-68036509D01*
X108239241Y-68087733D01*
X108330686Y-68179178D01*
X108330708Y-68179198D01*
X108925538Y-68774028D01*
X108959023Y-68835351D01*
X108961178Y-68848747D01*
X108978826Y-69016656D01*
X108978827Y-69016659D01*
X109002731Y-69090228D01*
X109004726Y-69160070D01*
X108972481Y-69216227D01*
X108245069Y-69943640D01*
X108157944Y-70030764D01*
X108157938Y-70030772D01*
X108089490Y-70133208D01*
X108089488Y-70133213D01*
X108060287Y-70203712D01*
X108042338Y-70247043D01*
X108042338Y-70247045D01*
X108042337Y-70247048D01*
X108019618Y-70361270D01*
X108018300Y-70367896D01*
X108018300Y-76905407D01*
X108020224Y-76915079D01*
X108020224Y-76915083D01*
X108042335Y-77026245D01*
X108042337Y-77026252D01*
X108051965Y-77049496D01*
X108051966Y-77049500D01*
X108051967Y-77049500D01*
X108089488Y-77140086D01*
X108115227Y-77178606D01*
X108157941Y-77242532D01*
X108157944Y-77242536D01*
X108249386Y-77333978D01*
X108249408Y-77333998D01*
X111261038Y-80345628D01*
X111294523Y-80406951D01*
X111296678Y-80420347D01*
X111298058Y-80433474D01*
X111314326Y-80588256D01*
X111314327Y-80588259D01*
X111372818Y-80768277D01*
X111372821Y-80768284D01*
X111467467Y-80932216D01*
X111594129Y-81072888D01*
X111747265Y-81184148D01*
X111747270Y-81184151D01*
X111920192Y-81261142D01*
X111920197Y-81261144D01*
X112105354Y-81300500D01*
X112105355Y-81300500D01*
X112111822Y-81301180D01*
X112111572Y-81303553D01*
X112168211Y-81320185D01*
X112213966Y-81372989D01*
X112223910Y-81442147D01*
X112194885Y-81505703D01*
X112183367Y-81516271D01*
X112183881Y-81516841D01*
X112179052Y-81521188D01*
X112052389Y-81661862D01*
X111957744Y-81825792D01*
X111957741Y-81825799D01*
X111905396Y-81986902D01*
X111899249Y-82005821D01*
X111879463Y-82194077D01*
X111899249Y-82382333D01*
X111899250Y-82382336D01*
X111957741Y-82562354D01*
X111957744Y-82562361D01*
X112052390Y-82726293D01*
X112179052Y-82866965D01*
X112264135Y-82928781D01*
X112321286Y-82970304D01*
X112363951Y-83025634D01*
X112369930Y-83095247D01*
X112340550Y-83153594D01*
X112245566Y-83259084D01*
X112150921Y-83423015D01*
X112150918Y-83423022D01*
X112092427Y-83603040D01*
X112092426Y-83603044D01*
X112072640Y-83791300D01*
X112092426Y-83979556D01*
X112092427Y-83979559D01*
X112150918Y-84159577D01*
X112150921Y-84159584D01*
X112245567Y-84323516D01*
X112372229Y-84464188D01*
X112525365Y-84575448D01*
X112525370Y-84575451D01*
X112698292Y-84652442D01*
X112698297Y-84652444D01*
X112883454Y-84691800D01*
X112883455Y-84691800D01*
X113072744Y-84691800D01*
X113072746Y-84691800D01*
X113257903Y-84652444D01*
X113430830Y-84575451D01*
X113583971Y-84464188D01*
X113710633Y-84323516D01*
X113805279Y-84159584D01*
X113863774Y-83979556D01*
X113883560Y-83791300D01*
X113863774Y-83603044D01*
X113838739Y-83525999D01*
X113837336Y-83476893D01*
X117980001Y-83476893D01*
X117982844Y-83513021D01*
X118027779Y-83667689D01*
X118027780Y-83667692D01*
X118109770Y-83806331D01*
X118109776Y-83806339D01*
X118223660Y-83920223D01*
X118223668Y-83920229D01*
X118362305Y-84002218D01*
X118505000Y-84043674D01*
X118505000Y-83000000D01*
X117980001Y-83000000D01*
X117980001Y-83476893D01*
X113837336Y-83476893D01*
X113836743Y-83456159D01*
X113868987Y-83400001D01*
X114434323Y-82834665D01*
X114495644Y-82801182D01*
X114565336Y-82806166D01*
X114614150Y-82839373D01*
X114626231Y-82852790D01*
X114626235Y-82852793D01*
X114779365Y-82964048D01*
X114779370Y-82964051D01*
X114952292Y-83041042D01*
X114952297Y-83041044D01*
X115137454Y-83080400D01*
X115137455Y-83080400D01*
X115326744Y-83080400D01*
X115326746Y-83080400D01*
X115511903Y-83041044D01*
X115684830Y-82964051D01*
X115837971Y-82852788D01*
X115964633Y-82712116D01*
X116059279Y-82548184D01*
X116117774Y-82368156D01*
X116122064Y-82327336D01*
X116148647Y-82262725D01*
X116205944Y-82222739D01*
X116245384Y-82216300D01*
X117856000Y-82216300D01*
X117923039Y-82235985D01*
X117968794Y-82288789D01*
X117980000Y-82340300D01*
X117980000Y-82500000D01*
X118881000Y-82500000D01*
X118948039Y-82519685D01*
X118993794Y-82572489D01*
X119005000Y-82624000D01*
X119005000Y-84043673D01*
X119147694Y-84002218D01*
X119147695Y-84002218D01*
X119286329Y-83920231D01*
X119286336Y-83920225D01*
X119301963Y-83904598D01*
X119363285Y-83871111D01*
X119432977Y-83876094D01*
X119477329Y-83904598D01*
X119493357Y-83920626D01*
X119493361Y-83920628D01*
X119493363Y-83920630D01*
X119516299Y-83934194D01*
X119632106Y-84002681D01*
X119662798Y-84011598D01*
X119786897Y-84047653D01*
X119786900Y-84047653D01*
X119786902Y-84047654D01*
X119823065Y-84050500D01*
X120226934Y-84050499D01*
X120263098Y-84047654D01*
X120417894Y-84002681D01*
X120556643Y-83920626D01*
X120572317Y-83904952D01*
X120633639Y-83871465D01*
X120703331Y-83876448D01*
X120747683Y-83904952D01*
X120763357Y-83920626D01*
X120763361Y-83920628D01*
X120763363Y-83920630D01*
X120786299Y-83934194D01*
X120902106Y-84002681D01*
X120922358Y-84008565D01*
X120982237Y-84025962D01*
X121041123Y-84063568D01*
X121070329Y-84127041D01*
X121070960Y-84132058D01*
X121076426Y-84184056D01*
X121076427Y-84184059D01*
X121134918Y-84364077D01*
X121134921Y-84364084D01*
X121229567Y-84528016D01*
X121272278Y-84575451D01*
X121356229Y-84668688D01*
X121509365Y-84779948D01*
X121509370Y-84779951D01*
X121682292Y-84856942D01*
X121682297Y-84856944D01*
X121867454Y-84896300D01*
X121867455Y-84896300D01*
X122056744Y-84896300D01*
X122056746Y-84896300D01*
X122241903Y-84856944D01*
X122414830Y-84779951D01*
X122480455Y-84732271D01*
X122546257Y-84708792D01*
X122614311Y-84724617D01*
X122641019Y-84744909D01*
X122841223Y-84945113D01*
X122874708Y-85006436D01*
X122869724Y-85076128D01*
X122827852Y-85132061D01*
X122803978Y-85146073D01*
X122647262Y-85215848D01*
X122647257Y-85215851D01*
X122494121Y-85327111D01*
X122367458Y-85467785D01*
X122272813Y-85631715D01*
X122272810Y-85631722D01*
X122214319Y-85811740D01*
X122214318Y-85811744D01*
X122198372Y-85963463D01*
X122171789Y-86028076D01*
X122114491Y-86068061D01*
X122075052Y-86074500D01*
X117784141Y-86074500D01*
X117784121Y-86074499D01*
X117778007Y-86074499D01*
X117654794Y-86074499D01*
X117553997Y-86094548D01*
X117553992Y-86094548D01*
X117533953Y-86098535D01*
X117533950Y-86098536D01*
X117504217Y-86110852D01*
X117420111Y-86145689D01*
X117312602Y-86217526D01*
X117311187Y-86215409D01*
X117257092Y-86238370D01*
X117242765Y-86239200D01*
X117182054Y-86239200D01*
X117149597Y-86246098D01*
X116996897Y-86278555D01*
X116996892Y-86278557D01*
X116823970Y-86355548D01*
X116823965Y-86355551D01*
X116670835Y-86466806D01*
X116670826Y-86466814D01*
X116652685Y-86486961D01*
X116593197Y-86523608D01*
X116523340Y-86522275D01*
X116472857Y-86491667D01*
X115362260Y-85381070D01*
X115328775Y-85319747D01*
X115326623Y-85306371D01*
X115308974Y-85138444D01*
X115250479Y-84958416D01*
X115155833Y-84794484D01*
X115029171Y-84653812D01*
X115027288Y-84652444D01*
X114876034Y-84542551D01*
X114876029Y-84542548D01*
X114703107Y-84465557D01*
X114703102Y-84465555D01*
X114557301Y-84434565D01*
X114517946Y-84426200D01*
X114328654Y-84426200D01*
X114296197Y-84433098D01*
X114143497Y-84465555D01*
X114143492Y-84465557D01*
X113970570Y-84542548D01*
X113970565Y-84542551D01*
X113817429Y-84653811D01*
X113690766Y-84794485D01*
X113596121Y-84958415D01*
X113596118Y-84958422D01*
X113549725Y-85101206D01*
X113537626Y-85138444D01*
X113517840Y-85326700D01*
X113537626Y-85514956D01*
X113537627Y-85514959D01*
X113596118Y-85694977D01*
X113596121Y-85694984D01*
X113690767Y-85858916D01*
X113742014Y-85915831D01*
X113817429Y-85999588D01*
X113970565Y-86110848D01*
X113970570Y-86110851D01*
X114143492Y-86187842D01*
X114143497Y-86187844D01*
X114328654Y-86227200D01*
X114387848Y-86227200D01*
X114454887Y-86246885D01*
X114475529Y-86263519D01*
X115699329Y-87487319D01*
X115732814Y-87548642D01*
X115727830Y-87618334D01*
X115685958Y-87674267D01*
X115620494Y-87698684D01*
X115611648Y-87699000D01*
X111545980Y-87699000D01*
X111400992Y-87727840D01*
X111400982Y-87727843D01*
X111264408Y-87784414D01*
X111224330Y-87811193D01*
X111141481Y-87866549D01*
X109849728Y-89158302D01*
X109788405Y-89191787D01*
X109787829Y-89191911D01*
X109722696Y-89205756D01*
X109722692Y-89205757D01*
X109549770Y-89282748D01*
X109549765Y-89282751D01*
X109396629Y-89394011D01*
X109269966Y-89534685D01*
X109175321Y-89698615D01*
X109175318Y-89698622D01*
X109116827Y-89878640D01*
X109116826Y-89878644D01*
X109097040Y-90066900D01*
X109116826Y-90255156D01*
X109116827Y-90255159D01*
X109175318Y-90435177D01*
X109175321Y-90435184D01*
X109269967Y-90599116D01*
X109385247Y-90727147D01*
X109396629Y-90739788D01*
X109549765Y-90851048D01*
X109549770Y-90851051D01*
X109722692Y-90928042D01*
X109722697Y-90928044D01*
X109907854Y-90967400D01*
X109907855Y-90967400D01*
X110097144Y-90967400D01*
X110097146Y-90967400D01*
X110282303Y-90928044D01*
X110455230Y-90851051D01*
X110608371Y-90739788D01*
X110735033Y-90599116D01*
X110829679Y-90435184D01*
X110885022Y-90264856D01*
X110915268Y-90215498D01*
X111894449Y-89236319D01*
X111955772Y-89202834D01*
X111982130Y-89200000D01*
X116104747Y-89200000D01*
X116171786Y-89219685D01*
X116217541Y-89272489D01*
X116227485Y-89341647D01*
X116198460Y-89405203D01*
X116192428Y-89411681D01*
X115425583Y-90178524D01*
X115364260Y-90212009D01*
X115294568Y-90207025D01*
X115238635Y-90165153D01*
X115223577Y-90136112D01*
X115223025Y-90136359D01*
X115220380Y-90130420D01*
X115220379Y-90130416D01*
X115125733Y-89966484D01*
X114999071Y-89825812D01*
X114999070Y-89825811D01*
X114845934Y-89714551D01*
X114845929Y-89714548D01*
X114673007Y-89637557D01*
X114673002Y-89637555D01*
X114527201Y-89606565D01*
X114487846Y-89598200D01*
X114298554Y-89598200D01*
X114266097Y-89605098D01*
X114113397Y-89637555D01*
X114113392Y-89637557D01*
X113940470Y-89714548D01*
X113940465Y-89714551D01*
X113787329Y-89825811D01*
X113660666Y-89966485D01*
X113566021Y-90130415D01*
X113566018Y-90130422D01*
X113522337Y-90264860D01*
X113507526Y-90310444D01*
X113504835Y-90336048D01*
X113489878Y-90478351D01*
X113463293Y-90542966D01*
X113454238Y-90553070D01*
X110651095Y-93356214D01*
X107867570Y-96139739D01*
X107867567Y-96139742D01*
X107850554Y-96156755D01*
X107837180Y-96170129D01*
X107775856Y-96203613D01*
X107706165Y-96198627D01*
X107650232Y-96156755D01*
X107625816Y-96091290D01*
X107625500Y-96082446D01*
X107625500Y-65704066D01*
X107625765Y-65695956D01*
X107634201Y-65567242D01*
X107641861Y-65450365D01*
X107643976Y-65434311D01*
X107691193Y-65196933D01*
X107695391Y-65181268D01*
X107721761Y-65103585D01*
X107773189Y-64952080D01*
X107779388Y-64937114D01*
X107886441Y-64720033D01*
X107894544Y-64705998D01*
X108029016Y-64504746D01*
X108038873Y-64491900D01*
X108198464Y-64309922D01*
X108209922Y-64298464D01*
X108391900Y-64138873D01*
X108404746Y-64129016D01*
X108605998Y-63994544D01*
X108620033Y-63986441D01*
X108837114Y-63879388D01*
X108852080Y-63873189D01*
X109015302Y-63817783D01*
X109081268Y-63795391D01*
X109096935Y-63791193D01*
X109334311Y-63743976D01*
X109350367Y-63741861D01*
X109575757Y-63727088D01*
X109595958Y-63725765D01*
X109604067Y-63725500D01*
X109608285Y-63725500D01*
X120151959Y-63725500D01*
X120218998Y-63745185D01*
G37*
%TD.AperFunction*%
%TA.AperFunction,Conductor*%
G36*
X135312897Y-88298185D02*
G01*
X135333539Y-88314819D01*
X140291281Y-93272561D01*
X140324766Y-93333884D01*
X140327600Y-93360242D01*
X140327600Y-96069970D01*
X140307915Y-96137009D01*
X140255111Y-96182764D01*
X140185953Y-96192708D01*
X140122397Y-96163683D01*
X140115919Y-96157651D01*
X139395670Y-95437402D01*
X139365421Y-95388041D01*
X139330638Y-95280992D01*
X139310081Y-95217721D01*
X139310078Y-95217715D01*
X139215433Y-95053784D01*
X139088771Y-94913112D01*
X139060982Y-94892922D01*
X138935634Y-94801851D01*
X138935629Y-94801848D01*
X138762706Y-94724857D01*
X138762704Y-94724856D01*
X138762703Y-94724856D01*
X138748673Y-94721873D01*
X138687193Y-94688680D01*
X138653418Y-94627516D01*
X138651137Y-94587631D01*
X138669460Y-94413300D01*
X138649674Y-94225044D01*
X138591179Y-94045016D01*
X138496533Y-93881084D01*
X138369871Y-93740412D01*
X138272682Y-93669800D01*
X138216734Y-93629151D01*
X138216729Y-93629148D01*
X138043807Y-93552157D01*
X138043802Y-93552155D01*
X137898001Y-93521165D01*
X137858646Y-93512800D01*
X137858645Y-93512800D01*
X137802281Y-93512800D01*
X137735242Y-93493115D01*
X137714600Y-93476481D01*
X136850711Y-92612591D01*
X136848191Y-92610523D01*
X136847225Y-92609105D01*
X136846401Y-92608281D01*
X136846557Y-92608124D01*
X136808856Y-92552777D01*
X136806985Y-92482932D01*
X136843172Y-92423164D01*
X136876419Y-92401390D01*
X136889082Y-92395752D01*
X136936109Y-92374814D01*
X137089250Y-92263551D01*
X137215912Y-92122879D01*
X137310558Y-91958947D01*
X137369053Y-91778919D01*
X137388839Y-91590663D01*
X137369053Y-91402407D01*
X137310558Y-91222379D01*
X137215912Y-91058447D01*
X137089250Y-90917775D01*
X137089249Y-90917774D01*
X136936113Y-90806514D01*
X136936108Y-90806511D01*
X136763186Y-90729520D01*
X136763181Y-90729518D01*
X136626869Y-90700545D01*
X136608251Y-90696587D01*
X136546770Y-90663396D01*
X136546352Y-90662979D01*
X135842084Y-89958711D01*
X135808599Y-89897388D01*
X135806445Y-89884001D01*
X135787297Y-89701809D01*
X135728802Y-89521781D01*
X135634156Y-89357849D01*
X135507494Y-89217177D01*
X135491776Y-89205757D01*
X135354357Y-89105916D01*
X135354352Y-89105913D01*
X135181430Y-89028922D01*
X135181425Y-89028920D01*
X135035624Y-88997930D01*
X134996269Y-88989565D01*
X134806977Y-88989565D01*
X134774520Y-88996463D01*
X134621820Y-89028920D01*
X134621815Y-89028922D01*
X134448893Y-89105913D01*
X134448888Y-89105916D01*
X134295752Y-89217176D01*
X134169089Y-89357850D01*
X134074444Y-89521780D01*
X134074441Y-89521787D01*
X134015950Y-89701805D01*
X134015949Y-89701809D01*
X133996163Y-89890065D01*
X134015949Y-90078321D01*
X134015950Y-90078324D01*
X134074441Y-90258342D01*
X134074444Y-90258349D01*
X134169090Y-90422281D01*
X134258159Y-90521202D01*
X134295752Y-90562953D01*
X134448888Y-90674213D01*
X134448893Y-90674216D01*
X134621814Y-90751207D01*
X134621816Y-90751207D01*
X134621820Y-90751209D01*
X134625821Y-90752059D01*
X134627916Y-90753190D01*
X134628002Y-90753218D01*
X134627996Y-90753233D01*
X134687303Y-90785246D01*
X134687729Y-90785670D01*
X135556874Y-91654815D01*
X135590359Y-91716138D01*
X135592513Y-91729532D01*
X135597704Y-91778912D01*
X135597706Y-91778923D01*
X135656197Y-91958940D01*
X135656200Y-91958947D01*
X135733884Y-92093500D01*
X135750357Y-92161401D01*
X135727504Y-92227427D01*
X135672583Y-92270618D01*
X135626498Y-92279500D01*
X135546611Y-92279500D01*
X135480073Y-92285546D01*
X135480066Y-92285548D01*
X135326933Y-92333265D01*
X135326929Y-92333267D01*
X135264149Y-92371219D01*
X135196594Y-92389055D01*
X135135851Y-92371219D01*
X135073070Y-92333267D01*
X135073066Y-92333265D01*
X134919933Y-92285548D01*
X134919935Y-92285548D01*
X134884676Y-92282344D01*
X134853381Y-92279500D01*
X134853378Y-92279500D01*
X134351611Y-92279500D01*
X134285073Y-92285546D01*
X134285066Y-92285548D01*
X134131933Y-92333265D01*
X134131929Y-92333267D01*
X133994670Y-92416242D01*
X133994665Y-92416246D01*
X133881245Y-92529666D01*
X133812803Y-92642884D01*
X133761275Y-92690072D01*
X133692416Y-92701910D01*
X133628087Y-92674641D01*
X133619005Y-92666415D01*
X132545298Y-91592708D01*
X132545278Y-91592686D01*
X132453833Y-91501241D01*
X132396401Y-91462867D01*
X132351386Y-91432788D01*
X132351387Y-91432788D01*
X132351385Y-91432787D01*
X132310546Y-91415872D01*
X132269707Y-91398956D01*
X132237552Y-91385637D01*
X132237545Y-91385635D01*
X132237543Y-91385635D01*
X132153265Y-91368871D01*
X132153264Y-91368871D01*
X132116711Y-91361600D01*
X132116707Y-91361600D01*
X132116706Y-91361600D01*
X130449505Y-91361600D01*
X130385356Y-91343717D01*
X130368070Y-91333267D01*
X130368066Y-91333265D01*
X130214933Y-91285548D01*
X130214935Y-91285548D01*
X130188312Y-91283128D01*
X130148381Y-91279500D01*
X130148378Y-91279500D01*
X129646611Y-91279500D01*
X129580073Y-91285546D01*
X129580066Y-91285548D01*
X129426937Y-91333264D01*
X129426931Y-91333267D01*
X129363664Y-91371512D01*
X129296109Y-91389347D01*
X129235367Y-91371511D01*
X129172863Y-91333726D01*
X129172859Y-91333724D01*
X129046954Y-91294491D01*
X128988806Y-91255754D01*
X128960832Y-91191728D01*
X128971914Y-91122743D01*
X128996159Y-91088429D01*
X130118271Y-89966319D01*
X130179594Y-89932834D01*
X130205952Y-89930000D01*
X130690052Y-89930000D01*
X130757091Y-89949685D01*
X130782200Y-89971026D01*
X130787926Y-89977385D01*
X130787930Y-89977389D01*
X130941065Y-90088648D01*
X130941070Y-90088651D01*
X131113992Y-90165642D01*
X131113997Y-90165644D01*
X131299154Y-90205000D01*
X131299155Y-90205000D01*
X131488444Y-90205000D01*
X131488446Y-90205000D01*
X131673603Y-90165644D01*
X131846530Y-90088651D01*
X131999671Y-89977388D01*
X132126333Y-89836716D01*
X132220979Y-89672784D01*
X132279474Y-89492756D01*
X132299260Y-89304500D01*
X132279474Y-89116244D01*
X132220979Y-88936216D01*
X132126333Y-88772284D01*
X132066510Y-88705844D01*
X132036280Y-88642853D01*
X132044905Y-88573517D01*
X132089647Y-88519852D01*
X132108221Y-88509594D01*
X132270930Y-88437151D01*
X132424071Y-88325888D01*
X132426988Y-88322647D01*
X132429800Y-88319526D01*
X132489287Y-88282879D01*
X132521948Y-88278500D01*
X135245858Y-88278500D01*
X135312897Y-88298185D01*
G37*
%TD.AperFunction*%
%TA.AperFunction,Conductor*%
G36*
X126818998Y-63745185D02*
G01*
X126864753Y-63797989D01*
X126874697Y-63867147D01*
X126845672Y-63930703D01*
X126820850Y-63952602D01*
X126694410Y-64037086D01*
X126694406Y-64037089D01*
X126562089Y-64169406D01*
X126562086Y-64169410D01*
X126458124Y-64324999D01*
X126458119Y-64325008D01*
X126386508Y-64497894D01*
X126386506Y-64497902D01*
X126350000Y-64681428D01*
X126350000Y-64875000D01*
X127050000Y-64875000D01*
X127050000Y-65375000D01*
X126350000Y-65375000D01*
X126350000Y-65568571D01*
X126386506Y-65752097D01*
X126386508Y-65752105D01*
X126458119Y-65924991D01*
X126458124Y-65925000D01*
X126562086Y-66080589D01*
X126562089Y-66080593D01*
X126694406Y-66212910D01*
X126694410Y-66212913D01*
X126849999Y-66316875D01*
X126850012Y-66316882D01*
X127022889Y-66388489D01*
X127022896Y-66388491D01*
X127050000Y-66393882D01*
X127050000Y-65524728D01*
X127088060Y-65616614D01*
X127158386Y-65686940D01*
X127250272Y-65725000D01*
X127349728Y-65725000D01*
X127441614Y-65686940D01*
X127511940Y-65616614D01*
X127550000Y-65524728D01*
X127550000Y-66393881D01*
X127577103Y-66388491D01*
X127577110Y-66388489D01*
X127749987Y-66316882D01*
X127750000Y-66316875D01*
X127905589Y-66212913D01*
X127905593Y-66212910D01*
X128037910Y-66080593D01*
X128037913Y-66080589D01*
X128091765Y-65999994D01*
X137894357Y-65999994D01*
X137894357Y-66000005D01*
X137914890Y-66247812D01*
X137914892Y-66247824D01*
X137975936Y-66488881D01*
X138075826Y-66716606D01*
X138211833Y-66924782D01*
X138227954Y-66942294D01*
X138380256Y-67107738D01*
X138576491Y-67260474D01*
X138576493Y-67260475D01*
X138713698Y-67334727D01*
X138795190Y-67378828D01*
X139030386Y-67459571D01*
X139275665Y-67500500D01*
X139524335Y-67500500D01*
X139769614Y-67459571D01*
X140004810Y-67378828D01*
X140223509Y-67260474D01*
X140419744Y-67107738D01*
X140588164Y-66924785D01*
X140724173Y-66716607D01*
X140824063Y-66488881D01*
X140885108Y-66247821D01*
X140893340Y-66148480D01*
X140905643Y-66000005D01*
X140905643Y-65999994D01*
X140885109Y-65752187D01*
X140885107Y-65752175D01*
X140824063Y-65511118D01*
X140724173Y-65283393D01*
X140588166Y-65075217D01*
X140548750Y-65032400D01*
X140419744Y-64892262D01*
X140223509Y-64739526D01*
X140223507Y-64739525D01*
X140223506Y-64739524D01*
X140004811Y-64621172D01*
X140004802Y-64621169D01*
X139769616Y-64540429D01*
X139524335Y-64499500D01*
X139275665Y-64499500D01*
X139030383Y-64540429D01*
X138795197Y-64621169D01*
X138795188Y-64621172D01*
X138576493Y-64739524D01*
X138380257Y-64892261D01*
X138211833Y-65075217D01*
X138075826Y-65283393D01*
X137975936Y-65511118D01*
X137914892Y-65752175D01*
X137914890Y-65752187D01*
X137894357Y-65999994D01*
X128091765Y-65999994D01*
X128141875Y-65925000D01*
X128141880Y-65924991D01*
X128213491Y-65752105D01*
X128213493Y-65752097D01*
X128249999Y-65568571D01*
X128250000Y-65568569D01*
X128250000Y-65375000D01*
X127550000Y-65375000D01*
X127550000Y-64875000D01*
X128250000Y-64875000D01*
X128250000Y-64681430D01*
X128249999Y-64681428D01*
X128213493Y-64497902D01*
X128213491Y-64497894D01*
X128141880Y-64325008D01*
X128141875Y-64324999D01*
X128037913Y-64169410D01*
X128037910Y-64169406D01*
X127905593Y-64037089D01*
X127905589Y-64037086D01*
X127779150Y-63952602D01*
X127734345Y-63898990D01*
X127725638Y-63829665D01*
X127755792Y-63766637D01*
X127815235Y-63729918D01*
X127848041Y-63725500D01*
X139591715Y-63725500D01*
X139595933Y-63725500D01*
X139604043Y-63725765D01*
X139849632Y-63741861D01*
X139865690Y-63743976D01*
X140069394Y-63784495D01*
X140103064Y-63791193D01*
X140118731Y-63795391D01*
X140287510Y-63852683D01*
X140347913Y-63873188D01*
X140362890Y-63879391D01*
X140570539Y-63981792D01*
X140579960Y-63986438D01*
X140594007Y-63994548D01*
X140633528Y-64020955D01*
X140795245Y-64129011D01*
X140808106Y-64138879D01*
X140920036Y-64237039D01*
X140990071Y-64298459D01*
X141001540Y-64309928D01*
X141161117Y-64491890D01*
X141170991Y-64504758D01*
X141305451Y-64705992D01*
X141313561Y-64720039D01*
X141420605Y-64937102D01*
X141426812Y-64952088D01*
X141504608Y-65181268D01*
X141508806Y-65196935D01*
X141556021Y-65434298D01*
X141558139Y-65450379D01*
X141574235Y-65695956D01*
X141574500Y-65704066D01*
X141574500Y-92487236D01*
X141554815Y-92554275D01*
X141502011Y-92600030D01*
X141432853Y-92609974D01*
X141369297Y-92580949D01*
X141362819Y-92574917D01*
X136049238Y-87261338D01*
X136049235Y-87261334D01*
X136049235Y-87261335D01*
X136042168Y-87254268D01*
X136042168Y-87254267D01*
X135955043Y-87167142D01*
X135955042Y-87167141D01*
X135955041Y-87167140D01*
X135897873Y-87128942D01*
X135897872Y-87128941D01*
X135852600Y-87098690D01*
X135852596Y-87098688D01*
X135772102Y-87065347D01*
X135738763Y-87051537D01*
X135728737Y-87049543D01*
X135678339Y-87039518D01*
X135617920Y-87027500D01*
X135617917Y-87027500D01*
X135617916Y-87027500D01*
X134670915Y-87027500D01*
X134603876Y-87007815D01*
X134558121Y-86955011D01*
X134548177Y-86885853D01*
X134577202Y-86822297D01*
X134578765Y-86820528D01*
X134626813Y-86767165D01*
X134705733Y-86679516D01*
X134800379Y-86515584D01*
X134858874Y-86335556D01*
X134876521Y-86167645D01*
X134903105Y-86103032D01*
X134912152Y-86092936D01*
X135096329Y-85908760D01*
X135096333Y-85908758D01*
X135183458Y-85821633D01*
X135251911Y-85719186D01*
X135299063Y-85605352D01*
X135313102Y-85534773D01*
X135313639Y-85532074D01*
X135313639Y-85532071D01*
X135323100Y-85484507D01*
X135323100Y-85361294D01*
X135323100Y-84013494D01*
X135319631Y-83996056D01*
X135307327Y-83934194D01*
X135304548Y-83920225D01*
X135299064Y-83892653D01*
X135299063Y-83892652D01*
X135299063Y-83892648D01*
X135251911Y-83778814D01*
X135251910Y-83778813D01*
X135251907Y-83778807D01*
X135183459Y-83676368D01*
X135174780Y-83667689D01*
X135096333Y-83589242D01*
X135096332Y-83589241D01*
X134856818Y-83349727D01*
X134823333Y-83288404D01*
X134820499Y-83262046D01*
X134820499Y-83126611D01*
X134814453Y-83060073D01*
X134814452Y-83060070D01*
X134814452Y-83060067D01*
X134783612Y-82961100D01*
X134766734Y-82906933D01*
X134766732Y-82906929D01*
X134683757Y-82769670D01*
X134683753Y-82769665D01*
X134570334Y-82656246D01*
X134570329Y-82656242D01*
X134433070Y-82573267D01*
X134433066Y-82573265D01*
X134279933Y-82525548D01*
X134279935Y-82525548D01*
X134253312Y-82523128D01*
X134213381Y-82519500D01*
X134213378Y-82519500D01*
X133786611Y-82519500D01*
X133720073Y-82525546D01*
X133720066Y-82525548D01*
X133566933Y-82573265D01*
X133566929Y-82573267D01*
X133429670Y-82656242D01*
X133429665Y-82656246D01*
X133316246Y-82769665D01*
X133316242Y-82769670D01*
X133233267Y-82906929D01*
X133214489Y-82967190D01*
X133175751Y-83025337D01*
X133111725Y-83053310D01*
X133042740Y-83042228D01*
X132990698Y-82995609D01*
X132977720Y-82967190D01*
X132966733Y-82931931D01*
X132966732Y-82931929D01*
X132883757Y-82794670D01*
X132883753Y-82794665D01*
X132770334Y-82681246D01*
X132770329Y-82681242D01*
X132633070Y-82598267D01*
X132633066Y-82598265D01*
X132479933Y-82550548D01*
X132479935Y-82550548D01*
X132453312Y-82548128D01*
X132413381Y-82544500D01*
X132413378Y-82544500D01*
X131986611Y-82544500D01*
X131920073Y-82550546D01*
X131920066Y-82550548D01*
X131766933Y-82598265D01*
X131766929Y-82598267D01*
X131629670Y-82681242D01*
X131560832Y-82750080D01*
X131499508Y-82783564D01*
X131429817Y-82778579D01*
X131385470Y-82750079D01*
X131041828Y-82406438D01*
X131041825Y-82406434D01*
X131041825Y-82406435D01*
X131034759Y-82399369D01*
X131034758Y-82399367D01*
X130947633Y-82312242D01*
X130875648Y-82264143D01*
X130845186Y-82243788D01*
X130845187Y-82243788D01*
X130845185Y-82243787D01*
X130794368Y-82222739D01*
X130758818Y-82208014D01*
X130731352Y-82196637D01*
X130731344Y-82196635D01*
X130647216Y-82179900D01*
X130647207Y-82179900D01*
X130610507Y-82172600D01*
X130610506Y-82172600D01*
X129918207Y-82172600D01*
X129794993Y-82172600D01*
X129776643Y-82176250D01*
X129758292Y-82179900D01*
X129758291Y-82179899D01*
X129674155Y-82196635D01*
X129674147Y-82196637D01*
X129646682Y-82208014D01*
X129646681Y-82208014D01*
X129560318Y-82243785D01*
X129560314Y-82243787D01*
X129529852Y-82264143D01*
X129529850Y-82264144D01*
X129457867Y-82312241D01*
X129457863Y-82312244D01*
X129381993Y-82388115D01*
X129320670Y-82421600D01*
X129250978Y-82416616D01*
X129221427Y-82400752D01*
X129130034Y-82334351D01*
X129130029Y-82334348D01*
X128957107Y-82257357D01*
X128957102Y-82257355D01*
X128892292Y-82243580D01*
X128830810Y-82210388D01*
X128797034Y-82149225D01*
X128801686Y-82079510D01*
X128843291Y-82023378D01*
X128892292Y-82001000D01*
X128894644Y-82000500D01*
X128894646Y-82000500D01*
X129079803Y-81961144D01*
X129252730Y-81884151D01*
X129405871Y-81772888D01*
X129532533Y-81632216D01*
X129627179Y-81468284D01*
X129685674Y-81288256D01*
X129705460Y-81100000D01*
X129685674Y-80911744D01*
X129627179Y-80731716D01*
X129532533Y-80567784D01*
X129405871Y-80427112D01*
X129405870Y-80427111D01*
X129252734Y-80315851D01*
X129252729Y-80315848D01*
X129079807Y-80238857D01*
X129079802Y-80238855D01*
X128934001Y-80207865D01*
X128894646Y-80199500D01*
X128705354Y-80199500D01*
X128672897Y-80206398D01*
X128520197Y-80238855D01*
X128520192Y-80238857D01*
X128347270Y-80315848D01*
X128347265Y-80315851D01*
X128194130Y-80427110D01*
X128194126Y-80427114D01*
X128188400Y-80433474D01*
X128128913Y-80470121D01*
X128096252Y-80474500D01*
X127310452Y-80474500D01*
X127243413Y-80454815D01*
X127222771Y-80438181D01*
X127082322Y-80297732D01*
X126846769Y-80062180D01*
X126813285Y-80000858D01*
X126818269Y-79931167D01*
X126860140Y-79875233D01*
X126925605Y-79850816D01*
X126934451Y-79850500D01*
X129234320Y-79850500D01*
X129331862Y-79831096D01*
X129379313Y-79821658D01*
X129515895Y-79765084D01*
X129584467Y-79719266D01*
X129638816Y-79682952D01*
X129846069Y-79475696D01*
X129907392Y-79442212D01*
X129907971Y-79442088D01*
X129937401Y-79435832D01*
X129973103Y-79428244D01*
X129973106Y-79428242D01*
X129973108Y-79428242D01*
X130031358Y-79402306D01*
X130146030Y-79351251D01*
X130299171Y-79239988D01*
X130425833Y-79099316D01*
X130520479Y-78935384D01*
X130578974Y-78755356D01*
X130598760Y-78567100D01*
X130578974Y-78378844D01*
X130520479Y-78198816D01*
X130425833Y-78034884D01*
X130374218Y-77977560D01*
X130340150Y-77939723D01*
X130309920Y-77876731D01*
X130318545Y-77807396D01*
X130344619Y-77769070D01*
X130460875Y-77652815D01*
X131009872Y-77103819D01*
X131071195Y-77070334D01*
X131097553Y-77067500D01*
X135808452Y-77067500D01*
X135875491Y-77087185D01*
X135900600Y-77108526D01*
X135906326Y-77114885D01*
X135906330Y-77114889D01*
X136059465Y-77226148D01*
X136059470Y-77226151D01*
X136232392Y-77303142D01*
X136232397Y-77303144D01*
X136417554Y-77342500D01*
X136417555Y-77342500D01*
X136606844Y-77342500D01*
X136606846Y-77342500D01*
X136792003Y-77303144D01*
X136964930Y-77226151D01*
X137118071Y-77114888D01*
X137244733Y-76974216D01*
X137339379Y-76810284D01*
X137397874Y-76630256D01*
X137417660Y-76442000D01*
X137397874Y-76253744D01*
X137339379Y-76073716D01*
X137244733Y-75909784D01*
X137118071Y-75769112D01*
X137118070Y-75769111D01*
X136964934Y-75657851D01*
X136964929Y-75657848D01*
X136792007Y-75580857D01*
X136792002Y-75580855D01*
X136646201Y-75549865D01*
X136606846Y-75541500D01*
X136417554Y-75541500D01*
X136385097Y-75548398D01*
X136232397Y-75580855D01*
X136232392Y-75580857D01*
X136059470Y-75657848D01*
X136059465Y-75657851D01*
X135906330Y-75769110D01*
X135906326Y-75769114D01*
X135900600Y-75775474D01*
X135841113Y-75812121D01*
X135808452Y-75816500D01*
X130848706Y-75816500D01*
X130725493Y-75816500D01*
X130679578Y-75825633D01*
X130679577Y-75825632D01*
X130604655Y-75840535D01*
X130604645Y-75840538D01*
X130490816Y-75887687D01*
X130418575Y-75935958D01*
X130418574Y-75935959D01*
X130388363Y-75956144D01*
X130388362Y-75956145D01*
X128708329Y-77636181D01*
X128647006Y-77669666D01*
X128620648Y-77672500D01*
X128258098Y-77672500D01*
X128191059Y-77652815D01*
X128145304Y-77600011D01*
X128135360Y-77530853D01*
X128154995Y-77479610D01*
X128177944Y-77445264D01*
X128177945Y-77445263D01*
X128199312Y-77413286D01*
X128200710Y-77409909D01*
X128227589Y-77369678D01*
X128290626Y-77306643D01*
X128372681Y-77167894D01*
X128413832Y-77026252D01*
X128417653Y-77013102D01*
X128417654Y-77013096D01*
X128420499Y-76976942D01*
X128420500Y-76976935D01*
X128420499Y-75523066D01*
X128419864Y-75515000D01*
X128417654Y-75486902D01*
X128402587Y-75435043D01*
X128402786Y-75365173D01*
X128414276Y-75338447D01*
X128425006Y-75319860D01*
X128509979Y-75172684D01*
X128568474Y-74992656D01*
X128588260Y-74804400D01*
X128568474Y-74616144D01*
X128509979Y-74436116D01*
X128415333Y-74272184D01*
X128288671Y-74131512D01*
X128286199Y-74129716D01*
X128135534Y-74020251D01*
X128135529Y-74020248D01*
X127962607Y-73943257D01*
X127962602Y-73943255D01*
X127816801Y-73912265D01*
X127777446Y-73903900D01*
X127588154Y-73903900D01*
X127555697Y-73910798D01*
X127402997Y-73943255D01*
X127402992Y-73943257D01*
X127230070Y-74020248D01*
X127230065Y-74020251D01*
X127076929Y-74131511D01*
X126950266Y-74272185D01*
X126855621Y-74436115D01*
X126855618Y-74436122D01*
X126797127Y-74616139D01*
X126797126Y-74616141D01*
X126790706Y-74677224D01*
X126764120Y-74741839D01*
X126755067Y-74751942D01*
X126644070Y-74862939D01*
X126644067Y-74862942D01*
X126644059Y-74862948D01*
X126593825Y-74913182D01*
X126532502Y-74946666D01*
X126506145Y-74949500D01*
X126207853Y-74949500D01*
X126140814Y-74929815D01*
X126120172Y-74913181D01*
X125819778Y-74612787D01*
X125467719Y-74260729D01*
X125434235Y-74199407D01*
X125439219Y-74129716D01*
X125463248Y-74090081D01*
X125541733Y-74002916D01*
X125636379Y-73838984D01*
X125694874Y-73658956D01*
X125714660Y-73470700D01*
X125714659Y-73470698D01*
X125715339Y-73464237D01*
X125717460Y-73464460D01*
X125734345Y-73406960D01*
X125787149Y-73361205D01*
X125838660Y-73349999D01*
X125929565Y-73349999D01*
X125997561Y-73343821D01*
X125997572Y-73343818D01*
X126154060Y-73295055D01*
X126154064Y-73295053D01*
X126294337Y-73210256D01*
X126294342Y-73210252D01*
X126410252Y-73094342D01*
X126410256Y-73094337D01*
X126495052Y-72954065D01*
X126543821Y-72797558D01*
X126548142Y-72750000D01*
X125424000Y-72750000D01*
X125356961Y-72730315D01*
X125311206Y-72677511D01*
X125300000Y-72626000D01*
X125300000Y-72250000D01*
X125800000Y-72250000D01*
X126548143Y-72250000D01*
X126548142Y-72249999D01*
X126543821Y-72202441D01*
X126495052Y-72045934D01*
X126410256Y-71905662D01*
X126410252Y-71905657D01*
X126294342Y-71789747D01*
X126294337Y-71789743D01*
X126154065Y-71704947D01*
X125997562Y-71656179D01*
X125929556Y-71650000D01*
X125800000Y-71650000D01*
X125800000Y-72250000D01*
X125300000Y-72250000D01*
X125300000Y-71650000D01*
X125170433Y-71650000D01*
X125102438Y-71656178D01*
X125102427Y-71656181D01*
X124945941Y-71704944D01*
X124901019Y-71732100D01*
X124833464Y-71749935D01*
X124766991Y-71728417D01*
X124722703Y-71674376D01*
X124713549Y-71613024D01*
X124722160Y-71531100D01*
X124702374Y-71342844D01*
X124643879Y-71162816D01*
X124600158Y-71087090D01*
X124583686Y-71019191D01*
X124599086Y-70967747D01*
X124598646Y-70967557D01*
X124600259Y-70963828D01*
X124600818Y-70961963D01*
X124601744Y-70960398D01*
X124647598Y-70802569D01*
X124650500Y-70765694D01*
X124650500Y-70234306D01*
X124650499Y-70234298D01*
X124949500Y-70234298D01*
X124949500Y-70765701D01*
X124952401Y-70802567D01*
X124952402Y-70802573D01*
X124998254Y-70960393D01*
X124998255Y-70960395D01*
X124998256Y-70960398D01*
X125033026Y-71019191D01*
X125081917Y-71101862D01*
X125081923Y-71101870D01*
X125198129Y-71218076D01*
X125198133Y-71218079D01*
X125198135Y-71218081D01*
X125339602Y-71301744D01*
X125381224Y-71313836D01*
X125497426Y-71347597D01*
X125497429Y-71347597D01*
X125497431Y-71347598D01*
X125534306Y-71350500D01*
X125534314Y-71350500D01*
X125965686Y-71350500D01*
X125965694Y-71350500D01*
X126002569Y-71347598D01*
X126002571Y-71347597D01*
X126002573Y-71347597D01*
X126044191Y-71335505D01*
X126160398Y-71301744D01*
X126301865Y-71218081D01*
X126418081Y-71101865D01*
X126501744Y-70960398D01*
X126547598Y-70802569D01*
X126547598Y-70802567D01*
X126548269Y-70798897D01*
X126549206Y-70797034D01*
X126549366Y-70796485D01*
X126549467Y-70796514D01*
X126579677Y-70736485D01*
X126639843Y-70700961D01*
X126644471Y-70699884D01*
X126645337Y-70699700D01*
X126645346Y-70699700D01*
X126830503Y-70660344D01*
X126830507Y-70660342D01*
X126830508Y-70660342D01*
X126888758Y-70634406D01*
X127003430Y-70583351D01*
X127156571Y-70472088D01*
X127283233Y-70331416D01*
X127377879Y-70167484D01*
X127436374Y-69987456D01*
X127456160Y-69799200D01*
X127436374Y-69610944D01*
X127377879Y-69430916D01*
X127283233Y-69266984D01*
X127156571Y-69126312D01*
X127156570Y-69126311D01*
X127003434Y-69015051D01*
X127003429Y-69015048D01*
X126830507Y-68938057D01*
X126830502Y-68938055D01*
X126684701Y-68907065D01*
X126645346Y-68898700D01*
X126456054Y-68898700D01*
X126423597Y-68905598D01*
X126270897Y-68938055D01*
X126270892Y-68938057D01*
X126097970Y-69015048D01*
X126097965Y-69015051D01*
X125944829Y-69126311D01*
X125818166Y-69266985D01*
X125723521Y-69430914D01*
X125723518Y-69430922D01*
X125716260Y-69453259D01*
X125686013Y-69502617D01*
X125571892Y-69616739D01*
X125510569Y-69650224D01*
X125503663Y-69651242D01*
X125503667Y-69651263D01*
X125497426Y-69652402D01*
X125339606Y-69698254D01*
X125339603Y-69698255D01*
X125198137Y-69781917D01*
X125198129Y-69781923D01*
X125081923Y-69898129D01*
X125081917Y-69898137D01*
X124998255Y-70039603D01*
X124998254Y-70039606D01*
X124952402Y-70197426D01*
X124952401Y-70197432D01*
X124949500Y-70234298D01*
X124650499Y-70234298D01*
X124647598Y-70197431D01*
X124640310Y-70172347D01*
X124601745Y-70039606D01*
X124601744Y-70039603D01*
X124601744Y-70039602D01*
X124518081Y-69898135D01*
X124518079Y-69898133D01*
X124518076Y-69898129D01*
X124401870Y-69781923D01*
X124401862Y-69781917D01*
X124260396Y-69698255D01*
X124260393Y-69698254D01*
X124102573Y-69652402D01*
X124102567Y-69652401D01*
X124065701Y-69649500D01*
X124065694Y-69649500D01*
X123634306Y-69649500D01*
X123634299Y-69649500D01*
X123632384Y-69649575D01*
X123632086Y-69649500D01*
X123631871Y-69649500D01*
X123631871Y-69649445D01*
X123564626Y-69632529D01*
X123535381Y-69608642D01*
X123461970Y-69527111D01*
X123461964Y-69527106D01*
X123308834Y-69415851D01*
X123308829Y-69415848D01*
X123135907Y-69338857D01*
X123135903Y-69338856D01*
X123044918Y-69319516D01*
X122983437Y-69286323D01*
X122949660Y-69225160D01*
X122947379Y-69211185D01*
X122944474Y-69183545D01*
X122914153Y-69090228D01*
X122885979Y-69003516D01*
X122791333Y-68839584D01*
X122664671Y-68698912D01*
X122664670Y-68698911D01*
X122511534Y-68587651D01*
X122511529Y-68587648D01*
X122338607Y-68510657D01*
X122338602Y-68510655D01*
X122192801Y-68479665D01*
X122153446Y-68471300D01*
X122153445Y-68471300D01*
X122094252Y-68471300D01*
X122027213Y-68451615D01*
X122006571Y-68434981D01*
X120050695Y-66479105D01*
X120017210Y-66417782D01*
X120022194Y-66348090D01*
X120064066Y-66292157D01*
X120129530Y-66267740D01*
X120197803Y-66282592D01*
X120207267Y-66288322D01*
X120250000Y-66316875D01*
X120250012Y-66316882D01*
X120422889Y-66388489D01*
X120422896Y-66388491D01*
X120450000Y-66393882D01*
X120450000Y-65524728D01*
X120488060Y-65616614D01*
X120558386Y-65686940D01*
X120650272Y-65725000D01*
X120749728Y-65725000D01*
X120841614Y-65686940D01*
X120911940Y-65616614D01*
X120950000Y-65524728D01*
X120950000Y-66393881D01*
X120977103Y-66388491D01*
X120977110Y-66388489D01*
X121149987Y-66316882D01*
X121150000Y-66316875D01*
X121305589Y-66212913D01*
X121305593Y-66212910D01*
X121437910Y-66080593D01*
X121437913Y-66080589D01*
X121541875Y-65925000D01*
X121541880Y-65924991D01*
X121613491Y-65752105D01*
X121613493Y-65752097D01*
X121649999Y-65568571D01*
X121650000Y-65568569D01*
X121650000Y-65375000D01*
X120950000Y-65375000D01*
X120950000Y-64875000D01*
X121650000Y-64875000D01*
X121650000Y-64681430D01*
X121649999Y-64681428D01*
X121613493Y-64497902D01*
X121613491Y-64497894D01*
X121541880Y-64325008D01*
X121541875Y-64324999D01*
X121437913Y-64169410D01*
X121437910Y-64169406D01*
X121305593Y-64037089D01*
X121305589Y-64037086D01*
X121179150Y-63952602D01*
X121134345Y-63898990D01*
X121125638Y-63829665D01*
X121155792Y-63766637D01*
X121215235Y-63729918D01*
X121248041Y-63725500D01*
X126751959Y-63725500D01*
X126818998Y-63745185D01*
G37*
%TD.AperFunction*%
%TA.AperFunction,Conductor*%
G36*
X123421987Y-88517985D02*
G01*
X123442629Y-88534619D01*
X124186329Y-89278319D01*
X124219814Y-89339642D01*
X124214830Y-89409334D01*
X124172958Y-89465267D01*
X124107494Y-89489684D01*
X124098648Y-89490000D01*
X123988842Y-89490000D01*
X123951724Y-89492921D01*
X123902887Y-89507110D01*
X123833017Y-89506910D01*
X123774347Y-89468968D01*
X123765202Y-89456942D01*
X123764698Y-89456188D01*
X123764685Y-89456168D01*
X123715456Y-89382489D01*
X123715452Y-89382484D01*
X123042949Y-88709981D01*
X123009464Y-88648658D01*
X123014448Y-88578966D01*
X123056320Y-88523033D01*
X123121784Y-88498616D01*
X123130630Y-88498300D01*
X123354948Y-88498300D01*
X123421987Y-88517985D01*
G37*
%TD.AperFunction*%
%TA.AperFunction,Conductor*%
G36*
X120604809Y-78570185D02*
G01*
X120625451Y-78586819D01*
X121601452Y-79562819D01*
X121634937Y-79624142D01*
X121629953Y-79693833D01*
X121588081Y-79749767D01*
X121522617Y-79774184D01*
X121513771Y-79774500D01*
X120624835Y-79774500D01*
X120557796Y-79754815D01*
X120512041Y-79702011D01*
X120501514Y-79637540D01*
X120505460Y-79600000D01*
X120485674Y-79411744D01*
X120427179Y-79231716D01*
X120332533Y-79067784D01*
X120205871Y-78927112D01*
X120205870Y-78927111D01*
X120052734Y-78815851D01*
X120052729Y-78815848D01*
X119989685Y-78787779D01*
X119936448Y-78742529D01*
X119916127Y-78675679D01*
X119935173Y-78608456D01*
X119987539Y-78562201D01*
X120040121Y-78550500D01*
X120537770Y-78550500D01*
X120604809Y-78570185D01*
G37*
%TD.AperFunction*%
%TA.AperFunction,Conductor*%
G36*
X117544513Y-72337685D02*
G01*
X117590268Y-72390489D01*
X117600212Y-72459647D01*
X117584861Y-72504000D01*
X117548421Y-72567115D01*
X117548418Y-72567122D01*
X117495394Y-72730315D01*
X117489926Y-72747144D01*
X117470140Y-72935400D01*
X117487494Y-73100514D01*
X117474924Y-73169244D01*
X117427192Y-73220267D01*
X117359452Y-73237385D01*
X117299076Y-73219014D01*
X117251305Y-73189548D01*
X117251300Y-73189546D01*
X117087652Y-73135319D01*
X116986654Y-73125000D01*
X116887500Y-73125000D01*
X116887500Y-74190200D01*
X116867815Y-74257239D01*
X116815011Y-74302994D01*
X116763500Y-74314200D01*
X116645654Y-74314200D01*
X116489975Y-74347290D01*
X116464196Y-74350000D01*
X115600001Y-74350000D01*
X115600001Y-74386654D01*
X115610319Y-74487652D01*
X115664546Y-74651300D01*
X115664551Y-74651311D01*
X115755052Y-74798034D01*
X115755055Y-74798038D01*
X115832490Y-74875473D01*
X115865975Y-74936796D01*
X115862740Y-75001471D01*
X115854628Y-75026437D01*
X115854626Y-75026443D01*
X115846127Y-75107310D01*
X115834840Y-75214700D01*
X115854626Y-75402956D01*
X115854627Y-75402959D01*
X115913118Y-75582977D01*
X115913121Y-75582984D01*
X116007767Y-75746916D01*
X116092062Y-75840535D01*
X116134429Y-75887588D01*
X116287565Y-75998848D01*
X116287570Y-75998851D01*
X116460492Y-76075842D01*
X116460497Y-76075844D01*
X116645654Y-76115200D01*
X116645655Y-76115200D01*
X116834944Y-76115200D01*
X116834946Y-76115200D01*
X117020103Y-76075844D01*
X117193030Y-75998851D01*
X117195076Y-75997364D01*
X117206752Y-75988882D01*
X117272558Y-75965402D01*
X117279637Y-75965200D01*
X117516956Y-75965200D01*
X117583995Y-75984885D01*
X117629750Y-76037689D01*
X117638573Y-76065008D01*
X117640840Y-76076407D01*
X117640843Y-76076417D01*
X117697413Y-76212990D01*
X117697416Y-76212995D01*
X117705255Y-76224727D01*
X117709458Y-76231016D01*
X117709459Y-76231021D01*
X117709461Y-76231021D01*
X117779548Y-76335916D01*
X117943182Y-76499550D01*
X117976666Y-76560872D01*
X117979500Y-76587230D01*
X117979500Y-76976922D01*
X117979501Y-76976947D01*
X117982345Y-77013097D01*
X117999576Y-77072402D01*
X118004500Y-77106998D01*
X118004500Y-77289668D01*
X118004500Y-77289670D01*
X118004499Y-77289670D01*
X118033340Y-77434657D01*
X118033343Y-77434667D01*
X118089913Y-77571240D01*
X118089914Y-77571241D01*
X118089916Y-77571245D01*
X118093214Y-77576181D01*
X118096493Y-77581089D01*
X118172049Y-77694168D01*
X118172052Y-77694171D01*
X118756299Y-78278416D01*
X118856723Y-78378840D01*
X118860835Y-78382952D01*
X118983748Y-78465080D01*
X118983761Y-78465087D01*
X119120045Y-78521537D01*
X119120337Y-78521658D01*
X119183144Y-78534151D01*
X119212862Y-78540063D01*
X119274773Y-78572448D01*
X119309347Y-78633164D01*
X119305608Y-78702933D01*
X119264741Y-78759605D01*
X119239108Y-78774959D01*
X119147267Y-78815850D01*
X119147265Y-78815851D01*
X119021447Y-78907264D01*
X118955641Y-78930744D01*
X118887587Y-78914918D01*
X118860881Y-78894627D01*
X118694862Y-78728608D01*
X118694842Y-78728586D01*
X118603400Y-78637144D01*
X118603396Y-78637141D01*
X118539259Y-78594286D01*
X118539258Y-78594285D01*
X118500954Y-78568690D01*
X118500950Y-78568688D01*
X118497116Y-78567100D01*
X118420456Y-78535347D01*
X118387117Y-78521537D01*
X118377091Y-78519543D01*
X118326693Y-78509518D01*
X118266274Y-78497500D01*
X118266271Y-78497500D01*
X118266270Y-78497500D01*
X113766611Y-78497500D01*
X113699572Y-78477815D01*
X113678930Y-78461181D01*
X112986819Y-77769070D01*
X112192721Y-76974973D01*
X112159237Y-76913651D01*
X112164221Y-76843959D01*
X112206093Y-76788026D01*
X112271557Y-76763609D01*
X112316398Y-76768632D01*
X112450000Y-76809159D01*
X112950000Y-76809159D01*
X113084534Y-76768349D01*
X113258260Y-76675491D01*
X113410528Y-76550528D01*
X113535492Y-76398260D01*
X113535496Y-76398253D01*
X113628347Y-76224541D01*
X113669160Y-76090000D01*
X112950000Y-76090000D01*
X112950000Y-76809159D01*
X112450000Y-76809159D01*
X112450000Y-76049618D01*
X112500446Y-76100064D01*
X112574555Y-76142851D01*
X112657213Y-76165000D01*
X112742787Y-76165000D01*
X112825445Y-76142851D01*
X112899554Y-76100064D01*
X112960064Y-76039554D01*
X113002851Y-75965445D01*
X113025000Y-75882787D01*
X113025000Y-75797213D01*
X113002851Y-75714555D01*
X112960064Y-75640446D01*
X112909618Y-75590000D01*
X112950000Y-75590000D01*
X113669160Y-75590000D01*
X113669160Y-75589999D01*
X113628347Y-75455458D01*
X113535497Y-75281747D01*
X113532111Y-75276680D01*
X113533665Y-75275641D01*
X113509759Y-75219361D01*
X113521547Y-75150493D01*
X113532441Y-75133540D01*
X113532111Y-75133320D01*
X113535497Y-75128252D01*
X113628347Y-74954541D01*
X113669160Y-74820000D01*
X112950000Y-74820000D01*
X112950000Y-75590000D01*
X112909618Y-75590000D01*
X112899554Y-75579936D01*
X112825445Y-75537149D01*
X112742787Y-75515000D01*
X112657213Y-75515000D01*
X112574555Y-75537149D01*
X112500446Y-75579936D01*
X112450000Y-75630382D01*
X112450000Y-74779618D01*
X112500446Y-74830064D01*
X112574555Y-74872851D01*
X112657213Y-74895000D01*
X112742787Y-74895000D01*
X112825445Y-74872851D01*
X112899554Y-74830064D01*
X112960064Y-74769554D01*
X113002851Y-74695445D01*
X113025000Y-74612787D01*
X113025000Y-74527213D01*
X113002851Y-74444555D01*
X112960064Y-74370446D01*
X112909618Y-74320000D01*
X113669160Y-74320000D01*
X113669160Y-74319999D01*
X113628347Y-74185458D01*
X113586920Y-74107953D01*
X113572678Y-74039550D01*
X113597678Y-73974306D01*
X113653984Y-73932936D01*
X113696278Y-73925500D01*
X113867907Y-73925500D01*
X113928329Y-73913481D01*
X113988752Y-73901463D01*
X114037944Y-73881087D01*
X114102586Y-73854312D01*
X114163896Y-73813345D01*
X115600000Y-73813345D01*
X115600000Y-73850000D01*
X116387500Y-73850000D01*
X116387500Y-73124999D01*
X116288360Y-73125000D01*
X116288344Y-73125001D01*
X116187347Y-73135319D01*
X116023699Y-73189546D01*
X116023688Y-73189551D01*
X115876965Y-73280052D01*
X115876961Y-73280055D01*
X115755055Y-73401961D01*
X115755052Y-73401965D01*
X115664551Y-73548688D01*
X115664546Y-73548699D01*
X115610319Y-73712347D01*
X115600000Y-73813345D01*
X114163896Y-73813345D01*
X114163927Y-73813324D01*
X114205033Y-73785858D01*
X114292158Y-73698733D01*
X114292159Y-73698730D01*
X114615672Y-73375216D01*
X114676994Y-73341734D01*
X114703352Y-73338900D01*
X114762544Y-73338900D01*
X114762546Y-73338900D01*
X114947703Y-73299544D01*
X115120630Y-73222551D01*
X115273771Y-73111288D01*
X115400433Y-72970616D01*
X115495079Y-72806684D01*
X115553574Y-72626656D01*
X115573360Y-72438400D01*
X115573359Y-72438398D01*
X115574039Y-72431937D01*
X115576246Y-72432169D01*
X115593045Y-72374961D01*
X115645849Y-72329206D01*
X115697360Y-72318000D01*
X117477474Y-72318000D01*
X117544513Y-72337685D01*
G37*
%TD.AperFunction*%
%TD*%
M02*
