%TF.GenerationSoftware,KiCad,Pcbnew,8.0.2*%
%TF.CreationDate,2024-06-14T14:56:41-07:00*%
%TF.ProjectId,USB_SPDTK,5553425f-5350-4445-944b-2e6b69636164,rev?*%
%TF.SameCoordinates,Original*%
%TF.FileFunction,Legend,Bot*%
%TF.FilePolarity,Positive*%
%FSLAX46Y46*%
G04 Gerber Fmt 4.6, Leading zero omitted, Abs format (unit mm)*
G04 Created by KiCad (PCBNEW 8.0.2) date 2024-06-14 14:56:41*
%MOMM*%
%LPD*%
G01*
G04 APERTURE LIST*
G04 Aperture macros list*
%AMRoundRect*
0 Rectangle with rounded corners*
0 $1 Rounding radius*
0 $2 $3 $4 $5 $6 $7 $8 $9 X,Y pos of 4 corners*
0 Add a 4 corners polygon primitive as box body*
4,1,4,$2,$3,$4,$5,$6,$7,$8,$9,$2,$3,0*
0 Add four circle primitives for the rounded corners*
1,1,$1+$1,$2,$3*
1,1,$1+$1,$4,$5*
1,1,$1+$1,$6,$7*
1,1,$1+$1,$8,$9*
0 Add four rect primitives between the rounded corners*
20,1,$1+$1,$2,$3,$4,$5,0*
20,1,$1+$1,$4,$5,$6,$7,0*
20,1,$1+$1,$6,$7,$8,$9,0*
20,1,$1+$1,$8,$9,$2,$3,0*%
G04 Aperture macros list end*
%ADD10C,0.150000*%
%ADD11C,0.120000*%
%ADD12R,1.000000X1.000000*%
%ADD13O,1.000000X1.000000*%
%ADD14C,3.600000*%
%ADD15C,5.600000*%
%ADD16C,2.374900*%
%ADD17C,0.990600*%
%ADD18O,0.900000X1.600000*%
%ADD19RoundRect,0.137500X0.137500X-0.662500X0.137500X0.662500X-0.137500X0.662500X-0.137500X-0.662500X0*%
%ADD20RoundRect,0.160000X-0.197500X-0.160000X0.197500X-0.160000X0.197500X0.160000X-0.197500X0.160000X0*%
%ADD21RoundRect,0.155000X0.212500X0.155000X-0.212500X0.155000X-0.212500X-0.155000X0.212500X-0.155000X0*%
%ADD22RoundRect,0.155000X-0.212500X-0.155000X0.212500X-0.155000X0.212500X0.155000X-0.212500X0.155000X0*%
%ADD23RoundRect,0.237500X-0.300000X-0.237500X0.300000X-0.237500X0.300000X0.237500X-0.300000X0.237500X0*%
%ADD24RoundRect,0.175000X0.325000X-0.175000X0.325000X0.175000X-0.325000X0.175000X-0.325000X-0.175000X0*%
%ADD25RoundRect,0.150000X0.150000X-0.200000X0.150000X0.200000X-0.150000X0.200000X-0.150000X-0.200000X0*%
%ADD26RoundRect,0.160000X0.197500X0.160000X-0.197500X0.160000X-0.197500X-0.160000X0.197500X-0.160000X0*%
%ADD27RoundRect,0.237500X0.300000X0.237500X-0.300000X0.237500X-0.300000X-0.237500X0.300000X-0.237500X0*%
%ADD28C,3.000000*%
%ADD29RoundRect,0.160000X0.160000X-0.197500X0.160000X0.197500X-0.160000X0.197500X-0.160000X-0.197500X0*%
G04 APERTURE END LIST*
D10*
X128754819Y-78738095D02*
X129564342Y-78738095D01*
X129564342Y-78738095D02*
X129659580Y-78785714D01*
X129659580Y-78785714D02*
X129707200Y-78833333D01*
X129707200Y-78833333D02*
X129754819Y-78928571D01*
X129754819Y-78928571D02*
X129754819Y-79119047D01*
X129754819Y-79119047D02*
X129707200Y-79214285D01*
X129707200Y-79214285D02*
X129659580Y-79261904D01*
X129659580Y-79261904D02*
X129564342Y-79309523D01*
X129564342Y-79309523D02*
X128754819Y-79309523D01*
X128754819Y-79690476D02*
X128754819Y-80309523D01*
X128754819Y-80309523D02*
X129135771Y-79976190D01*
X129135771Y-79976190D02*
X129135771Y-80119047D01*
X129135771Y-80119047D02*
X129183390Y-80214285D01*
X129183390Y-80214285D02*
X129231009Y-80261904D01*
X129231009Y-80261904D02*
X129326247Y-80309523D01*
X129326247Y-80309523D02*
X129564342Y-80309523D01*
X129564342Y-80309523D02*
X129659580Y-80261904D01*
X129659580Y-80261904D02*
X129707200Y-80214285D01*
X129707200Y-80214285D02*
X129754819Y-80119047D01*
X129754819Y-80119047D02*
X129754819Y-79833333D01*
X129754819Y-79833333D02*
X129707200Y-79738095D01*
X129707200Y-79738095D02*
X129659580Y-79690476D01*
X137166666Y-101554819D02*
X137499999Y-101078628D01*
X137738094Y-101554819D02*
X137738094Y-100554819D01*
X137738094Y-100554819D02*
X137357142Y-100554819D01*
X137357142Y-100554819D02*
X137261904Y-100602438D01*
X137261904Y-100602438D02*
X137214285Y-100650057D01*
X137214285Y-100650057D02*
X137166666Y-100745295D01*
X137166666Y-100745295D02*
X137166666Y-100888152D01*
X137166666Y-100888152D02*
X137214285Y-100983390D01*
X137214285Y-100983390D02*
X137261904Y-101031009D01*
X137261904Y-101031009D02*
X137357142Y-101078628D01*
X137357142Y-101078628D02*
X137738094Y-101078628D01*
X136690475Y-101554819D02*
X136499999Y-101554819D01*
X136499999Y-101554819D02*
X136404761Y-101507200D01*
X136404761Y-101507200D02*
X136357142Y-101459580D01*
X136357142Y-101459580D02*
X136261904Y-101316723D01*
X136261904Y-101316723D02*
X136214285Y-101126247D01*
X136214285Y-101126247D02*
X136214285Y-100745295D01*
X136214285Y-100745295D02*
X136261904Y-100650057D01*
X136261904Y-100650057D02*
X136309523Y-100602438D01*
X136309523Y-100602438D02*
X136404761Y-100554819D01*
X136404761Y-100554819D02*
X136595237Y-100554819D01*
X136595237Y-100554819D02*
X136690475Y-100602438D01*
X136690475Y-100602438D02*
X136738094Y-100650057D01*
X136738094Y-100650057D02*
X136785713Y-100745295D01*
X136785713Y-100745295D02*
X136785713Y-100983390D01*
X136785713Y-100983390D02*
X136738094Y-101078628D01*
X136738094Y-101078628D02*
X136690475Y-101126247D01*
X136690475Y-101126247D02*
X136595237Y-101173866D01*
X136595237Y-101173866D02*
X136404761Y-101173866D01*
X136404761Y-101173866D02*
X136309523Y-101126247D01*
X136309523Y-101126247D02*
X136261904Y-101078628D01*
X136261904Y-101078628D02*
X136214285Y-100983390D01*
X130610357Y-94899580D02*
X130657976Y-94947200D01*
X130657976Y-94947200D02*
X130800833Y-94994819D01*
X130800833Y-94994819D02*
X130896071Y-94994819D01*
X130896071Y-94994819D02*
X131038928Y-94947200D01*
X131038928Y-94947200D02*
X131134166Y-94851961D01*
X131134166Y-94851961D02*
X131181785Y-94756723D01*
X131181785Y-94756723D02*
X131229404Y-94566247D01*
X131229404Y-94566247D02*
X131229404Y-94423390D01*
X131229404Y-94423390D02*
X131181785Y-94232914D01*
X131181785Y-94232914D02*
X131134166Y-94137676D01*
X131134166Y-94137676D02*
X131038928Y-94042438D01*
X131038928Y-94042438D02*
X130896071Y-93994819D01*
X130896071Y-93994819D02*
X130800833Y-93994819D01*
X130800833Y-93994819D02*
X130657976Y-94042438D01*
X130657976Y-94042438D02*
X130610357Y-94090057D01*
X129657976Y-94994819D02*
X130229404Y-94994819D01*
X129943690Y-94994819D02*
X129943690Y-93994819D01*
X129943690Y-93994819D02*
X130038928Y-94137676D01*
X130038928Y-94137676D02*
X130134166Y-94232914D01*
X130134166Y-94232914D02*
X130229404Y-94280533D01*
X128705595Y-94994819D02*
X129277023Y-94994819D01*
X128991309Y-94994819D02*
X128991309Y-93994819D01*
X128991309Y-93994819D02*
X129086547Y-94137676D01*
X129086547Y-94137676D02*
X129181785Y-94232914D01*
X129181785Y-94232914D02*
X129277023Y-94280533D01*
X124342857Y-98519580D02*
X124390476Y-98567200D01*
X124390476Y-98567200D02*
X124533333Y-98614819D01*
X124533333Y-98614819D02*
X124628571Y-98614819D01*
X124628571Y-98614819D02*
X124771428Y-98567200D01*
X124771428Y-98567200D02*
X124866666Y-98471961D01*
X124866666Y-98471961D02*
X124914285Y-98376723D01*
X124914285Y-98376723D02*
X124961904Y-98186247D01*
X124961904Y-98186247D02*
X124961904Y-98043390D01*
X124961904Y-98043390D02*
X124914285Y-97852914D01*
X124914285Y-97852914D02*
X124866666Y-97757676D01*
X124866666Y-97757676D02*
X124771428Y-97662438D01*
X124771428Y-97662438D02*
X124628571Y-97614819D01*
X124628571Y-97614819D02*
X124533333Y-97614819D01*
X124533333Y-97614819D02*
X124390476Y-97662438D01*
X124390476Y-97662438D02*
X124342857Y-97710057D01*
X123390476Y-98614819D02*
X123961904Y-98614819D01*
X123676190Y-98614819D02*
X123676190Y-97614819D01*
X123676190Y-97614819D02*
X123771428Y-97757676D01*
X123771428Y-97757676D02*
X123866666Y-97852914D01*
X123866666Y-97852914D02*
X123961904Y-97900533D01*
X122771428Y-97614819D02*
X122676190Y-97614819D01*
X122676190Y-97614819D02*
X122580952Y-97662438D01*
X122580952Y-97662438D02*
X122533333Y-97710057D01*
X122533333Y-97710057D02*
X122485714Y-97805295D01*
X122485714Y-97805295D02*
X122438095Y-97995771D01*
X122438095Y-97995771D02*
X122438095Y-98233866D01*
X122438095Y-98233866D02*
X122485714Y-98424342D01*
X122485714Y-98424342D02*
X122533333Y-98519580D01*
X122533333Y-98519580D02*
X122580952Y-98567200D01*
X122580952Y-98567200D02*
X122676190Y-98614819D01*
X122676190Y-98614819D02*
X122771428Y-98614819D01*
X122771428Y-98614819D02*
X122866666Y-98567200D01*
X122866666Y-98567200D02*
X122914285Y-98519580D01*
X122914285Y-98519580D02*
X122961904Y-98424342D01*
X122961904Y-98424342D02*
X123009523Y-98233866D01*
X123009523Y-98233866D02*
X123009523Y-97995771D01*
X123009523Y-97995771D02*
X122961904Y-97805295D01*
X122961904Y-97805295D02*
X122914285Y-97710057D01*
X122914285Y-97710057D02*
X122866666Y-97662438D01*
X122866666Y-97662438D02*
X122771428Y-97614819D01*
X123866666Y-89499580D02*
X123914285Y-89547200D01*
X123914285Y-89547200D02*
X124057142Y-89594819D01*
X124057142Y-89594819D02*
X124152380Y-89594819D01*
X124152380Y-89594819D02*
X124295237Y-89547200D01*
X124295237Y-89547200D02*
X124390475Y-89451961D01*
X124390475Y-89451961D02*
X124438094Y-89356723D01*
X124438094Y-89356723D02*
X124485713Y-89166247D01*
X124485713Y-89166247D02*
X124485713Y-89023390D01*
X124485713Y-89023390D02*
X124438094Y-88832914D01*
X124438094Y-88832914D02*
X124390475Y-88737676D01*
X124390475Y-88737676D02*
X124295237Y-88642438D01*
X124295237Y-88642438D02*
X124152380Y-88594819D01*
X124152380Y-88594819D02*
X124057142Y-88594819D01*
X124057142Y-88594819D02*
X123914285Y-88642438D01*
X123914285Y-88642438D02*
X123866666Y-88690057D01*
X123390475Y-89594819D02*
X123199999Y-89594819D01*
X123199999Y-89594819D02*
X123104761Y-89547200D01*
X123104761Y-89547200D02*
X123057142Y-89499580D01*
X123057142Y-89499580D02*
X122961904Y-89356723D01*
X122961904Y-89356723D02*
X122914285Y-89166247D01*
X122914285Y-89166247D02*
X122914285Y-88785295D01*
X122914285Y-88785295D02*
X122961904Y-88690057D01*
X122961904Y-88690057D02*
X123009523Y-88642438D01*
X123009523Y-88642438D02*
X123104761Y-88594819D01*
X123104761Y-88594819D02*
X123295237Y-88594819D01*
X123295237Y-88594819D02*
X123390475Y-88642438D01*
X123390475Y-88642438D02*
X123438094Y-88690057D01*
X123438094Y-88690057D02*
X123485713Y-88785295D01*
X123485713Y-88785295D02*
X123485713Y-89023390D01*
X123485713Y-89023390D02*
X123438094Y-89118628D01*
X123438094Y-89118628D02*
X123390475Y-89166247D01*
X123390475Y-89166247D02*
X123295237Y-89213866D01*
X123295237Y-89213866D02*
X123104761Y-89213866D01*
X123104761Y-89213866D02*
X123009523Y-89166247D01*
X123009523Y-89166247D02*
X122961904Y-89118628D01*
X122961904Y-89118628D02*
X122914285Y-89023390D01*
X118142857Y-75889580D02*
X118190476Y-75937200D01*
X118190476Y-75937200D02*
X118333333Y-75984819D01*
X118333333Y-75984819D02*
X118428571Y-75984819D01*
X118428571Y-75984819D02*
X118571428Y-75937200D01*
X118571428Y-75937200D02*
X118666666Y-75841961D01*
X118666666Y-75841961D02*
X118714285Y-75746723D01*
X118714285Y-75746723D02*
X118761904Y-75556247D01*
X118761904Y-75556247D02*
X118761904Y-75413390D01*
X118761904Y-75413390D02*
X118714285Y-75222914D01*
X118714285Y-75222914D02*
X118666666Y-75127676D01*
X118666666Y-75127676D02*
X118571428Y-75032438D01*
X118571428Y-75032438D02*
X118428571Y-74984819D01*
X118428571Y-74984819D02*
X118333333Y-74984819D01*
X118333333Y-74984819D02*
X118190476Y-75032438D01*
X118190476Y-75032438D02*
X118142857Y-75080057D01*
X117190476Y-75984819D02*
X117761904Y-75984819D01*
X117476190Y-75984819D02*
X117476190Y-74984819D01*
X117476190Y-74984819D02*
X117571428Y-75127676D01*
X117571428Y-75127676D02*
X117666666Y-75222914D01*
X117666666Y-75222914D02*
X117761904Y-75270533D01*
X116285714Y-74984819D02*
X116761904Y-74984819D01*
X116761904Y-74984819D02*
X116809523Y-75461009D01*
X116809523Y-75461009D02*
X116761904Y-75413390D01*
X116761904Y-75413390D02*
X116666666Y-75365771D01*
X116666666Y-75365771D02*
X116428571Y-75365771D01*
X116428571Y-75365771D02*
X116333333Y-75413390D01*
X116333333Y-75413390D02*
X116285714Y-75461009D01*
X116285714Y-75461009D02*
X116238095Y-75556247D01*
X116238095Y-75556247D02*
X116238095Y-75794342D01*
X116238095Y-75794342D02*
X116285714Y-75889580D01*
X116285714Y-75889580D02*
X116333333Y-75937200D01*
X116333333Y-75937200D02*
X116428571Y-75984819D01*
X116428571Y-75984819D02*
X116666666Y-75984819D01*
X116666666Y-75984819D02*
X116761904Y-75937200D01*
X116761904Y-75937200D02*
X116809523Y-75889580D01*
X127954819Y-70741905D02*
X126954819Y-70741905D01*
X126954819Y-70741905D02*
X126954819Y-70980000D01*
X126954819Y-70980000D02*
X127002438Y-71122857D01*
X127002438Y-71122857D02*
X127097676Y-71218095D01*
X127097676Y-71218095D02*
X127192914Y-71265714D01*
X127192914Y-71265714D02*
X127383390Y-71313333D01*
X127383390Y-71313333D02*
X127526247Y-71313333D01*
X127526247Y-71313333D02*
X127716723Y-71265714D01*
X127716723Y-71265714D02*
X127811961Y-71218095D01*
X127811961Y-71218095D02*
X127907200Y-71122857D01*
X127907200Y-71122857D02*
X127954819Y-70980000D01*
X127954819Y-70980000D02*
X127954819Y-70741905D01*
X127050057Y-71694286D02*
X127002438Y-71741905D01*
X127002438Y-71741905D02*
X126954819Y-71837143D01*
X126954819Y-71837143D02*
X126954819Y-72075238D01*
X126954819Y-72075238D02*
X127002438Y-72170476D01*
X127002438Y-72170476D02*
X127050057Y-72218095D01*
X127050057Y-72218095D02*
X127145295Y-72265714D01*
X127145295Y-72265714D02*
X127240533Y-72265714D01*
X127240533Y-72265714D02*
X127383390Y-72218095D01*
X127383390Y-72218095D02*
X127954819Y-71646667D01*
X127954819Y-71646667D02*
X127954819Y-72265714D01*
X129610357Y-96899580D02*
X129657976Y-96947200D01*
X129657976Y-96947200D02*
X129800833Y-96994819D01*
X129800833Y-96994819D02*
X129896071Y-96994819D01*
X129896071Y-96994819D02*
X130038928Y-96947200D01*
X130038928Y-96947200D02*
X130134166Y-96851961D01*
X130134166Y-96851961D02*
X130181785Y-96756723D01*
X130181785Y-96756723D02*
X130229404Y-96566247D01*
X130229404Y-96566247D02*
X130229404Y-96423390D01*
X130229404Y-96423390D02*
X130181785Y-96232914D01*
X130181785Y-96232914D02*
X130134166Y-96137676D01*
X130134166Y-96137676D02*
X130038928Y-96042438D01*
X130038928Y-96042438D02*
X129896071Y-95994819D01*
X129896071Y-95994819D02*
X129800833Y-95994819D01*
X129800833Y-95994819D02*
X129657976Y-96042438D01*
X129657976Y-96042438D02*
X129610357Y-96090057D01*
X128657976Y-96994819D02*
X129229404Y-96994819D01*
X128943690Y-96994819D02*
X128943690Y-95994819D01*
X128943690Y-95994819D02*
X129038928Y-96137676D01*
X129038928Y-96137676D02*
X129134166Y-96232914D01*
X129134166Y-96232914D02*
X129229404Y-96280533D01*
X128324642Y-95994819D02*
X127705595Y-95994819D01*
X127705595Y-95994819D02*
X128038928Y-96375771D01*
X128038928Y-96375771D02*
X127896071Y-96375771D01*
X127896071Y-96375771D02*
X127800833Y-96423390D01*
X127800833Y-96423390D02*
X127753214Y-96471009D01*
X127753214Y-96471009D02*
X127705595Y-96566247D01*
X127705595Y-96566247D02*
X127705595Y-96804342D01*
X127705595Y-96804342D02*
X127753214Y-96899580D01*
X127753214Y-96899580D02*
X127800833Y-96947200D01*
X127800833Y-96947200D02*
X127896071Y-96994819D01*
X127896071Y-96994819D02*
X128181785Y-96994819D01*
X128181785Y-96994819D02*
X128277023Y-96947200D01*
X128277023Y-96947200D02*
X128324642Y-96899580D01*
X129942857Y-91384819D02*
X130276190Y-90908628D01*
X130514285Y-91384819D02*
X130514285Y-90384819D01*
X130514285Y-90384819D02*
X130133333Y-90384819D01*
X130133333Y-90384819D02*
X130038095Y-90432438D01*
X130038095Y-90432438D02*
X129990476Y-90480057D01*
X129990476Y-90480057D02*
X129942857Y-90575295D01*
X129942857Y-90575295D02*
X129942857Y-90718152D01*
X129942857Y-90718152D02*
X129990476Y-90813390D01*
X129990476Y-90813390D02*
X130038095Y-90861009D01*
X130038095Y-90861009D02*
X130133333Y-90908628D01*
X130133333Y-90908628D02*
X130514285Y-90908628D01*
X128990476Y-91384819D02*
X129561904Y-91384819D01*
X129276190Y-91384819D02*
X129276190Y-90384819D01*
X129276190Y-90384819D02*
X129371428Y-90527676D01*
X129371428Y-90527676D02*
X129466666Y-90622914D01*
X129466666Y-90622914D02*
X129561904Y-90670533D01*
X128657142Y-90384819D02*
X127990476Y-90384819D01*
X127990476Y-90384819D02*
X128419047Y-91384819D01*
X132633333Y-97701009D02*
X132966666Y-97701009D01*
X132966666Y-98224819D02*
X132966666Y-97224819D01*
X132966666Y-97224819D02*
X132490476Y-97224819D01*
X131776190Y-97701009D02*
X131633333Y-97748628D01*
X131633333Y-97748628D02*
X131585714Y-97796247D01*
X131585714Y-97796247D02*
X131538095Y-97891485D01*
X131538095Y-97891485D02*
X131538095Y-98034342D01*
X131538095Y-98034342D02*
X131585714Y-98129580D01*
X131585714Y-98129580D02*
X131633333Y-98177200D01*
X131633333Y-98177200D02*
X131728571Y-98224819D01*
X131728571Y-98224819D02*
X132109523Y-98224819D01*
X132109523Y-98224819D02*
X132109523Y-97224819D01*
X132109523Y-97224819D02*
X131776190Y-97224819D01*
X131776190Y-97224819D02*
X131680952Y-97272438D01*
X131680952Y-97272438D02*
X131633333Y-97320057D01*
X131633333Y-97320057D02*
X131585714Y-97415295D01*
X131585714Y-97415295D02*
X131585714Y-97510533D01*
X131585714Y-97510533D02*
X131633333Y-97605771D01*
X131633333Y-97605771D02*
X131680952Y-97653390D01*
X131680952Y-97653390D02*
X131776190Y-97701009D01*
X131776190Y-97701009D02*
X132109523Y-97701009D01*
X130585714Y-98224819D02*
X131157142Y-98224819D01*
X130871428Y-98224819D02*
X130871428Y-97224819D01*
X130871428Y-97224819D02*
X130966666Y-97367676D01*
X130966666Y-97367676D02*
X131061904Y-97462914D01*
X131061904Y-97462914D02*
X131157142Y-97510533D01*
X131824819Y-83457142D02*
X131348628Y-83123809D01*
X131824819Y-82885714D02*
X130824819Y-82885714D01*
X130824819Y-82885714D02*
X130824819Y-83266666D01*
X130824819Y-83266666D02*
X130872438Y-83361904D01*
X130872438Y-83361904D02*
X130920057Y-83409523D01*
X130920057Y-83409523D02*
X131015295Y-83457142D01*
X131015295Y-83457142D02*
X131158152Y-83457142D01*
X131158152Y-83457142D02*
X131253390Y-83409523D01*
X131253390Y-83409523D02*
X131301009Y-83361904D01*
X131301009Y-83361904D02*
X131348628Y-83266666D01*
X131348628Y-83266666D02*
X131348628Y-82885714D01*
X131824819Y-84409523D02*
X131824819Y-83838095D01*
X131824819Y-84123809D02*
X130824819Y-84123809D01*
X130824819Y-84123809D02*
X130967676Y-84028571D01*
X130967676Y-84028571D02*
X131062914Y-83933333D01*
X131062914Y-83933333D02*
X131110533Y-83838095D01*
X131158152Y-85266666D02*
X131824819Y-85266666D01*
X130777200Y-85028571D02*
X131491485Y-84790476D01*
X131491485Y-84790476D02*
X131491485Y-85409523D01*
X133824819Y-83357142D02*
X133348628Y-83023809D01*
X133824819Y-82785714D02*
X132824819Y-82785714D01*
X132824819Y-82785714D02*
X132824819Y-83166666D01*
X132824819Y-83166666D02*
X132872438Y-83261904D01*
X132872438Y-83261904D02*
X132920057Y-83309523D01*
X132920057Y-83309523D02*
X133015295Y-83357142D01*
X133015295Y-83357142D02*
X133158152Y-83357142D01*
X133158152Y-83357142D02*
X133253390Y-83309523D01*
X133253390Y-83309523D02*
X133301009Y-83261904D01*
X133301009Y-83261904D02*
X133348628Y-83166666D01*
X133348628Y-83166666D02*
X133348628Y-82785714D01*
X133824819Y-84309523D02*
X133824819Y-83738095D01*
X133824819Y-84023809D02*
X132824819Y-84023809D01*
X132824819Y-84023809D02*
X132967676Y-83928571D01*
X132967676Y-83928571D02*
X133062914Y-83833333D01*
X133062914Y-83833333D02*
X133110533Y-83738095D01*
X132824819Y-84642857D02*
X132824819Y-85261904D01*
X132824819Y-85261904D02*
X133205771Y-84928571D01*
X133205771Y-84928571D02*
X133205771Y-85071428D01*
X133205771Y-85071428D02*
X133253390Y-85166666D01*
X133253390Y-85166666D02*
X133301009Y-85214285D01*
X133301009Y-85214285D02*
X133396247Y-85261904D01*
X133396247Y-85261904D02*
X133634342Y-85261904D01*
X133634342Y-85261904D02*
X133729580Y-85214285D01*
X133729580Y-85214285D02*
X133777200Y-85166666D01*
X133777200Y-85166666D02*
X133824819Y-85071428D01*
X133824819Y-85071428D02*
X133824819Y-84785714D01*
X133824819Y-84785714D02*
X133777200Y-84690476D01*
X133777200Y-84690476D02*
X133729580Y-84642857D01*
X125854819Y-101957142D02*
X125378628Y-101623809D01*
X125854819Y-101385714D02*
X124854819Y-101385714D01*
X124854819Y-101385714D02*
X124854819Y-101766666D01*
X124854819Y-101766666D02*
X124902438Y-101861904D01*
X124902438Y-101861904D02*
X124950057Y-101909523D01*
X124950057Y-101909523D02*
X125045295Y-101957142D01*
X125045295Y-101957142D02*
X125188152Y-101957142D01*
X125188152Y-101957142D02*
X125283390Y-101909523D01*
X125283390Y-101909523D02*
X125331009Y-101861904D01*
X125331009Y-101861904D02*
X125378628Y-101766666D01*
X125378628Y-101766666D02*
X125378628Y-101385714D01*
X125854819Y-102909523D02*
X125854819Y-102338095D01*
X125854819Y-102623809D02*
X124854819Y-102623809D01*
X124854819Y-102623809D02*
X124997676Y-102528571D01*
X124997676Y-102528571D02*
X125092914Y-102433333D01*
X125092914Y-102433333D02*
X125140533Y-102338095D01*
X125854819Y-103861904D02*
X125854819Y-103290476D01*
X125854819Y-103576190D02*
X124854819Y-103576190D01*
X124854819Y-103576190D02*
X124997676Y-103480952D01*
X124997676Y-103480952D02*
X125092914Y-103385714D01*
X125092914Y-103385714D02*
X125140533Y-103290476D01*
X135942857Y-92354819D02*
X136276190Y-91878628D01*
X136514285Y-92354819D02*
X136514285Y-91354819D01*
X136514285Y-91354819D02*
X136133333Y-91354819D01*
X136133333Y-91354819D02*
X136038095Y-91402438D01*
X136038095Y-91402438D02*
X135990476Y-91450057D01*
X135990476Y-91450057D02*
X135942857Y-91545295D01*
X135942857Y-91545295D02*
X135942857Y-91688152D01*
X135942857Y-91688152D02*
X135990476Y-91783390D01*
X135990476Y-91783390D02*
X136038095Y-91831009D01*
X136038095Y-91831009D02*
X136133333Y-91878628D01*
X136133333Y-91878628D02*
X136514285Y-91878628D01*
X134990476Y-92354819D02*
X135561904Y-92354819D01*
X135276190Y-92354819D02*
X135276190Y-91354819D01*
X135276190Y-91354819D02*
X135371428Y-91497676D01*
X135371428Y-91497676D02*
X135466666Y-91592914D01*
X135466666Y-91592914D02*
X135561904Y-91640533D01*
X134133333Y-91354819D02*
X134323809Y-91354819D01*
X134323809Y-91354819D02*
X134419047Y-91402438D01*
X134419047Y-91402438D02*
X134466666Y-91450057D01*
X134466666Y-91450057D02*
X134561904Y-91592914D01*
X134561904Y-91592914D02*
X134609523Y-91783390D01*
X134609523Y-91783390D02*
X134609523Y-92164342D01*
X134609523Y-92164342D02*
X134561904Y-92259580D01*
X134561904Y-92259580D02*
X134514285Y-92307200D01*
X134514285Y-92307200D02*
X134419047Y-92354819D01*
X134419047Y-92354819D02*
X134228571Y-92354819D01*
X134228571Y-92354819D02*
X134133333Y-92307200D01*
X134133333Y-92307200D02*
X134085714Y-92259580D01*
X134085714Y-92259580D02*
X134038095Y-92164342D01*
X134038095Y-92164342D02*
X134038095Y-91926247D01*
X134038095Y-91926247D02*
X134085714Y-91831009D01*
X134085714Y-91831009D02*
X134133333Y-91783390D01*
X134133333Y-91783390D02*
X134228571Y-91735771D01*
X134228571Y-91735771D02*
X134419047Y-91735771D01*
X134419047Y-91735771D02*
X134514285Y-91783390D01*
X134514285Y-91783390D02*
X134561904Y-91831009D01*
X134561904Y-91831009D02*
X134609523Y-91926247D01*
X135654819Y-83557142D02*
X135178628Y-83223809D01*
X135654819Y-82985714D02*
X134654819Y-82985714D01*
X134654819Y-82985714D02*
X134654819Y-83366666D01*
X134654819Y-83366666D02*
X134702438Y-83461904D01*
X134702438Y-83461904D02*
X134750057Y-83509523D01*
X134750057Y-83509523D02*
X134845295Y-83557142D01*
X134845295Y-83557142D02*
X134988152Y-83557142D01*
X134988152Y-83557142D02*
X135083390Y-83509523D01*
X135083390Y-83509523D02*
X135131009Y-83461904D01*
X135131009Y-83461904D02*
X135178628Y-83366666D01*
X135178628Y-83366666D02*
X135178628Y-82985714D01*
X135654819Y-84509523D02*
X135654819Y-83938095D01*
X135654819Y-84223809D02*
X134654819Y-84223809D01*
X134654819Y-84223809D02*
X134797676Y-84128571D01*
X134797676Y-84128571D02*
X134892914Y-84033333D01*
X134892914Y-84033333D02*
X134940533Y-83938095D01*
X134750057Y-84890476D02*
X134702438Y-84938095D01*
X134702438Y-84938095D02*
X134654819Y-85033333D01*
X134654819Y-85033333D02*
X134654819Y-85271428D01*
X134654819Y-85271428D02*
X134702438Y-85366666D01*
X134702438Y-85366666D02*
X134750057Y-85414285D01*
X134750057Y-85414285D02*
X134845295Y-85461904D01*
X134845295Y-85461904D02*
X134940533Y-85461904D01*
X134940533Y-85461904D02*
X135083390Y-85414285D01*
X135083390Y-85414285D02*
X135654819Y-84842857D01*
X135654819Y-84842857D02*
X135654819Y-85461904D01*
D11*
%TO.C,U3*%
X117940000Y-77115000D02*
X117940000Y-79500000D01*
X117940000Y-81885000D02*
X117940000Y-79500000D01*
X118220000Y-77115000D02*
X117940000Y-77115000D01*
X118220000Y-81885000D02*
X117940000Y-81885000D01*
X128180000Y-77115000D02*
X128460000Y-77115000D01*
X128180000Y-81885000D02*
X128460000Y-81885000D01*
X128460000Y-77115000D02*
X128460000Y-79500000D01*
X128460000Y-81885000D02*
X128460000Y-79500000D01*
X128510000Y-82902500D02*
X128180000Y-82662500D01*
X128510000Y-82422500D01*
X128510000Y-82902500D01*
G36*
X128510000Y-82902500D02*
G01*
X128180000Y-82662500D01*
X128510000Y-82422500D01*
X128510000Y-82902500D01*
G37*
%TO.C,R9*%
X136167621Y-99320000D02*
X135832379Y-99320000D01*
X136167621Y-100080000D02*
X135832379Y-100080000D01*
%TO.C,C11*%
X129851665Y-95340000D02*
X130083335Y-95340000D01*
X129851665Y-96060000D02*
X130083335Y-96060000D01*
%TO.C,C10*%
X123815835Y-96640000D02*
X123584165Y-96640000D01*
X123815835Y-97360000D02*
X123584165Y-97360000D01*
%TO.C,C9*%
X123584165Y-89940000D02*
X123815835Y-89940000D01*
X123584165Y-90660000D02*
X123815835Y-90660000D01*
%TO.C,C15*%
X117646267Y-73590000D02*
X117353733Y-73590000D01*
X117646267Y-74610000D02*
X117353733Y-74610000D01*
%TO.C,D2*%
X123240000Y-70850000D02*
X123240000Y-72150000D01*
X126360000Y-72120000D02*
X126360000Y-70850000D01*
X126640000Y-72740000D02*
X126310000Y-72500000D01*
X126640000Y-72260000D01*
X126640000Y-72740000D01*
G36*
X126640000Y-72740000D02*
G01*
X126310000Y-72500000D01*
X126640000Y-72260000D01*
X126640000Y-72740000D01*
G37*
%TO.C,C13*%
X128851665Y-97340000D02*
X129083335Y-97340000D01*
X128851665Y-98060000D02*
X129083335Y-98060000D01*
%TO.C,R17*%
X129132379Y-91720000D02*
X129467621Y-91720000D01*
X129132379Y-92480000D02*
X129467621Y-92480000D01*
%TO.C,FB1*%
X131653733Y-98690000D02*
X131946267Y-98690000D01*
X131653733Y-99710000D02*
X131946267Y-99710000D01*
%TO.C,R14*%
X129820000Y-83932379D02*
X129820000Y-84267621D01*
X130580000Y-83932379D02*
X130580000Y-84267621D01*
%TO.C,R13*%
X131820000Y-83832379D02*
X131820000Y-84167621D01*
X132580000Y-83832379D02*
X132580000Y-84167621D01*
%TO.C,R11*%
X126520000Y-102732379D02*
X126520000Y-103067621D01*
X127280000Y-102732379D02*
X127280000Y-103067621D01*
%TO.C,R16*%
X135367621Y-92720000D02*
X135032379Y-92720000D01*
X135367621Y-93480000D02*
X135032379Y-93480000D01*
%TO.C,R12*%
X133620000Y-83807379D02*
X133620000Y-84142621D01*
X134380000Y-83807379D02*
X134380000Y-84142621D01*
%TD*%
%LPC*%
D12*
%TO.C,J3*%
X111430000Y-66950000D03*
D13*
X112700000Y-66950000D03*
X111430000Y-68220000D03*
X112700000Y-68220000D03*
X111430000Y-69490000D03*
X112700000Y-69490000D03*
X111430000Y-70760000D03*
X112700000Y-70760000D03*
X111430000Y-72030000D03*
X112700000Y-72030000D03*
X111430000Y-73300000D03*
X112700000Y-73300000D03*
X111430000Y-74570000D03*
X112700000Y-74570000D03*
X111430000Y-75840000D03*
X112700000Y-75840000D03*
%TD*%
D14*
%TO.C,H1*%
X119012000Y-110500000D03*
D15*
X119012000Y-110500000D03*
%TD*%
D16*
%TO.C,J2*%
X110525000Y-105740000D03*
D17*
X113065000Y-105740000D03*
D16*
X115605000Y-105740000D03*
X110525000Y-100025000D03*
X115605000Y-100025000D03*
D17*
X112049000Y-98120000D03*
X114081000Y-98120000D03*
%TD*%
D14*
%TO.C,H2*%
X130188000Y-110500000D03*
D15*
X130188000Y-110500000D03*
%TD*%
D18*
%TO.C,J1*%
X127300000Y-65125000D03*
X120700000Y-65125000D03*
%TD*%
D19*
%TO.C,U3*%
X127645000Y-82750000D03*
X126375000Y-82750000D03*
X125105000Y-82750000D03*
X123835000Y-82750000D03*
X122565000Y-82750000D03*
X121295000Y-82750000D03*
X120025000Y-82750000D03*
X118755000Y-82750000D03*
X118755000Y-76250000D03*
X120025000Y-76250000D03*
X121295000Y-76250000D03*
X122565000Y-76250000D03*
X123835000Y-76250000D03*
X125105000Y-76250000D03*
X126375000Y-76250000D03*
X127645000Y-76250000D03*
%TD*%
D20*
%TO.C,R9*%
X135402500Y-99700000D03*
X136597500Y-99700000D03*
%TD*%
D21*
%TO.C,C11*%
X130535000Y-95700000D03*
X129400000Y-95700000D03*
%TD*%
D22*
%TO.C,C10*%
X123132500Y-97000000D03*
X124267500Y-97000000D03*
%TD*%
D21*
%TO.C,C9*%
X124267500Y-90300000D03*
X123132500Y-90300000D03*
%TD*%
D23*
%TO.C,C15*%
X116637500Y-74100000D03*
X118362500Y-74100000D03*
%TD*%
D24*
%TO.C,D2*%
X125550000Y-72500000D03*
D25*
X123850000Y-72500000D03*
X123850000Y-70500000D03*
X125750000Y-70500000D03*
%TD*%
D21*
%TO.C,C13*%
X129535000Y-97700000D03*
X128400000Y-97700000D03*
%TD*%
D26*
%TO.C,R17*%
X129897500Y-92100000D03*
X128702500Y-92100000D03*
%TD*%
D27*
%TO.C,FB1*%
X132662500Y-99200000D03*
X130937500Y-99200000D03*
%TD*%
D28*
%TO.C,FID3*%
X109900000Y-111500000D03*
%TD*%
D29*
%TO.C,R14*%
X130200000Y-84697500D03*
X130200000Y-83502500D03*
%TD*%
%TO.C,R13*%
X132200000Y-84597500D03*
X132200000Y-83402500D03*
%TD*%
%TO.C,R11*%
X126900000Y-103497500D03*
X126900000Y-102302500D03*
%TD*%
D20*
%TO.C,R16*%
X134602500Y-93100000D03*
X135797500Y-93100000D03*
%TD*%
D29*
%TO.C,R12*%
X134000000Y-84572500D03*
X134000000Y-83377500D03*
%TD*%
D28*
%TO.C,FID4*%
X139400000Y-66000000D03*
%TD*%
%LPD*%
M02*
